Pochaevsk.ufo
<glyph name="exclam" format="2">
  <advance width="296"/>
  <unicode hex="0021"/>
  <outline>
    <contour>
      <point x="139" y="179" type="line"/>
      <point x="80" y="568" type="line"/>
      <point x="138" y="634" type="line"/>
      <point x="153" y="634" type="line"/>
      <point x="212" y="568" type="line"/>
      <point x="153" y="179" type="line"/>
    </contour>
    <contour>
      <point x="146" y="-20" type="line"/>
      <point x="83" y="53" type="line"/>
      <point x="146" y="125" type="line"/>
      <point x="209" y="53" type="line"/>
    </contour>
  </outline>
</glyph>
<glyph name="quotedbl" format="2">
  <advance width="361"/>
  <unicode hex="0022"/>
  <outline>
    <contour>
      <point x="129" y="347" type="line" smooth="yes"/>
      <point x="127.667" y="346.333"/>
      <point x="125" y="345.333"/>
      <point x="121" y="344" type="curve" smooth="yes"/>
      <point x="119" y="343.333"/>
      <point x="115.333" y="342.333"/>
      <point x="110" y="341" type="curve" smooth="yes"/>
      <point x="108.667" y="340.333"/>
      <point x="106.833" y="340"/>
      <point x="104.5" y="340" type="curve" smooth="yes"/>
      <point x="102.167" y="340"/>
      <point x="100.333" y="339.667"/>
      <point x="99" y="339" type="curve" smooth="yes"/>
      <point x="96.3333" y="338.333"/>
      <point x="93" y="338"/>
      <point x="89" y="338" type="curve"/>
      <point x="66" y="594" type="line" smooth="yes"/>
      <point x="66.6667" y="594.667"/>
      <point x="71.3333" y="596.333"/>
      <point x="80" y="599" type="curve" smooth="yes"/>
      <point x="82" y="599.667"/>
      <point x="85" y="600.833"/>
      <point x="89" y="602.5" type="curve" smooth="yes"/>
      <point x="93" y="604.167"/>
      <point x="96" y="605.333"/>
      <point x="98" y="606" type="curve" smooth="yes"/>
      <point x="116" y="612" type="line"/>
      <point x="123.5" y="614.5" type="line"/>
      <point x="129" y="616" type="line"/>
      <point x="146" y="607" type="line"/>
    </contour>
    <contour>
      <point x="278" y="347" type="line" smooth="yes"/>
      <point x="276.667" y="346.333"/>
      <point x="274" y="345.333"/>
      <point x="270" y="344" type="curve" smooth="yes"/>
      <point x="268" y="343.333"/>
      <point x="264.333" y="342.333"/>
      <point x="259" y="341" type="curve" smooth="yes"/>
      <point x="257.667" y="340.333"/>
      <point x="255.833" y="340"/>
      <point x="253.5" y="340" type="curve" smooth="yes"/>
      <point x="251.167" y="340"/>
      <point x="249.333" y="339.667"/>
      <point x="248" y="339" type="curve" smooth="yes"/>
      <point x="245.333" y="338.333"/>
      <point x="242" y="338"/>
      <point x="238" y="338" type="curve"/>
      <point x="215" y="594" type="line" smooth="yes"/>
      <point x="215.667" y="594.667"/>
      <point x="220.333" y="596.333"/>
      <point x="229" y="599" type="curve" smooth="yes"/>
      <point x="231" y="599.667"/>
      <point x="233.833" y="600.833"/>
      <point x="237.5" y="602.5" type="curve" smooth="yes"/>
      <point x="241.167" y="604.167"/>
      <point x="244" y="605.333"/>
      <point x="246" y="606" type="curve" smooth="yes"/>
      <point x="248" y="606.667"/>
      <point x="251.167" y="607.667"/>
      <point x="255.5" y="609" type="curve" smooth="yes"/>
      <point x="259.833" y="610.333"/>
      <point x="263" y="611.333"/>
      <point x="265" y="612" type="curve" smooth="yes"/>
      <point x="272.5" y="614.5" type="line"/>
      <point x="278" y="616" type="line"/>
      <point x="296" y="607" type="line"/>
    </contour>
  </outline>
</glyph>
<glyph name="parenleft" format="2">
  <advance width="251"/>
  <unicode hex="0028"/>
  <outline>
    <contour>
      <point x="275" y="-182" type="line"/>
      <point x="143" y="-170"/>
      <point x="61" y="73"/>
      <point x="61" y="276" type="curve" smooth="yes"/>
      <point x="61" y="278"/>
      <point x="61" y="279"/>
      <point x="61" y="281" type="curve" smooth="yes"/>
      <point x="61" y="479"/>
      <point x="126" y="731"/>
      <point x="275" y="747" type="curve"/>
      <point x="275" y="732" type="line"/>
      <point x="167" y="698"/>
      <point x="149" y="486"/>
      <point x="149" y="307" type="curve" smooth="yes"/>
      <point x="149" y="296"/>
      <point x="149" y="286"/>
      <point x="149" y="276" type="curve" smooth="yes"/>
      <point x="150" y="98"/>
      <point x="173" y="-130"/>
      <point x="275" y="-163" type="curve"/>
    </contour>
  </outline>
</glyph>
<glyph name="hyphen" format="2">
  <advance width="286"/>
  <unicode hex="002D"/>
  <outline>
    <contour>
      <point x="262" y="227" type="line"/>
      <point x="260.667" y="223"/>
      <point x="258.667" y="216.333"/>
      <point x="256" y="207" type="curve" smooth="yes"/>
      <point x="255.333" y="204.333"/>
      <point x="254" y="200.667"/>
      <point x="252" y="196" type="curve" smooth="yes"/>
      <point x="249" y="190" type="line"/>
      <point x="36" y="190" type="line"/>
      <point x="26" y="199" type="line" smooth="yes"/>
      <point x="26.6667" y="201"/>
      <point x="27.5" y="204.167"/>
      <point x="28.5" y="208.5" type="curve" smooth="yes"/>
      <point x="29.5" y="212.833"/>
      <point x="30.3333" y="216"/>
      <point x="31" y="218" type="curve" smooth="yes"/>
      <point x="31.6667" y="220"/>
      <point x="32.8333" y="223.167"/>
      <point x="34.5" y="227.5" type="curve" smooth="yes"/>
      <point x="36.1667" y="231.833"/>
      <point x="37.3333" y="235"/>
      <point x="38" y="237" type="curve" smooth="yes"/>
      <point x="251" y="237" type="line"/>
    </contour>
  </outline>
</glyph>
<glyph name="period" format="2">
  <advance width="259"/>
  <unicode hex="002E"/>
  <outline>
    <contour>
      <point x="186" y="44" type="curve" smooth="yes"/>
      <point x="186" y="12"/>
      <point x="160" y="-14"/>
      <point x="128" y="-14" type="curve" smooth="yes"/>
      <point x="95" y="-14"/>
      <point x="69" y="12"/>
      <point x="69" y="44" type="curve" smooth="yes"/>
      <point x="69" y="76"/>
      <point x="95" y="102"/>
      <point x="128" y="102" type="curve" smooth="yes"/>
      <point x="160" y="102"/>
      <point x="186" y="76"/>
    </contour>
  </outline>
</glyph>
<glyph name="colon" format="2">
  <advance width="296"/>
  <unicode hex="003A"/>
  <outline>
    <contour>
      <point x="210" y="384" type="line"/>
      <point x="145" y="312" type="line"/>
      <point x="81" y="384" type="line"/>
      <point x="145" y="458" type="line"/>
    </contour>
    <contour>
      <point x="211" y="56" type="line"/>
      <point x="145" y="-16" type="line"/>
      <point x="81" y="56" type="line"/>
      <point x="145" y="128" type="line"/>
    </contour>
  </outline>
</glyph>
<glyph name="bracketleft" format="2">
  <advance width="352"/>
  <unicode hex="005B"/>
  <outline>
    <contour>
      <point x="334" y="-103" type="line"/>
      <point x="334" y="-144" type="line"/>
      <point x="59" y="-148" type="line"/>
      <point x="59" y="713" type="line"/>
      <point x="333" y="709" type="line"/>
      <point x="333" y="667" type="line"/>
      <point x="187" y="669" type="line" smooth="yes"/>
      <point x="164" y="669"/>
      <point x="151" y="666"/>
      <point x="146" y="661" type="curve" smooth="yes"/>
      <point x="142" y="656"/>
      <point x="140" y="642"/>
      <point x="140" y="620" type="curve" smooth="yes"/>
      <point x="140" y="-63" type="line" smooth="yes"/>
      <point x="140" y="-102"/>
      <point x="143" y="-104"/>
      <point x="180" y="-104" type="curve" smooth="yes"/>
    </contour>
  </outline>
</glyph>
<glyph name="asciitilde" format="2">
  <advance width="415"/>
  <unicode hex="007E"/>
  <outline>
    <contour>
      <point x="395" y="322" type="line"/>
      <point x="375.174" y="276.4"/>
      <point x="345.255" y="234.106"/>
      <point x="308" y="210" type="curve" smooth="yes"/>
      <point x="294.667" y="202"/>
      <point x="281.667" y="198"/>
      <point x="269" y="198" type="curve" smooth="yes"/>
      <point x="243.49" y="198"/>
      <point x="210.04" y="219.974"/>
      <point x="192" y="232" type="curve" smooth="yes"/>
      <point x="172" y="243.333"/>
      <point x="159" y="250.667"/>
      <point x="153" y="254" type="curve" smooth="yes"/>
      <point x="139.667" y="261.333"/>
      <point x="127" y="265"/>
      <point x="115" y="265" type="curve" smooth="yes"/>
      <point x="100.333" y="265"/>
      <point x="87.6667" y="259.667"/>
      <point x="77" y="249" type="curve" smooth="yes"/>
      <point x="65" y="237"/>
      <point x="53.3333" y="220"/>
      <point x="42" y="198" type="curve"/>
      <point x="20" y="209" type="line"/>
      <point x="39.5738" y="254.02"/>
      <point x="69.1475" y="295.86"/>
      <point x="108" y="321" type="curve" smooth="yes"/>
      <point x="120" y="328.333"/>
      <point x="132.667" y="332"/>
      <point x="146" y="332" type="curve" smooth="yes"/>
      <point x="159.333" y="332"/>
      <point x="172.667" y="328.667"/>
      <point x="186" y="322" type="curve" smooth="yes"/>
      <point x="196.751" y="316.624"/>
      <point x="258.114" y="279.532"/>
      <point x="264" y="276" type="curve" smooth="yes"/>
      <point x="276.667" y="269.333"/>
      <point x="288.667" y="266"/>
      <point x="300" y="266" type="curve" smooth="yes"/>
      <point x="314" y="266"/>
      <point x="326.667" y="271.333"/>
      <point x="338" y="282" type="curve" smooth="yes"/>
      <point x="348" y="291.333"/>
      <point x="359.667" y="308"/>
      <point x="373" y="332" type="curve"/>
    </contour>
  </outline>
</glyph>
<glyph name="logicalnot" format="2">
  <advance width="541"/>
  <unicode hex="00AC"/>
  <outline>
    <contour>
      <point x="17" y="412" type="line"/>
      <point x="523" y="412" type="line"/>
      <point x="523" y="221" type="line"/>
      <point x="486" y="221" type="line"/>
      <point x="486" y="373" type="line"/>
      <point x="17" y="373" type="line"/>
    </contour>
  </outline>
</glyph>
<glyph name="acute" format="2">
  <advance width="271"/>
  <unicode hex="00B4"/>
  <outline>
    <contour>
      <point x="114" y="435" type="line"/>
      <point x="110.667" y="435.667"/>
      <point x="106.333" y="437.333"/>
      <point x="101" y="440" type="curve" smooth="yes"/>
      <point x="99.6667" y="440.667"/>
      <point x="96" y="443"/>
      <point x="90" y="447" type="curve"/>
      <point x="188" y="619" type="line"/>
      <point x="192.667" y="619"/>
      <point x="197" y="618.667"/>
      <point x="201" y="618" type="curve" smooth="yes"/>
      <point x="203" y="618"/>
      <point x="205.833" y="617.667"/>
      <point x="209.5" y="617" type="curve" smooth="yes"/>
      <point x="213.167" y="616.333"/>
      <point x="216" y="615.667"/>
      <point x="218" y="615" type="curve" smooth="yes"/>
      <point x="220" y="614.333"/>
      <point x="222.833" y="614"/>
      <point x="226.5" y="614" type="curve" smooth="yes"/>
      <point x="230.167" y="614"/>
      <point x="233" y="613.667"/>
      <point x="235" y="613" type="curve" smooth="yes"/>
      <point x="240.333" y="612.333"/>
      <point x="244.667" y="611.333"/>
      <point x="248" y="610" type="curve" smooth="yes"/>
      <point x="258" y="594" type="line"/>
    </contour>
  </outline>
</glyph>
<glyph name="guillemotright" format="2">
  <advance width="480"/>
  <unicode hex="00BB"/>
  <outline>
    <contour>
      <point x="225" y="437" type="line"/>
      <point x="251" y="437" type="line"/>
      <point x="432" y="216" type="line"/>
      <point x="251" y="-5" type="line"/>
      <point x="225" y="-5" type="line"/>
      <point x="339" y="216" type="line"/>
    </contour>
    <contour>
      <point x="33" y="437" type="line"/>
      <point x="61" y="437" type="line"/>
      <point x="245" y="216" type="line"/>
      <point x="61" y="-5" type="line"/>
      <point x="33" y="-5" type="line"/>
      <point x="146" y="216" type="line"/>
    </contour>
  </outline>
</glyph>
<glyph name="gravecomb" format="2">
  <advance width="1"/>
  <unicode hex="0300"/>
  <anchor x="-174" y="623" name="_Stack"/>
  <anchor x="-196" y="902" name="Stack"/>
  <anchor x="-177" y="622" name="_Above"/>
  <outline>
    <contour>
      <point x="-247" y="687" type="curve" smooth="yes"/>
      <point x="-294" y="761" type="line" smooth="yes"/>
      <point x="-311" y="789"/>
      <point x="-321" y="806"/>
      <point x="-321" y="809" type="curve" smooth="yes"/>
      <point x="-321" y="816"/>
      <point x="-317" y="817"/>
      <point x="-310" y="817" type="curve" smooth="yes"/>
      <point x="-285" y="815" type="line"/>
      <point x="-252" y="811"/>
      <point x="-249" y="810"/>
      <point x="-241" y="795" type="curve" smooth="yes"/>
      <point x="-225" y="764"/>
      <point x="-209" y="733"/>
      <point x="-193" y="703" type="curve"/>
      <point x="-179" y="673" type="line"/>
      <point x="-160" y="637" type="line"/>
      <point x="-158" y="630" type="line"/>
      <point x="-158" y="625"/>
      <point x="-163" y="623"/>
      <point x="-174" y="623" type="curve" smooth="yes"/>
      <point x="-190" y="623"/>
      <point x="-201" y="626"/>
      <point x="-208" y="632" type="curve" smooth="yes"/>
      <point x="-215" y="638"/>
      <point x="-228" y="656"/>
    </contour>
  </outline>
</glyph>
<glyph name="uni0306" format="2">
  <advance width="0"/>
  <unicode hex="0306"/>
  <anchor x="-241" y="968" name="Stack"/>
  <anchor x="-219" y="689" name="_Stack"/>
  <anchor x="-219" y="692" name="_Above"/>
  <outline>
    <contour>
      <point x="-159" y="820" type="curve" smooth="yes"/>
      <point x="-159" y="831"/>
      <point x="-162" y="841"/>
      <point x="-167" y="851" type="curve" smooth="yes"/>
      <point x="-171" y="867" type="line" smooth="yes"/>
      <point x="-171" y="873"/>
      <point x="-168" y="876"/>
      <point x="-162" y="876" type="curve" smooth="yes"/>
      <point x="-155" y="876"/>
      <point x="-147" y="866"/>
      <point x="-138" y="847" type="curve" smooth="yes"/>
      <point x="-129" y="828"/>
      <point x="-124" y="809"/>
      <point x="-124" y="788" type="curve" smooth="yes"/>
      <point x="-124" y="758"/>
      <point x="-134" y="735"/>
      <point x="-155" y="718" type="curve" smooth="yes"/>
      <point x="-175" y="701"/>
      <point x="-197" y="693"/>
      <point x="-220" y="693" type="curve" smooth="yes"/>
      <point x="-267" y="693"/>
      <point x="-312" y="729"/>
      <point x="-312" y="782" type="curve" smooth="yes"/>
      <point x="-312" y="805"/>
      <point x="-307" y="827"/>
      <point x="-297" y="846" type="curve" smooth="yes"/>
      <point x="-286" y="865"/>
      <point x="-277" y="875"/>
      <point x="-269" y="875" type="curve" smooth="yes"/>
      <point x="-261" y="875"/>
      <point x="-257" y="871"/>
      <point x="-257" y="863" type="curve" smooth="yes"/>
      <point x="-257" y="863"/>
      <point x="-257" y="863"/>
      <point x="-257" y="862" type="curve" smooth="yes"/>
      <point x="-257" y="860"/>
      <point x="-268" y="853"/>
      <point x="-272" y="820" type="curve" smooth="yes"/>
      <point x="-272" y="783"/>
      <point x="-240" y="765"/>
      <point x="-213" y="765" type="curve" smooth="yes"/>
      <point x="-176" y="765"/>
      <point x="-159" y="793"/>
    </contour>
  </outline>
</glyph>
<glyph name="uni0307" format="2">
  <advance width="1"/>
  <unicode hex="0307"/>
  <anchor x="-196" y="989" name="Stack"/>
  <anchor x="-174" y="710" name="_Stack"/>
  <anchor x="-175" y="712" name="_Above"/>
  <outline>
    <contour>
      <point x="-126" y="714" type="line"/>
      <point x="-221" y="714" type="line"/>
      <point x="-240" y="831" type="line"/>
      <point x="-145" y="831" type="line"/>
    </contour>
  </outline>
</glyph>
<glyph name="uni0308" format="2">
  <advance width="1"/>
  <unicode hex="0308"/>
  <anchor x="-276" y="992" name="Stack"/>
  <anchor x="-254" y="713" name="_Stack"/>
  <anchor x="-251" y="712" name="_Above"/>
  <outline>
    <contour>
      <point x="-277" y="714" type="line"/>
      <point x="-372" y="714" type="line"/>
      <point x="-391" y="831" type="line"/>
      <point x="-296" y="831" type="line"/>
    </contour>
    <contour>
      <point x="-126" y="714" type="line"/>
      <point x="-221" y="714" type="line"/>
      <point x="-240" y="831" type="line"/>
      <point x="-145" y="831" type="line"/>
    </contour>
  </outline>
</glyph>
<glyph name="uni030F" format="2">
  <advance width="1"/>
  <unicode hex="030F"/>
  <anchor x="-192" y="950" name="Stack"/>
  <anchor x="-170" y="671" name="_Stack"/>
  <anchor x="-167" y="672" name="_Above"/>
  <outline>
    <contour>
      <point x="-350" y="926" type="curve" smooth="yes"/>
      <point x="-331" y="923" type="line"/>
      <point x="-310" y="919" type="line" smooth="yes"/>
      <point x="-302" y="918"/>
      <point x="-297" y="915"/>
      <point x="-294" y="909" type="curve" smooth="yes"/>
      <point x="-268.761" y="844.905"/>
      <point x="-243.859" y="780.474"/>
      <point x="-221" y="714" type="curve" smooth="yes"/>
      <point x="-220" y="710"/>
      <point x="-210" y="683"/>
      <point x="-210" y="679" type="curve" smooth="yes"/>
      <point x="-210" y="675"/>
      <point x="-214" y="673"/>
      <point x="-223" y="673" type="curve"/>
      <point x="-255" y="678" type="line" smooth="yes"/>
      <point x="-258" y="679"/>
      <point x="-261" y="683"/>
      <point x="-264" y="690" type="curve" smooth="yes"/>
      <point x="-274.448" y="714.219"/>
      <point x="-284.711" y="738.622"/>
      <point x="-295" y="763" type="curve" smooth="yes"/>
      <point x="-322" y="825" type="line" smooth="yes"/>
      <point x="-326.409" y="834.7"/>
      <point x="-359" y="903.522"/>
      <point x="-359" y="917" type="curve" smooth="yes"/>
      <point x="-359" y="923"/>
      <point x="-356" y="926"/>
    </contour>
    <contour>
      <point x="-125" y="690" type="curve"/>
      <point x="-136.408" y="713.592"/>
      <point x="-146.635" y="738.365"/>
      <point x="-157" y="763" type="curve" smooth="yes"/>
      <point x="-184" y="825" type="line" smooth="yes"/>
      <point x="-188.409" y="834.7"/>
      <point x="-221" y="903.522"/>
      <point x="-221" y="917" type="curve" smooth="yes"/>
      <point x="-221" y="923"/>
      <point x="-218" y="926"/>
      <point x="-212" y="926" type="curve" smooth="yes"/>
      <point x="-193" y="923" type="line"/>
      <point x="-171" y="919" type="line" smooth="yes"/>
      <point x="-150" y="915"/>
      <point x="-151" y="893"/>
      <point x="-114" y="801" type="curve"/>
      <point x="-82" y="714" type="line" smooth="yes"/>
      <point x="-78" y="706"/>
      <point x="-72" y="686"/>
      <point x="-72" y="679" type="curve" smooth="yes"/>
      <point x="-72" y="675"/>
      <point x="-76" y="673"/>
      <point x="-85" y="673" type="curve"/>
      <point x="-117" y="678" type="line" smooth="yes"/>
      <point x="-120" y="679"/>
      <point x="-123" y="683"/>
    </contour>
  </outline>
</glyph>
<glyph name="uni0311" format="2">
  <advance width="1"/>
  <unicode hex="0311"/>
  <anchor x="-257" y="898" name="Stack"/>
  <anchor x="-235" y="619" name="_Stack"/>
  <anchor x="-236" y="618" name="_Above"/>
  <outline>
    <contour>
      <point x="-93" y="617" type="curve"/>
      <point x="-152" y="617" type="line"/>
      <point x="-152" y="678"/>
      <point x="-183" y="713"/>
      <point x="-234" y="713" type="curve" smooth="yes"/>
      <point x="-267" y="713"/>
      <point x="-288" y="702"/>
      <point x="-299" y="681" type="curve" smooth="yes"/>
      <point x="-310" y="660"/>
      <point x="-316" y="638"/>
      <point x="-316" y="617" type="curve"/>
      <point x="-374" y="617" type="line"/>
      <point x="-374" y="638"/>
      <point x="-372" y="655"/>
      <point x="-368" y="670" type="curve" smooth="yes"/>
      <point x="-363.274" y="693.629"/>
      <point x="-350.221" y="717.723"/>
      <point x="-330.5" y="736.956" type="curve" smooth="yes"/>
      <point x="-306.921" y="759.952"/>
      <point x="-273.809" y="776"/>
      <point x="-234" y="776" type="curve" smooth="yes"/>
      <point x="-189" y="776"/>
      <point x="-149" y="755"/>
      <point x="-124" y="720" type="curve" smooth="yes"/>
      <point x="-99" y="685"/>
      <point x="-93" y="654"/>
    </contour>
  </outline>
</glyph>
<glyph name="afii10052" format="2">
  <advance width="407"/>
  <unicode hex="0403"/>
  <anchor x="243" y="938" name="Yerik"/>
  <anchor x="245" y="938" name="Above"/>
  <outline>
    <contour>
      <point x="214" y="711" type="curve"/>
      <point x="207" y="698" type="line" smooth="yes"/>
      <point x="200" y="683"/>
      <point x="183" y="680"/>
      <point x="162" y="680" type="curve" smooth="yes"/>
      <point x="158" y="682"/>
      <point x="156" y="684"/>
      <point x="156" y="686" type="curve" smooth="yes"/>
      <point x="158" y="694" type="line"/>
      <point x="170.831" y="727.169"/>
      <point x="182.723" y="761.277"/>
      <point x="195" y="795" type="curve" smooth="yes"/>
      <point x="202.507" y="815.826"/>
      <point x="210.124" y="836.543"/>
      <point x="218" y="857" type="curve" smooth="yes"/>
      <point x="221" y="864"/>
      <point x="225" y="867"/>
      <point x="230" y="868" type="curve" smooth="yes"/>
      <point x="277" y="873" type="line" smooth="yes"/>
      <point x="282" y="873"/>
      <point x="285" y="871"/>
      <point x="285" y="866" type="curve"/>
      <point x="263.401" y="812.266"/>
      <point x="237.343" y="762.99"/>
    </contour>
    <contour>
      <point x="270" y="607" type="curve"/>
      <point x="209" y="607" type="line"/>
      <point x="209" y="21" type="line"/>
      <point x="260" y="21" type="line"/>
      <point x="260" y="0" type="line"/>
      <point x="42" y="0" type="line"/>
      <point x="42" y="21" type="line"/>
      <point x="95" y="21" type="line"/>
      <point x="95" y="607" type="line"/>
      <point x="42" y="607" type="line"/>
      <point x="42" y="628" type="line"/>
      <point x="397" y="628" type="line"/>
      <point x="373.677" y="586.736"/>
      <point x="372.014" y="573.771"/>
      <point x="365" y="520" type="curve" smooth="yes"/>
      <point x="362" y="497"/>
      <point x="361" y="483"/>
      <point x="361" y="478" type="curve" smooth="yes"/>
      <point x="361" y="470"/>
      <point x="359" y="466"/>
      <point x="356" y="466" type="curve" smooth="yes"/>
      <point x="350" y="466"/>
      <point x="336" y="483"/>
      <point x="315" y="518" type="curve" smooth="yes"/>
      <point x="294" y="553"/>
      <point x="279" y="583"/>
    </contour>
  </outline>
</glyph>
<glyph name="afii10053" format="2">
  <advance width="536"/>
  <unicode hex="0404"/>
  <anchor x="408" y="680" name="Yerik"/>
  <anchor x="289" y="680" name="Above"/>
  <outline>
    <contour>
      <point x="290" y="165" type="line"/>
      <point x="329.953" y="143.848"/>
      <point x="406.486" y="114.665"/>
      <point x="457" y="100" type="curve"/>
      <point x="451" y="79" type="line"/>
      <point x="439" y="83"/>
      <point x="422" y="89"/>
      <point x="419" y="89" type="curve" smooth="yes"/>
      <point x="414" y="89"/>
      <point x="413" y="88"/>
      <point x="380" y="48" type="curve" smooth="yes"/>
      <point x="348" y="9"/>
      <point x="269" y="-15"/>
      <point x="193" y="-15" type="curve" smooth="yes"/>
      <point x="140" y="-15"/>
      <point x="113" y="-7"/>
      <point x="82" y="5" type="curve"/>
      <point x="110" y="26"/>
      <point x="121" y="53"/>
      <point x="121" y="78" type="curve" smooth="yes"/>
      <point x="121" y="102"/>
      <point x="112" y="145"/>
      <point x="80" y="217" type="curve" smooth="yes"/>
      <point x="65" y="254"/>
      <point x="53" y="284"/>
      <point x="44" y="307" type="curve" smooth="yes"/>
      <point x="35" y="331"/>
      <point x="31" y="361"/>
      <point x="31" y="397" type="curve" smooth="yes"/>
      <point x="31" y="452"/>
      <point x="49" y="506"/>
      <point x="84" y="559" type="curve" smooth="yes"/>
      <point x="119" y="612"/>
      <point x="184" y="639"/>
      <point x="279" y="639" type="curve" smooth="yes"/>
      <point x="392" y="639"/>
      <point x="449" y="596"/>
      <point x="470" y="524" type="curve"/>
      <point x="501" y="518" type="line"/>
      <point x="500" y="496" type="line"/>
      <point x="484" y="499" type="line"/>
      <point x="449" y="504"/>
      <point x="423" y="506"/>
      <point x="406" y="506" type="curve" smooth="yes"/>
      <point x="378" y="506"/>
      <point x="354" y="502"/>
      <point x="327" y="497" type="curve"/>
      <point x="323" y="519" type="line"/>
      <point x="362" y="527" type="line"/>
      <point x="354" y="594"/>
      <point x="325" y="620"/>
      <point x="268" y="620" type="curve" smooth="yes"/>
      <point x="239" y="620"/>
      <point x="210" y="609"/>
      <point x="180" y="587" type="curve" smooth="yes"/>
      <point x="151" y="566"/>
      <point x="136" y="525"/>
      <point x="136" y="465" type="curve" smooth="yes"/>
      <point x="136" y="439"/>
      <point x="138" y="416"/>
      <point x="142" y="395" type="curve" smooth="yes"/>
      <point x="148" y="372"/>
      <point x="153" y="352"/>
      <point x="156" y="336" type="curve" smooth="yes"/>
      <point x="160" y="311" type="line"/>
      <point x="213" y="383"/>
      <point x="263" y="432"/>
      <point x="344" y="432" type="curve" smooth="yes"/>
      <point x="435" y="432"/>
      <point x="476" y="376"/>
      <point x="476" y="245" type="curve"/>
      <point x="510" y="245" type="line"/>
      <point x="510" y="223" type="line"/>
      <point x="334" y="223" type="line"/>
      <point x="335" y="245" type="line"/>
      <point x="374" y="245" type="line"/>
      <point x="377" y="286" type="line"/>
      <point x="377" y="347"/>
      <point x="348" y="380"/>
      <point x="307" y="380" type="curve" smooth="yes"/>
      <point x="266" y="380"/>
      <point x="231" y="350"/>
      <point x="206" y="325" type="curve"/>
      <point x="170" y="284" type="line"/>
      <point x="167" y="279"/>
      <point x="166" y="274"/>
      <point x="166" y="268" type="curve" smooth="yes"/>
      <point x="169" y="245" type="line" smooth="yes"/>
      <point x="172" y="226"/>
      <point x="175" y="189"/>
      <point x="175" y="173" type="curve" smooth="yes"/>
      <point x="175" y="100"/>
      <point x="157" y="61"/>
      <point x="128" y="17" type="curve"/>
      <point x="140" y="14"/>
      <point x="150" y="13"/>
      <point x="166" y="13" type="curve" smooth="yes"/>
      <point x="210" y="13"/>
      <point x="246" y="28"/>
      <point x="273" y="57" type="curve" smooth="yes"/>
      <point x="301" y="86"/>
      <point x="315" y="107"/>
      <point x="315" y="120" type="curve" smooth="yes"/>
      <point x="315" y="125.098"/>
      <point x="292.418" y="137.476"/>
      <point x="281" y="144" type="curve"/>
    </contour>
  </outline>
</glyph>
<glyph name="afii10057" format="2">
  <advance width="485"/>
  <unicode hex="0408"/>
  <anchor x="350" y="680" name="Above"/>
  <anchor x="440" y="679" name="Yerik"/>
  <outline>
    <contour>
      <point x="290" y="616" type="line" smooth="yes"/>
      <point x="237" y="616" type="line"/>
      <point x="237" y="637" type="line"/>
      <point x="455" y="637" type="line"/>
      <point x="455" y="616" type="line"/>
      <point x="405" y="616" type="line"/>
      <point x="405" y="226" type="line" smooth="yes"/>
      <point x="405" y="186"/>
      <point x="403" y="155"/>
      <point x="400" y="134" type="curve" smooth="yes"/>
      <point x="396" y="112"/>
      <point x="385" y="89"/>
      <point x="367" y="66" type="curve" smooth="yes"/>
      <point x="331" y="18"/>
      <point x="259" y="0"/>
      <point x="191" y="0" type="curve" smooth="yes"/>
      <point x="90" y="0"/>
      <point x="26" y="35"/>
      <point x="26" y="107" type="curve" smooth="yes"/>
      <point x="26" y="128"/>
      <point x="34" y="150"/>
      <point x="49" y="171" type="curve" smooth="yes"/>
      <point x="64" y="192"/>
      <point x="87" y="202"/>
      <point x="118" y="202" type="curve" smooth="yes"/>
      <point x="149" y="202"/>
      <point x="186" y="186"/>
      <point x="201" y="160" type="curve"/>
      <point x="189" y="165"/>
      <point x="181" y="165"/>
      <point x="166" y="165" type="curve" smooth="yes"/>
      <point x="127" y="165"/>
      <point x="110" y="138"/>
      <point x="110" y="102" type="curve" smooth="yes"/>
      <point x="110" y="61"/>
      <point x="142" y="23"/>
      <point x="199" y="23" type="curve" smooth="yes"/>
      <point x="239" y="23"/>
      <point x="264" y="37"/>
      <point x="275" y="64" type="curve" smooth="yes"/>
      <point x="285" y="91"/>
      <point x="290" y="127"/>
      <point x="290" y="172" type="curve" smooth="yes"/>
      <point x="290" y="328" type="line"/>
    </contour>
  </outline>
</glyph>
<glyph name="afii10061" format="2">
  <advance width="556"/>
  <unicode hex="040C"/>
  <anchor x="324" y="938" name="Yerik"/>
  <anchor x="325" y="938" name="Above"/>
  <outline>
    <contour>
      <point x="292" y="711" type="curve"/>
      <point x="285" y="698" type="line" smooth="yes"/>
      <point x="278" y="683"/>
      <point x="261" y="680"/>
      <point x="240" y="680" type="curve" smooth="yes"/>
      <point x="236" y="682"/>
      <point x="234" y="684"/>
      <point x="234" y="686" type="curve" smooth="yes"/>
      <point x="236" y="694" type="line"/>
      <point x="248.831" y="727.169"/>
      <point x="260.723" y="761.277"/>
      <point x="273" y="795" type="curve" smooth="yes"/>
      <point x="280.507" y="815.826"/>
      <point x="288.124" y="836.543"/>
      <point x="296" y="857" type="curve" smooth="yes"/>
      <point x="299" y="864"/>
      <point x="303" y="867"/>
      <point x="308" y="868" type="curve" smooth="yes"/>
      <point x="355" y="873" type="line" smooth="yes"/>
      <point x="360" y="873"/>
      <point x="363" y="871"/>
      <point x="363" y="866" type="curve"/>
      <point x="341.401" y="812.266"/>
      <point x="315.343" y="762.99"/>
    </contour>
    <contour>
      <point x="198" y="21" type="line"/>
      <point x="248" y="21" type="line"/>
      <point x="248" y="0" type="line"/>
      <point x="34" y="0" type="line"/>
      <point x="34" y="21" type="line"/>
      <point x="84" y="21" type="line"/>
      <point x="84" y="607" type="line"/>
      <point x="34" y="607" type="line"/>
      <point x="34" y="628" type="line"/>
      <point x="248" y="628" type="line"/>
      <point x="248" y="607" type="line"/>
      <point x="198" y="607" type="line"/>
      <point x="198" y="351" type="line"/>
      <point x="268.981" y="351"/>
      <point x="290.832" y="360.542"/>
      <point x="323" y="397" type="curve" smooth="yes"/>
      <point x="352" y="432"/>
      <point x="357" y="488"/>
      <point x="357" y="580" type="curve" smooth="yes"/>
      <point x="357" y="605"/>
      <point x="356" y="607"/>
      <point x="329" y="607" type="curve" smooth="yes"/>
      <point x="303" y="607" type="line"/>
      <point x="303" y="628" type="line"/>
      <point x="520" y="628" type="line"/>
      <point x="520" y="607" type="line"/>
      <point x="480" y="607" type="line"/>
      <point x="469" y="606"/>
      <point x="463" y="601"/>
      <point x="463" y="592" type="curve" smooth="yes"/>
      <point x="463" y="498"/>
      <point x="454" y="436"/>
      <point x="436" y="406" type="curve" smooth="yes"/>
      <point x="419" y="376"/>
      <point x="377" y="356"/>
      <point x="311" y="345" type="curve"/>
      <point x="311" y="336" type="line"/>
      <point x="388" y="321"/>
      <point x="436" y="300"/>
      <point x="456" y="272" type="curve" smooth="yes"/>
      <point x="476" y="244"/>
      <point x="486" y="174"/>
      <point x="486" y="62" type="curve" smooth="yes"/>
      <point x="486" y="59"/>
      <point x="486" y="56"/>
      <point x="486" y="53" type="curve" smooth="yes"/>
      <point x="486" y="22"/>
      <point x="487" y="21"/>
      <point x="508" y="21" type="curve" smooth="yes"/>
      <point x="534" y="21" type="line"/>
      <point x="534" y="0" type="line"/>
      <point x="306" y="0" type="line"/>
      <point x="306" y="21" type="line"/>
      <point x="354" y="22" type="line"/>
      <point x="361" y="24"/>
      <point x="366" y="28"/>
      <point x="367" y="34" type="curve" smooth="yes"/>
      <point x="370" y="47"/>
      <point x="371" y="87"/>
      <point x="371" y="114" type="curve" smooth="yes"/>
      <point x="371" y="197"/>
      <point x="359" y="254"/>
      <point x="336" y="283" type="curve" smooth="yes"/>
      <point x="313" y="313"/>
      <point x="267" y="328"/>
      <point x="198" y="328" type="curve"/>
    </contour>
  </outline>
</glyph>
<glyph name="uni040D" format="2">
  <advance width="556"/>
  <unicode hex="040D"/>
  <anchor x="288" y="920" name="Yerik"/>
  <anchor x="289" y="919" name="Above"/>
  <outline>
    <contour>
      <point x="221" y="746" type="curve" smooth="yes"/>
      <point x="174" y="820" type="line" smooth="yes"/>
      <point x="157" y="848"/>
      <point x="147" y="865"/>
      <point x="147" y="868" type="curve" smooth="yes"/>
      <point x="147" y="875"/>
      <point x="151" y="876"/>
      <point x="158" y="876" type="curve" smooth="yes"/>
      <point x="183" y="874" type="line"/>
      <point x="216" y="870"/>
      <point x="219" y="869"/>
      <point x="227" y="854" type="curve" smooth="yes"/>
      <point x="243.01" y="823.344"/>
      <point x="258.825" y="792.491"/>
      <point x="275" y="762" type="curve"/>
      <point x="289" y="732" type="line"/>
      <point x="308" y="696" type="line"/>
      <point x="310" y="689" type="line"/>
      <point x="310" y="684"/>
      <point x="305" y="682"/>
      <point x="294" y="682" type="curve" smooth="yes"/>
      <point x="278" y="682"/>
      <point x="267" y="685"/>
      <point x="260" y="691" type="curve" smooth="yes"/>
      <point x="253" y="697"/>
      <point x="240" y="715"/>
    </contour>
    <contour>
      <point x="31" y="0" type="line"/>
      <point x="31" y="21" type="line"/>
      <point x="86" y="21" type="line"/>
      <point x="86" y="607" type="line"/>
      <point x="31" y="607" type="line"/>
      <point x="31" y="628" type="line"/>
      <point x="255" y="628" type="line"/>
      <point x="255" y="607" type="line"/>
      <point x="200" y="607" type="line"/>
      <point x="200" y="329" type="line"/>
      <point x="355" y="415" type="line"/>
      <point x="355" y="607" type="line"/>
      <point x="300" y="607" type="line"/>
      <point x="300" y="628" type="line"/>
      <point x="525" y="628" type="line"/>
      <point x="525" y="607" type="line"/>
      <point x="469" y="607" type="line"/>
      <point x="469" y="21" type="line"/>
      <point x="525" y="21" type="line"/>
      <point x="525" y="0" type="line"/>
      <point x="300" y="0" type="line"/>
      <point x="300" y="21" type="line"/>
      <point x="355" y="21" type="line"/>
      <point x="355" y="391" type="line"/>
      <point x="200" y="305" type="line"/>
      <point x="200" y="21" type="line"/>
      <point x="255" y="21" type="line"/>
      <point x="255" y="0" type="line"/>
    </contour>
  </outline>
</glyph>
<glyph name="afii10024" format="2">
  <advance width="741"/>
  <unicode hex="0416"/>
  <anchor x="618" y="680" name="Yerik"/>
  <anchor x="369" y="680" name="Above"/>
  <outline>
    <contour>
      <point x="309" y="340" type="curve" smooth="yes"/>
      <point x="211" y="286"/>
      <point x="180" y="194"/>
      <point x="180" y="50" type="curve" smooth="yes"/>
      <point x="180" y="26"/>
      <point x="187" y="21"/>
      <point x="204" y="21" type="curve" smooth="yes"/>
      <point x="221" y="21" type="line"/>
      <point x="221" y="0" type="line"/>
      <point x="13" y="0" type="line"/>
      <point x="13" y="21" type="line"/>
      <point x="30" y="21"/>
      <point x="40" y="22"/>
      <point x="44" y="25" type="curve" smooth="yes"/>
      <point x="52" y="32"/>
      <point x="57" y="58"/>
      <point x="62" y="109" type="curve" smooth="yes"/>
      <point x="69" y="170"/>
      <point x="117" y="245"/>
      <point x="156" y="282" type="curve" smooth="yes"/>
      <point x="205" y="330"/>
      <point x="243" y="344"/>
      <point x="299" y="360" type="curve"/>
      <point x="271" y="384"/>
      <point x="251" y="414"/>
      <point x="220" y="473" type="curve" smooth="yes"/>
      <point x="205" y="503"/>
      <point x="194" y="521"/>
      <point x="185" y="527" type="curve" smooth="yes"/>
      <point x="176" y="534"/>
      <point x="166" y="537"/>
      <point x="154" y="537" type="curve" smooth="yes"/>
      <point x="125" y="537"/>
      <point x="116" y="529"/>
      <point x="97" y="517" type="curve"/>
      <point x="98" y="526"/>
      <point x="98" y="534"/>
      <point x="98" y="537" type="curve" smooth="yes"/>
      <point x="98" y="589"/>
      <point x="78" y="607"/>
      <point x="49" y="626" type="curve"/>
      <point x="65" y="635"/>
      <point x="70" y="637"/>
      <point x="97" y="637" type="curve" smooth="yes"/>
      <point x="177" y="637"/>
      <point x="217" y="587"/>
      <point x="246" y="499" type="curve" smooth="yes"/>
      <point x="261" y="456"/>
      <point x="271" y="427"/>
      <point x="278" y="412" type="curve" smooth="yes"/>
      <point x="285" y="397"/>
      <point x="295" y="384"/>
      <point x="308" y="373" type="curve"/>
      <point x="308" y="373"/>
      <point x="312" y="370"/>
      <point x="313" y="371" type="curve" smooth="yes"/>
      <point x="315" y="373"/>
      <point x="315" y="376"/>
      <point x="315" y="376" type="curve"/>
      <point x="315" y="607" type="line"/>
      <point x="270" y="607" type="line"/>
      <point x="270" y="628" type="line"/>
      <point x="468" y="628" type="line"/>
      <point x="468" y="607" type="line"/>
      <point x="423" y="607" type="line"/>
      <point x="423" y="376" type="line"/>
      <point x="423" y="376"/>
      <point x="424" y="373"/>
      <point x="426" y="372" type="curve" smooth="yes"/>
      <point x="428" y="371"/>
      <point x="430" y="373"/>
      <point x="430" y="373" type="curve"/>
      <point x="443" y="384"/>
      <point x="453" y="397"/>
      <point x="459" y="411" type="curve" smooth="yes"/>
      <point x="466" y="425"/>
      <point x="476" y="454"/>
      <point x="491" y="499" type="curve" smooth="yes"/>
      <point x="522" y="588"/>
      <point x="558" y="637"/>
      <point x="642" y="637" type="curve" smooth="yes"/>
      <point x="669" y="637"/>
      <point x="676" y="634"/>
      <point x="689" y="626" type="curve"/>
      <point x="661" y="607"/>
      <point x="640" y="588"/>
      <point x="640" y="536" type="curve" smooth="yes"/>
      <point x="640" y="528"/>
      <point x="640" y="522"/>
      <point x="641" y="517" type="curve"/>
      <point x="616" y="533"/>
      <point x="603" y="537"/>
      <point x="584" y="537" type="curve" smooth="yes"/>
      <point x="572" y="537"/>
      <point x="562" y="534"/>
      <point x="553" y="527" type="curve" smooth="yes"/>
      <point x="544" y="520"/>
      <point x="533" y="503"/>
      <point x="518" y="474" type="curve" smooth="yes"/>
      <point x="490" y="418"/>
      <point x="464" y="381"/>
      <point x="439" y="360" type="curve"/>
      <point x="466" y="353"/>
      <point x="491" y="344"/>
      <point x="512" y="334" type="curve" smooth="yes"/>
      <point x="556" y="314"/>
      <point x="610" y="264"/>
      <point x="645" y="196" type="curve" smooth="yes"/>
      <point x="663" y="163"/>
      <point x="674" y="128"/>
      <point x="678" y="92" type="curve" smooth="yes"/>
      <point x="683" y="56"/>
      <point x="687" y="35"/>
      <point x="690" y="29" type="curve" smooth="yes"/>
      <point x="693" y="24"/>
      <point x="703" y="21"/>
      <point x="718" y="21" type="curve" smooth="yes"/>
      <point x="725" y="21" type="line"/>
      <point x="725" y="0" type="line"/>
      <point x="517" y="0" type="line"/>
      <point x="517" y="21" type="line"/>
      <point x="556" y="21"/>
      <point x="558" y="22"/>
      <point x="558" y="51" type="curve" smooth="yes"/>
      <point x="558" y="118"/>
      <point x="550" y="176"/>
      <point x="533" y="224" type="curve" smooth="yes"/>
      <point x="517" y="273"/>
      <point x="482" y="311"/>
      <point x="429" y="340" type="curve"/>
      <point x="429" y="340"/>
      <point x="426" y="342"/>
      <point x="424" y="340" type="curve" smooth="yes"/>
      <point x="423" y="339"/>
      <point x="423" y="336"/>
      <point x="423" y="336" type="curve"/>
      <point x="423" y="21" type="line"/>
      <point x="468" y="21" type="line"/>
      <point x="468" y="0" type="line"/>
      <point x="270" y="0" type="line"/>
      <point x="270" y="21" type="line"/>
      <point x="315" y="21" type="line"/>
      <point x="315" y="336" type="line"/>
      <point x="315" y="336"/>
      <point x="316" y="340"/>
      <point x="314" y="341" type="curve" smooth="yes"/>
      <point x="312" y="341"/>
      <point x="309" y="340"/>
    </contour>
  </outline>
</glyph>
<glyph name="afii10025" format="2">
  <advance width="601"/>
  <unicode hex="0417"/>
  <anchor x="468" y="680" name="Yerik"/>
  <anchor x="333" y="680" name="Above"/>
  <outline>
    <contour>
      <point x="255" y="251" type="curve"/>
      <point x="166" y="328" type="line"/>
      <point x="252" y="407" type="line"/>
      <point x="291" y="368"/>
      <point x="315" y="348"/>
      <point x="346" y="348" type="curve" smooth="yes"/>
      <point x="386" y="348"/>
      <point x="425" y="391"/>
      <point x="425" y="455" type="curve" smooth="yes"/>
      <point x="425" y="495"/>
      <point x="413" y="530"/>
      <point x="388" y="559" type="curve" smooth="yes"/>
      <point x="364" y="588"/>
      <point x="329" y="603"/>
      <point x="284" y="603" type="curve" smooth="yes"/>
      <point x="233" y="603"/>
      <point x="194" y="588"/>
      <point x="169" y="558" type="curve" smooth="yes"/>
      <point x="144" y="528"/>
      <point x="126" y="501"/>
      <point x="117" y="478" type="curve" smooth="yes"/>
      <point x="108" y="455"/>
      <point x="102" y="443"/>
      <point x="98" y="443" type="curve" smooth="yes"/>
      <point x="91" y="443"/>
      <point x="90" y="449"/>
      <point x="90" y="474" type="curve" smooth="yes"/>
      <point x="89" y="591" type="line" smooth="yes"/>
      <point x="89" y="635"/>
      <point x="89" y="637"/>
      <point x="100" y="637" type="curve" smooth="yes"/>
      <point x="104" y="635"/>
      <point x="107" y="633"/>
      <point x="108" y="630" type="curve" smooth="yes"/>
      <point x="123" y="609" type="line" smooth="yes"/>
      <point x="134" y="592"/>
      <point x="140" y="586"/>
      <point x="152" y="586" type="curve" smooth="yes"/>
      <point x="161" y="589"/>
      <point x="175" y="596"/>
      <point x="192" y="605" type="curve" smooth="yes"/>
      <point x="227" y="624"/>
      <point x="287" y="637"/>
      <point x="335" y="637" type="curve" smooth="yes"/>
      <point x="400" y="637"/>
      <point x="448" y="620"/>
      <point x="481" y="587" type="curve" smooth="yes"/>
      <point x="514" y="554"/>
      <point x="530" y="517"/>
      <point x="530" y="477" type="curve" smooth="yes"/>
      <point x="530" y="438"/>
      <point x="518" y="409"/>
      <point x="494" y="390" type="curve" smooth="yes"/>
      <point x="471" y="371"/>
      <point x="442" y="355"/>
      <point x="408" y="342" type="curve"/>
      <point x="408" y="334" type="line"/>
      <point x="513" y="315"/>
      <point x="571" y="266"/>
      <point x="571" y="174" type="curve" smooth="yes"/>
      <point x="571" y="117"/>
      <point x="551" y="72"/>
      <point x="511" y="37" type="curve" smooth="yes"/>
      <point x="471" y="3"/>
      <point x="423" y="-14"/>
      <point x="368" y="-14" type="curve" smooth="yes"/>
      <point x="331" y="-14"/>
      <point x="299" y="-10"/>
      <point x="272" y="-1" type="curve" smooth="yes"/>
      <point x="245" y="8"/>
      <point x="219" y="18"/>
      <point x="194" y="31" type="curve" smooth="yes"/>
      <point x="169" y="44"/>
      <point x="154" y="51"/>
      <point x="147" y="51" type="curve" smooth="yes"/>
      <point x="135" y="51"/>
      <point x="133" y="45"/>
      <point x="132" y="38" type="curve" smooth="yes"/>
      <point x="132.333" y="30.333"/>
      <point x="137.333" y="20"/>
      <point x="137" y="12" type="curve" smooth="yes"/>
      <point x="137" y="-13"/>
      <point x="117" y="-37"/>
      <point x="84" y="-37" type="curve" smooth="yes"/>
      <point x="49" y="-37"/>
      <point x="19" y="-12"/>
      <point x="19" y="27" type="curve" smooth="yes"/>
      <point x="19" y="63"/>
      <point x="48" y="97"/>
      <point x="89" y="97" type="curve" smooth="yes"/>
      <point x="99" y="97"/>
      <point x="109" y="95"/>
      <point x="119" y="92" type="curve" smooth="yes"/>
      <point x="130" y="89"/>
      <point x="150" y="80"/>
      <point x="179" y="65" type="curve" smooth="yes"/>
      <point x="239" y="36"/>
      <point x="286" y="20"/>
      <point x="322" y="20" type="curve" smooth="yes"/>
      <point x="413" y="20"/>
      <point x="457" y="93"/>
      <point x="457" y="189" type="curve" smooth="yes"/>
      <point x="457" y="237"/>
      <point x="447" y="271"/>
      <point x="427" y="290" type="curve" smooth="yes"/>
      <point x="407" y="309"/>
      <point x="386" y="319"/>
      <point x="363" y="319" type="curve" smooth="yes"/>
      <point x="331" y="319"/>
      <point x="307" y="306"/>
    </contour>
  </outline>
</glyph>
<glyph name="afii10026" format="2">
  <advance width="556"/>
  <unicode hex="0418"/>
  <anchor x="412" y="680" name="Yerik"/>
  <anchor x="275" y="680" name="Above"/>
  <outline>
    <contour>
      <point x="31" y="0" type="line"/>
      <point x="31" y="21" type="line"/>
      <point x="86" y="21" type="line"/>
      <point x="86" y="607" type="line"/>
      <point x="31" y="607" type="line"/>
      <point x="31" y="628" type="line"/>
      <point x="255" y="628" type="line"/>
      <point x="255" y="607" type="line"/>
      <point x="200" y="607" type="line"/>
      <point x="200" y="329" type="line"/>
      <point x="355" y="415" type="line"/>
      <point x="355" y="607" type="line"/>
      <point x="300" y="607" type="line"/>
      <point x="300" y="628" type="line"/>
      <point x="525" y="628" type="line"/>
      <point x="525" y="607" type="line"/>
      <point x="469" y="607" type="line"/>
      <point x="469" y="21" type="line"/>
      <point x="525" y="21" type="line"/>
      <point x="525" y="0" type="line"/>
      <point x="300" y="0" type="line"/>
      <point x="300" y="21" type="line"/>
      <point x="355" y="21" type="line"/>
      <point x="355" y="391" type="line"/>
      <point x="200" y="305" type="line"/>
      <point x="200" y="21" type="line"/>
      <point x="255" y="21" type="line"/>
      <point x="255" y="0" type="line"/>
    </contour>
  </outline>
</glyph>
<glyph name="afii10027" format="2">
  <advance width="556"/>
  <unicode hex="0419"/>
  <anchor x="287" y="930" name="Yerik"/>
  <anchor x="289" y="930" name="Above"/>
  <outline>
    <contour>
      <point x="333" y="820" type="curve" smooth="yes"/>
      <point x="333" y="831"/>
      <point x="330" y="841"/>
      <point x="325" y="851" type="curve" smooth="yes"/>
      <point x="321" y="867" type="line" smooth="yes"/>
      <point x="321" y="873"/>
      <point x="324" y="876"/>
      <point x="330" y="876" type="curve" smooth="yes"/>
      <point x="337" y="876"/>
      <point x="345" y="866"/>
      <point x="354" y="847" type="curve" smooth="yes"/>
      <point x="363" y="828"/>
      <point x="368" y="809"/>
      <point x="368" y="788" type="curve" smooth="yes"/>
      <point x="368" y="758"/>
      <point x="358" y="735"/>
      <point x="337" y="718" type="curve" smooth="yes"/>
      <point x="317" y="701"/>
      <point x="295" y="693"/>
      <point x="272" y="693" type="curve" smooth="yes"/>
      <point x="225" y="693"/>
      <point x="180" y="729"/>
      <point x="180" y="782" type="curve" smooth="yes"/>
      <point x="180" y="805"/>
      <point x="185" y="827"/>
      <point x="195" y="846" type="curve" smooth="yes"/>
      <point x="206" y="865"/>
      <point x="215" y="875"/>
      <point x="223" y="875" type="curve" smooth="yes"/>
      <point x="231" y="875"/>
      <point x="235" y="871"/>
      <point x="235" y="863" type="curve" smooth="yes"/>
      <point x="235" y="863"/>
      <point x="235" y="863"/>
      <point x="235" y="862" type="curve" smooth="yes"/>
      <point x="235" y="860"/>
      <point x="224" y="853"/>
      <point x="220" y="820" type="curve" smooth="yes"/>
      <point x="220" y="783"/>
      <point x="252" y="765"/>
      <point x="279" y="765" type="curve" smooth="yes"/>
      <point x="316" y="765"/>
      <point x="333" y="793"/>
    </contour>
    <contour>
      <point x="31" y="0" type="line"/>
      <point x="31" y="21" type="line"/>
      <point x="86" y="21" type="line"/>
      <point x="86" y="607" type="line"/>
      <point x="31" y="607" type="line"/>
      <point x="31" y="628" type="line"/>
      <point x="255" y="628" type="line"/>
      <point x="255" y="607" type="line"/>
      <point x="200" y="607" type="line"/>
      <point x="200" y="329" type="line"/>
      <point x="355" y="415" type="line"/>
      <point x="355" y="607" type="line"/>
      <point x="300" y="607" type="line"/>
      <point x="300" y="628" type="line"/>
      <point x="525" y="628" type="line"/>
      <point x="525" y="607" type="line"/>
      <point x="469" y="607" type="line"/>
      <point x="469" y="21" type="line"/>
      <point x="525" y="21" type="line"/>
      <point x="525" y="0" type="line"/>
      <point x="300" y="0" type="line"/>
      <point x="300" y="21" type="line"/>
      <point x="355" y="21" type="line"/>
      <point x="355" y="391" type="line"/>
      <point x="200" y="305" type="line"/>
      <point x="200" y="21" type="line"/>
      <point x="255" y="21" type="line"/>
      <point x="255" y="0" type="line"/>
    </contour>
  </outline>
</glyph>
<glyph name="afii10029" format="2">
  <advance width="500"/>
  <unicode hex="041B"/>
  <anchor x="408" y="680" name="Yerik"/>
  <anchor x="353" y="680" name="Above"/>
  <outline>
    <contour>
      <point x="19" y="0" type="line"/>
      <point x="19" y="21" type="line"/>
      <point x="72" y="21" type="line"/>
      <point x="52" y="48"/>
      <point x="37" y="70"/>
      <point x="37" y="107" type="curve" smooth="yes"/>
      <point x="37" y="131"/>
      <point x="46" y="158"/>
      <point x="63" y="188" type="curve" smooth="yes"/>
      <point x="81" y="219"/>
      <point x="115" y="262"/>
      <point x="165" y="318" type="curve" smooth="yes"/>
      <point x="215" y="375"/>
      <point x="250" y="420"/>
      <point x="271" y="455" type="curve" smooth="yes"/>
      <point x="292" y="490"/>
      <point x="303" y="529"/>
      <point x="303" y="570" type="curve" smooth="yes"/>
      <point x="303" y="607" type="line"/>
      <point x="248" y="607" type="line"/>
      <point x="248" y="628" type="line"/>
      <point x="468" y="628" type="line"/>
      <point x="468" y="607" type="line"/>
      <point x="417" y="607" type="line"/>
      <point x="417" y="21" type="line"/>
      <point x="468" y="21" type="line"/>
      <point x="468" y="0" type="line"/>
      <point x="248" y="0" type="line"/>
      <point x="248" y="21" type="line"/>
      <point x="303" y="21" type="line"/>
      <point x="303" y="469" type="line"/>
      <point x="298" y="469" type="line"/>
      <point x="287" y="444"/>
      <point x="280" y="427"/>
      <point x="275" y="418" type="curve" smooth="yes"/>
      <point x="266" y="401"/>
      <point x="245" y="361"/>
      <point x="196" y="264" type="curve" smooth="yes"/>
      <point x="171" y="216"/>
      <point x="157" y="186"/>
      <point x="153" y="175" type="curve" smooth="yes"/>
      <point x="146" y="154"/>
      <point x="141" y="135"/>
      <point x="141" y="114" type="curve" smooth="yes"/>
      <point x="141" y="67"/>
      <point x="164" y="24"/>
      <point x="199" y="17" type="curve"/>
      <point x="199" y="0" type="line"/>
    </contour>
  </outline>
</glyph>
<glyph name="afii10035" format="2">
  <advance width="499"/>
  <unicode hex="0421"/>
  <anchor x="408" y="680" name="Yerik"/>
  <anchor x="239" y="680" name="Above"/>
  <outline>
    <contour>
      <point x="482" y="411" type="line"/>
      <point x="293" y="411" type="line"/>
      <point x="293" y="432" type="line"/>
      <point x="336" y="432" type="line"/>
      <point x="334" y="554"/>
      <point x="276" y="611"/>
      <point x="241" y="611" type="curve" smooth="yes"/>
      <point x="218" y="611"/>
      <point x="194" y="588"/>
      <point x="171" y="541" type="curve" smooth="yes"/>
      <point x="148" y="494"/>
      <point x="136" y="436"/>
      <point x="136" y="367" type="curve" smooth="yes"/>
      <point x="136" y="299"/>
      <point x="149" y="247"/>
      <point x="170" y="176" type="curve" smooth="yes"/>
      <point x="191" y="105"/>
      <point x="197" y="74"/>
      <point x="197" y="45" type="curve"/>
      <point x="195" y="9" type="line"/>
      <point x="216" y="7" type="line"/>
      <point x="256" y="7"/>
      <point x="302" y="44"/>
      <point x="325" y="100" type="curve" smooth="yes"/>
      <point x="348.132" y="155.903"/>
      <point x="349" y="175.998"/>
      <point x="349" y="248" type="curve"/>
      <point x="307" y="248" type="line"/>
      <point x="307" y="270" type="line"/>
      <point x="493" y="270" type="line"/>
      <point x="493" y="248" type="line"/>
      <point x="453" y="248" type="line"/>
      <point x="453" y="168"/>
      <point x="425" y="84"/>
      <point x="350" y="36" type="curve" smooth="yes"/>
      <point x="313" y="13"/>
      <point x="284" y="-1"/>
      <point x="262" y="-5" type="curve" smooth="yes"/>
      <point x="240" y="-10"/>
      <point x="217" y="-12"/>
      <point x="194" y="-12" type="curve" smooth="yes"/>
      <point x="170" y="-12" type="line"/>
      <point x="173" y="-3"/>
      <point x="175" y="4"/>
      <point x="175" y="17" type="curve" smooth="yes"/>
      <point x="175" y="38"/>
      <point x="170" y="58"/>
      <point x="159" y="77" type="curve" smooth="yes"/>
      <point x="148" y="96"/>
      <point x="128" y="126"/>
      <point x="99" y="167" type="curve" smooth="yes"/>
      <point x="70" y="208"/>
      <point x="50" y="243"/>
      <point x="40" y="270" type="curve" smooth="yes"/>
      <point x="31" y="297"/>
      <point x="26" y="324"/>
      <point x="26" y="351" type="curve" smooth="yes"/>
      <point x="26" y="422"/>
      <point x="49" y="487"/>
      <point x="95" y="546" type="curve" smooth="yes"/>
      <point x="142" y="606"/>
      <point x="191" y="636"/>
      <point x="243" y="636" type="curve" smooth="yes"/>
      <point x="298" y="636"/>
      <point x="353" y="598"/>
      <point x="388" y="554" type="curve" smooth="yes"/>
      <point x="424" y="510"/>
      <point x="433" y="480"/>
      <point x="444" y="432" type="curve"/>
      <point x="482" y="432" type="line"/>
    </contour>
  </outline>
</glyph>
<glyph name="afii10039" format="2">
  <advance width="556"/>
  <unicode hex="0425"/>
  <anchor x="448" y="680" name="Yerik"/>
  <anchor x="290" y="680" name="Above"/>
  <outline>
    <contour>
      <point x="198" y="0" type="line"/>
      <point x="58" y="0" type="line"/>
      <point x="58" y="20" type="line"/>
      <point x="114" y="20" type="line"/>
      <point x="157" y="112" type="line"/>
      <point x="144" y="123"/>
      <point x="134" y="134"/>
      <point x="134" y="153" type="curve" smooth="yes"/>
      <point x="134" y="182"/>
      <point x="156" y="199"/>
      <point x="184" y="199" type="curve" smooth="yes"/>
      <point x="189" y="199"/>
      <point x="193" y="199"/>
      <point x="196" y="198" type="curve" smooth="yes"/>
      <point x="244" y="300" type="line"/>
      <point x="79" y="606" type="line"/>
      <point x="27" y="606" type="line"/>
      <point x="27" y="627" type="line"/>
      <point x="257" y="627" type="line"/>
      <point x="257" y="606" type="line"/>
      <point x="198" y="606" type="line"/>
      <point x="299" y="418" type="line"/>
      <point x="363" y="567"/>
      <point x="424" y="641"/>
      <point x="481" y="641" type="curve" smooth="yes"/>
      <point x="512" y="641"/>
      <point x="524" y="632"/>
      <point x="524" y="625" type="curve" smooth="yes"/>
      <point x="515" y="612"/>
      <point x="497" y="596"/>
      <point x="497" y="569" type="curve" smooth="yes"/>
      <point x="497" y="542.239"/>
      <point x="515.372" y="526.766"/>
      <point x="519" y="505" type="curve" smooth="yes"/>
      <point x="519" y="499"/>
      <point x="516" y="496"/>
      <point x="511" y="496" type="curve" smooth="yes"/>
      <point x="503" y="496"/>
      <point x="493" y="506"/>
      <point x="482" y="517" type="curve" smooth="yes"/>
      <point x="473" y="528"/>
      <point x="448" y="548"/>
      <point x="429" y="548" type="curve" smooth="yes"/>
      <point x="406" y="548"/>
      <point x="388" y="531"/>
      <point x="363" y="484" type="curve" smooth="yes"/>
      <point x="313" y="390" type="line"/>
      <point x="513" y="20" type="line"/>
      <point x="548" y="20" type="line"/>
      <point x="548" y="0" type="line"/>
      <point x="335" y="0" type="line"/>
      <point x="335" y="20" type="line"/>
      <point x="394" y="20" type="line"/>
      <point x="259" y="272" type="line"/>
      <point x="220" y="188" type="line"/>
      <point x="233" y="173"/>
      <point x="238" y="167"/>
      <point x="238" y="148" type="curve" smooth="yes"/>
      <point x="238" y="123"/>
      <point x="219" y="103"/>
      <point x="190" y="103" type="curve" smooth="yes"/>
      <point x="186" y="104"/>
      <point x="183" y="104"/>
      <point x="180" y="104" type="curve" smooth="yes"/>
      <point x="142" y="20" type="line"/>
      <point x="198" y="20" type="line"/>
    </contour>
  </outline>
</glyph>
<glyph name="afii10040" format="2">
  <advance width="556"/>
  <unicode hex="0426"/>
  <anchor x="408" y="680" name="Yerik"/>
  <anchor x="268" y="680" name="Above"/>
  <outline>
    <contour>
      <point x="522" y="628" type="line"/>
      <point x="522" y="607" type="line"/>
      <point x="466" y="607" type="line"/>
      <point x="466" y="21" type="line"/>
      <point x="480" y="21" type="line" smooth="yes"/>
      <point x="496" y="21"/>
      <point x="507" y="20"/>
      <point x="512" y="15" type="curve" smooth="yes"/>
      <point x="519" y="8"/>
      <point x="522" y="-25"/>
      <point x="522" y="-49" type="curve" smooth="yes"/>
      <point x="522" y="-71"/>
      <point x="519" y="-86"/>
      <point x="514" y="-95" type="curve" smooth="yes"/>
      <point x="509" y="-104"/>
      <point x="493" y="-117"/>
      <point x="468" y="-134" type="curve" smooth="yes"/>
      <point x="443" y="-151"/>
      <point x="411" y="-170"/>
      <point x="371" y="-191" type="curve" smooth="yes"/>
      <point x="332" y="-212"/>
      <point x="306" y="-222"/>
      <point x="293" y="-222" type="curve"/>
      <point x="278" y="-219" type="line"/>
      <point x="258" y="-210"/>
      <point x="176" y="-125"/>
      <point x="135" y="-124" type="curve" smooth="yes"/>
      <point x="108" y="-124"/>
      <point x="92" y="-141"/>
      <point x="68" y="-172" type="curve"/>
      <point x="50" y="-154" type="line"/>
      <point x="73" y="-131"/>
      <point x="100" y="-107"/>
      <point x="129" y="-82" type="curve" smooth="yes"/>
      <point x="159" y="-58"/>
      <point x="181" y="-46"/>
      <point x="194" y="-46" type="curve" smooth="yes"/>
      <point x="207.852" y="-46"/>
      <point x="210.386" y="-50.3632"/>
      <point x="222" y="-57" type="curve" smooth="yes"/>
      <point x="229" y="-62"/>
      <point x="248" y="-76"/>
      <point x="277" y="-99" type="curve" smooth="yes"/>
      <point x="306" y="-122"/>
      <point x="324" y="-137"/>
      <point x="330" y="-142" type="curve" smooth="yes"/>
      <point x="343" y="-154"/>
      <point x="353" y="-160"/>
      <point x="361" y="-160" type="curve" smooth="yes"/>
      <point x="372" y="-160"/>
      <point x="387" y="-155"/>
      <point x="406" y="-145" type="curve" smooth="yes"/>
      <point x="425" y="-135"/>
      <point x="435" y="-124"/>
      <point x="435" y="-111" type="curve"/>
      <point x="423" y="0" type="line"/>
      <point x="28" y="0" type="line"/>
      <point x="28" y="21" type="line"/>
      <point x="83" y="21" type="line"/>
      <point x="83" y="607" type="line"/>
      <point x="28" y="607" type="line"/>
      <point x="28" y="628" type="line"/>
      <point x="252" y="628" type="line"/>
      <point x="252" y="607" type="line"/>
      <point x="197" y="607" type="line"/>
      <point x="197" y="21" type="line"/>
      <point x="352" y="21" type="line"/>
      <point x="352" y="607" type="line"/>
      <point x="297" y="607" type="line"/>
      <point x="297" y="628" type="line"/>
    </contour>
  </outline>
</glyph>
<glyph name="afii10043" format="2">
  <advance width="796"/>
  <unicode hex="0429"/>
  <anchor x="658" y="680" name="Yerik"/>
  <anchor x="391" y="680" name="Above"/>
  <outline>
    <contour>
      <point x="34" y="0" type="line"/>
      <point x="34" y="21" type="line"/>
      <point x="84" y="21" type="line"/>
      <point x="84" y="607" type="line"/>
      <point x="34" y="607" type="line"/>
      <point x="34" y="628" type="line"/>
      <point x="248" y="628" type="line"/>
      <point x="248" y="607" type="line"/>
      <point x="197" y="607" type="line"/>
      <point x="197" y="21" type="line"/>
      <point x="342" y="21" type="line"/>
      <point x="342" y="607" type="line"/>
      <point x="290" y="607" type="line"/>
      <point x="290" y="628" type="line"/>
      <point x="506" y="628" type="line"/>
      <point x="506" y="607" type="line"/>
      <point x="455" y="607" type="line"/>
      <point x="455" y="21" type="line"/>
      <point x="599" y="21" type="line"/>
      <point x="599" y="607" type="line"/>
      <point x="548" y="607" type="line"/>
      <point x="548" y="628" type="line"/>
      <point x="762" y="628" type="line"/>
      <point x="762" y="607" type="line"/>
      <point x="713" y="607" type="line"/>
      <point x="712" y="21" type="line"/>
      <point x="762" y="21" type="line"/>
      <point x="762" y="0" type="line"/>
      <point x="455" y="0" type="line"/>
      <point x="455" y="-59"/>
      <point x="461" y="-79"/>
      <point x="504" y="-103" type="curve"/>
      <point x="451" y="-122"/>
      <point x="426" y="-142"/>
      <point x="398" y="-202" type="curve"/>
      <point x="383" y="-172"/>
      <point x="369" y="-150"/>
      <point x="354" y="-137" type="curve" smooth="yes"/>
      <point x="339" y="-124"/>
      <point x="319" y="-112"/>
      <point x="292" y="-103" type="curve"/>
      <point x="333" y="-79"/>
      <point x="342" y="-60"/>
      <point x="342" y="0" type="curve"/>
    </contour>
  </outline>
</glyph>
<glyph name="afii10047" format="2">
  <advance width="536"/>
  <unicode hex="042D"/>
  <anchor x="408" y="680" name="Yerik"/>
  <anchor x="272" y="680" name="Above"/>
  <outline>
    <contour>
      <point x="260" y="144" type="line"/>
      <point x="248.577" y="137.473"/>
      <point x="226" y="125.102"/>
      <point x="226" y="120" type="curve" smooth="yes"/>
      <point x="226" y="107"/>
      <point x="240" y="86"/>
      <point x="268" y="57" type="curve" smooth="yes"/>
      <point x="295" y="28"/>
      <point x="331" y="13"/>
      <point x="375" y="13" type="curve" smooth="yes"/>
      <point x="391" y="13"/>
      <point x="401" y="14"/>
      <point x="413" y="17" type="curve"/>
      <point x="384" y="61"/>
      <point x="366" y="100"/>
      <point x="366" y="173" type="curve" smooth="yes"/>
      <point x="366" y="189"/>
      <point x="369" y="226"/>
      <point x="372" y="245" type="curve" smooth="yes"/>
      <point x="375" y="268" type="line" smooth="yes"/>
      <point x="375" y="274"/>
      <point x="374" y="279"/>
      <point x="371" y="284" type="curve"/>
      <point x="335" y="325" type="line"/>
      <point x="310" y="350"/>
      <point x="275" y="380"/>
      <point x="234" y="380" type="curve" smooth="yes"/>
      <point x="193" y="380"/>
      <point x="164" y="347"/>
      <point x="164" y="286" type="curve"/>
      <point x="167" y="245" type="line"/>
      <point x="206" y="245" type="line"/>
      <point x="207" y="223" type="line"/>
      <point x="31" y="223" type="line"/>
      <point x="31" y="245" type="line"/>
      <point x="65" y="245" type="line"/>
      <point x="65" y="376"/>
      <point x="106" y="432"/>
      <point x="197" y="432" type="curve" smooth="yes"/>
      <point x="278" y="432"/>
      <point x="328" y="383"/>
      <point x="381" y="311" type="curve"/>
      <point x="385" y="336" type="line" smooth="yes"/>
      <point x="388" y="352"/>
      <point x="393" y="372"/>
      <point x="399" y="395" type="curve" smooth="yes"/>
      <point x="403" y="416"/>
      <point x="405" y="439"/>
      <point x="405" y="465" type="curve" smooth="yes"/>
      <point x="405" y="525"/>
      <point x="390" y="566"/>
      <point x="361" y="587" type="curve" smooth="yes"/>
      <point x="331" y="609"/>
      <point x="302" y="620"/>
      <point x="273" y="620" type="curve" smooth="yes"/>
      <point x="216" y="620"/>
      <point x="187" y="594"/>
      <point x="179" y="527" type="curve"/>
      <point x="218" y="519" type="line"/>
      <point x="214" y="497" type="line"/>
      <point x="187" y="502"/>
      <point x="163" y="506"/>
      <point x="135" y="506" type="curve" smooth="yes"/>
      <point x="118" y="506"/>
      <point x="92" y="504"/>
      <point x="57" y="499" type="curve"/>
      <point x="41" y="496" type="line"/>
      <point x="40" y="518" type="line"/>
      <point x="71" y="524" type="line"/>
      <point x="92" y="596"/>
      <point x="149" y="639"/>
      <point x="262" y="639" type="curve" smooth="yes"/>
      <point x="357" y="639"/>
      <point x="422" y="612"/>
      <point x="457" y="559" type="curve" smooth="yes"/>
      <point x="492" y="506"/>
      <point x="510" y="452"/>
      <point x="510" y="397" type="curve" smooth="yes"/>
      <point x="510" y="361"/>
      <point x="506" y="331"/>
      <point x="497" y="307" type="curve" smooth="yes"/>
      <point x="488" y="284"/>
      <point x="476" y="254"/>
      <point x="461" y="217" type="curve" smooth="yes"/>
      <point x="429" y="145"/>
      <point x="420" y="102"/>
      <point x="420" y="78" type="curve" smooth="yes"/>
      <point x="420" y="53"/>
      <point x="431" y="26"/>
      <point x="459" y="5" type="curve"/>
      <point x="428" y="-7"/>
      <point x="401" y="-15"/>
      <point x="348" y="-15" type="curve" smooth="yes"/>
      <point x="272" y="-15"/>
      <point x="193" y="9"/>
      <point x="161" y="48" type="curve" smooth="yes"/>
      <point x="128" y="88"/>
      <point x="127" y="89"/>
      <point x="122" y="89" type="curve" smooth="yes"/>
      <point x="119" y="89"/>
      <point x="102" y="83"/>
      <point x="90" y="79" type="curve"/>
      <point x="84" y="100" type="line"/>
      <point x="134.669" y="114.71"/>
      <point x="210.919" y="143.78"/>
      <point x="251" y="165" type="curve"/>
    </contour>
  </outline>
</glyph>
<glyph name="afii10065" format="2">
  <advance width="370"/>
  <unicode hex="0430"/>
  <anchor x="232" y="625" name="Yerik"/>
  <anchor x="233" y="623" name="Above"/>
  <outline>
    <contour>
      <point x="340" y="-1" type="curve"/>
      <point x="226" y="-1" type="line"/>
      <point x="220.486" y="38.8194"/>
      <point x="215.032" y="78.6989"/>
      <point x="209" y="118" type="curve" smooth="yes"/>
      <point x="208" y="127"/>
      <point x="208" y="138"/>
      <point x="200" y="138" type="curve" smooth="yes"/>
      <point x="195" y="138"/>
      <point x="189" y="130"/>
      <point x="184" y="114" type="curve" smooth="yes"/>
      <point x="179" y="98"/>
      <point x="158" y="55"/>
      <point x="141" y="30" type="curve" smooth="yes"/>
      <point x="129" y="7"/>
      <point x="105" y="-6"/>
      <point x="81" y="-6" type="curve" smooth="yes"/>
      <point x="48" y="-6"/>
      <point x="26" y="12"/>
      <point x="26" y="52" type="curve" smooth="yes"/>
      <point x="26" y="72"/>
      <point x="32" y="92"/>
      <point x="43" y="113" type="curve" smooth="yes"/>
      <point x="58.6886" y="142.951"/>
      <point x="152.502" y="296.554"/>
      <point x="168" y="326" type="curve" smooth="yes"/>
      <point x="179" y="345"/>
      <point x="184" y="371"/>
      <point x="184" y="402" type="curve"/>
      <point x="182" y="451" type="line"/>
      <point x="282" y="451" type="line"/>
      <point x="282" y="401"/>
      <point x="288" y="326"/>
      <point x="300" y="225" type="curve" smooth="yes"/>
      <point x="313" y="124"/>
      <point x="326" y="49"/>
    </contour>
    <contour>
      <point x="194" y="309" type="line"/>
      <point x="187" y="309" type="line"/>
      <point x="135" y="216" type="line"/>
      <point x="110" y="175" type="line" smooth="yes"/>
      <point x="97" y="154"/>
      <point x="89" y="140"/>
      <point x="86" y="133" type="curve" smooth="yes"/>
      <point x="83" y="126"/>
      <point x="82" y="117"/>
      <point x="82" y="108" type="curve" smooth="yes"/>
      <point x="82" y="87"/>
      <point x="92" y="76"/>
      <point x="111" y="76" type="curve" smooth="yes"/>
      <point x="127" y="76"/>
      <point x="143" y="83"/>
      <point x="160" y="114" type="curve" smooth="yes"/>
      <point x="181" y="150" type="line"/>
      <point x="186" y="157" type="line"/>
      <point x="201" y="180"/>
      <point x="202" y="182"/>
      <point x="202" y="197" type="curve"/>
    </contour>
  </outline>
</glyph>
<glyph name="afii10066" format="2">
  <advance width="481"/>
  <unicode hex="0431"/>
  <anchor x="367" y="623" name="Yerik"/>
  <anchor x="257" y="623" name="Above"/>
  <outline>
    <contour>
      <point x="374" y="321" type="curve" smooth="yes"/>
      <point x="372" y="321" type="line" smooth="yes"/>
      <point x="368" y="321"/>
      <point x="367" y="323"/>
      <point x="355" y="352" type="curve" smooth="yes"/>
      <point x="343" y="385"/>
      <point x="325" y="420"/>
      <point x="316" y="427" type="curve" smooth="yes"/>
      <point x="309" y="428"/>
      <point x="299" y="429"/>
      <point x="276" y="429" type="curve" smooth="yes"/>
      <point x="257.667" y="429"/>
      <point x="239.333" y="429"/>
      <point x="221" y="429" type="curve" smooth="yes"/>
      <point x="204" y="429"/>
      <point x="194" y="428"/>
      <point x="191" y="426" type="curve" smooth="yes"/>
      <point x="184" y="422"/>
      <point x="182" y="416"/>
      <point x="182" y="361" type="curve"/>
      <point x="173" y="187" type="line"/>
      <point x="314" y="233" type="line"/>
      <point x="342.669" y="193.112"/>
      <point x="364.309" y="160.112"/>
      <point x="383.906" y="122.9" type="curve" smooth="yes"/>
      <point x="402.037" y="88.4695"/>
      <point x="418.419" y="50.4333"/>
      <point x="437" y="0" type="curve"/>
      <point x="61" y="0" type="line"/>
      <point x="82" y="451" type="line"/>
      <point x="417" y="451" type="line" smooth="yes"/>
      <point x="424" y="451"/>
      <point x="427" y="449"/>
      <point x="427" y="444" type="curve"/>
      <point x="423" y="431" type="line"/>
      <point x="409" y="405"/>
      <point x="399" y="382"/>
      <point x="392" y="361" type="curve" smooth="yes"/>
      <point x="381" y="322"/>
      <point x="380" y="321"/>
    </contour>
    <contour>
      <point x="172" y="159" type="line"/>
      <point x="166" y="20" type="line"/>
      <point x="322" y="20" type="line"/>
      <point x="312.101" y="44.5127"/>
      <point x="301.312" y="68.3588"/>
      <point x="288.378" y="92.9" type="curve" smooth="yes"/>
      <point x="273.875" y="120.419"/>
      <point x="256.673" y="148.813"/>
      <point x="235" y="180" type="curve"/>
    </contour>
  </outline>
</glyph>
<glyph name="afii10067" format="2">
  <advance width="500"/>
  <unicode hex="0432"/>
  <anchor x="367" y="623" name="Yerik"/>
  <anchor x="257" y="623" name="Above"/>
  <outline>
    <contour>
      <point x="67" y="451" type="curve"/>
      <point x="398" y="451" type="line" smooth="yes"/>
      <point x="405" y="451"/>
      <point x="409" y="449"/>
      <point x="409" y="444" type="curve" smooth="yes"/>
      <point x="409" y="439"/>
      <point x="397" y="426"/>
      <point x="389" y="415" type="curve"/>
      <point x="259" y="265" type="line"/>
      <point x="259" y="265"/>
      <point x="257" y="262"/>
      <point x="258" y="260" type="curve" smooth="yes"/>
      <point x="258" y="258"/>
      <point x="261" y="258"/>
      <point x="261" y="258" type="curve"/>
      <point x="286" y="260"/>
      <point x="330" y="267"/>
      <point x="341" y="267" type="curve" smooth="yes"/>
      <point x="360" y="267"/>
      <point x="363" y="262"/>
      <point x="379" y="230" type="curve"/>
      <point x="395" y="193"/>
      <point x="428" y="117"/>
      <point x="449" y="65" type="curve" smooth="yes"/>
      <point x="460" y="38"/>
      <point x="467" y="17"/>
      <point x="468" y="11" type="curve" smooth="yes"/>
      <point x="469" y="5"/>
      <point x="465" y="2"/>
      <point x="459" y="1" type="curve" smooth="yes"/>
      <point x="400" y="0" type="line"/>
      <point x="122" y="0" type="line" smooth="yes"/>
      <point x="101" y="0"/>
      <point x="86" y="1"/>
      <point x="78" y="2" type="curve" smooth="yes"/>
      <point x="71" y="3"/>
      <point x="68" y="13"/>
      <point x="67" y="32" type="curve" smooth="yes"/>
      <point x="65" y="78"/>
      <point x="64" y="138"/>
      <point x="63" y="198" type="curve" smooth="yes"/>
      <point x="62.7639" y="220.899"/>
      <point x="62.6393" y="244.02"/>
      <point x="62.6393" y="266.707" type="curve" smooth="yes"/>
      <point x="62.6393" y="340.122"/>
      <point x="63.9443" y="408.984"/>
    </contour>
    <contour>
      <point x="172" y="382" type="curve" smooth="yes"/>
      <point x="171.423" y="368.144"/>
      <point x="170.845" y="330.954"/>
      <point x="170.845" y="297.181" type="curve" smooth="yes"/>
      <point x="170.845" y="272.458"/>
      <point x="171.155" y="249.566"/>
      <point x="172" y="239" type="curve" smooth="yes"/>
      <point x="172" y="232"/>
      <point x="175" y="229"/>
      <point x="181" y="229" type="curve" smooth="yes"/>
      <point x="193" y="229"/>
      <point x="215" y="247"/>
      <point x="247" y="284" type="curve" smooth="yes"/>
      <point x="279" y="321"/>
      <point x="309" y="369"/>
      <point x="338" y="430" type="curve"/>
      <point x="211" y="430" type="line" smooth="yes"/>
      <point x="197" y="430"/>
      <point x="185" y="430"/>
      <point x="180" y="427" type="curve" smooth="yes"/>
      <point x="173" y="424"/>
      <point x="173" y="423"/>
    </contour>
    <contour>
      <point x="171" y="148" type="curve" smooth="yes"/>
      <point x="171" y="81" type="line" smooth="yes"/>
      <point x="171" y="68"/>
      <point x="174" y="38"/>
      <point x="179" y="29" type="curve" smooth="yes"/>
      <point x="183" y="22.6"/>
      <point x="202.36" y="21.96"/>
      <point x="228.888" y="21.96" type="curve" smooth="yes"/>
      <point x="235.52" y="21.96"/>
      <point x="242.6" y="22"/>
      <point x="250" y="22" type="curve" smooth="yes"/>
      <point x="352" y="24" type="line"/>
      <point x="284" y="192" type="line" smooth="yes"/>
      <point x="272" y="221"/>
      <point x="262" y="244"/>
      <point x="251" y="244" type="curve" smooth="yes"/>
      <point x="240" y="244"/>
      <point x="211" y="220"/>
      <point x="190" y="203" type="curve" smooth="yes"/>
      <point x="179" y="194"/>
      <point x="174" y="190"/>
      <point x="172" y="183" type="curve" smooth="yes"/>
      <point x="171" y="179.5"/>
      <point x="170.75" y="175.5"/>
      <point x="170.75" y="170" type="curve" smooth="yes"/>
      <point x="170.75" y="164.5"/>
      <point x="171" y="157.5"/>
    </contour>
  </outline>
</glyph>
<glyph name="afii10075" format="2">
  <advance width="500"/>
  <unicode hex="0439"/>
  <anchor x="267" y="803" name="Yerik"/>
  <anchor x="269" y="803" name="Above"/>
  <outline>
    <contour>
      <point x="173" y="239" type="line"/>
      <point x="173" y="220"/>
      <point x="171" y="123"/>
      <point x="171" y="104" type="curve" smooth="yes"/>
      <point x="173" y="0" type="line"/>
      <point x="68" y="0" type="line"/>
      <point x="68" y="0"/>
      <point x="66.92" y="51.48"/>
      <point x="66.92" y="112.536" type="curve" smooth="yes"/>
      <point x="66.92" y="153.24"/>
      <point x="67.4" y="198.2"/>
      <point x="69" y="235" type="curve" smooth="yes"/>
      <point x="73" y="320"/>
      <point x="73" y="378"/>
      <point x="89" y="451" type="curve"/>
      <point x="188" y="451" type="line"/>
      <point x="176" y="356"/>
      <point x="177" y="361"/>
      <point x="173" y="264" type="curve"/>
      <point x="322" y="332" type="line"/>
      <point x="322" y="353"/>
      <point x="329" y="428"/>
      <point x="329" y="451" type="curve"/>
      <point x="432" y="451" type="line"/>
      <point x="426.917" y="397.631"/>
      <point x="422.552" y="312.687"/>
      <point x="422.552" y="243.584" type="curve" smooth="yes"/>
      <point x="422.552" y="231.114"/>
      <point x="422.694" y="219.16"/>
      <point x="423" y="208" type="curve" smooth="yes"/>
      <point x="426" y="103"/>
      <point x="423" y="116"/>
      <point x="433" y="0" type="curve"/>
      <point x="325" y="0" type="line"/>
      <point x="323" y="42"/>
      <point x="320" y="97"/>
      <point x="319" y="154" type="curve" smooth="yes"/>
      <point x="318.809" y="162.785"/>
      <point x="318.727" y="172.191"/>
      <point x="318.727" y="181.965" type="curve" smooth="yes"/>
      <point x="318.727" y="223.371"/>
      <point x="320.191" y="271.403"/>
      <point x="321" y="307" type="curve"/>
    </contour>
    <contour>
      <point x="266" y="541" type="curve" smooth="yes"/>
      <point x="205" y="541"/>
      <point x="181" y="572"/>
      <point x="181" y="613" type="curve" smooth="yes"/>
      <point x="181" y="636"/>
      <point x="188" y="659"/>
      <point x="203" y="682" type="curve" smooth="yes"/>
      <point x="218" y="705"/>
      <point x="231" y="717"/>
      <point x="241" y="717" type="curve" smooth="yes"/>
      <point x="246" y="716"/>
      <point x="251" y="714"/>
      <point x="251" y="707" type="curve" smooth="yes"/>
      <point x="248" y="697" type="line"/>
      <point x="238" y="675" type="line" smooth="yes"/>
      <point x="234" y="666"/>
      <point x="232" y="657"/>
      <point x="232" y="648" type="curve" smooth="yes"/>
      <point x="232" y="621"/>
      <point x="250" y="609"/>
      <point x="270" y="609" type="curve" smooth="yes"/>
      <point x="299" y="609"/>
      <point x="332" y="636"/>
      <point x="332" y="688" type="curve" smooth="yes"/>
      <point x="332" y="706"/>
      <point x="336" y="715"/>
      <point x="344" y="715" type="curve" smooth="yes"/>
      <point x="357" y="715"/>
      <point x="361" y="682"/>
      <point x="361" y="665" type="curve" smooth="yes"/>
      <point x="361" y="623"/>
      <point x="350" y="592"/>
      <point x="328" y="571" type="curve" smooth="yes"/>
      <point x="307" y="551"/>
      <point x="286" y="541"/>
    </contour>
  </outline>
</glyph>
<glyph name="afii10078" format="2">
  <advance width="722"/>
  <unicode hex="043C"/>
  <anchor x="537" y="623" name="Yerik"/>
  <anchor x="397" y="623" name="Above"/>
  <outline>
    <contour>
      <point x="193" y="451" type="curve"/>
      <point x="322" y="451" type="line"/>
      <point x="322" y="406"/>
      <point x="327" y="354"/>
      <point x="336" y="297" type="curve" smooth="yes"/>
      <point x="345" y="240"/>
      <point x="357" y="187"/>
      <point x="370" y="138" type="curve"/>
      <point x="378" y="139" type="line"/>
      <point x="397" y="191"/>
      <point x="412" y="231"/>
      <point x="424" y="259" type="curve" smooth="yes"/>
      <point x="437" y="287"/>
      <point x="449" y="314"/>
      <point x="462" y="341" type="curve" smooth="yes"/>
      <point x="475" y="368"/>
      <point x="482" y="385"/>
      <point x="483" y="394" type="curve" smooth="yes"/>
      <point x="484" y="403"/>
      <point x="484" y="422"/>
      <point x="484" y="451" type="curve"/>
      <point x="611" y="451" type="line"/>
      <point x="609" y="404" type="line" smooth="yes"/>
      <point x="609" y="359"/>
      <point x="616" y="299"/>
      <point x="629" y="223" type="curve" smooth="yes"/>
      <point x="642" y="148"/>
      <point x="660" y="73"/>
      <point x="683" y="0" type="curve"/>
      <point x="568" y="0" type="line"/>
      <point x="555" y="48"/>
      <point x="545" y="96"/>
      <point x="536" y="144" type="curve" smooth="yes"/>
      <point x="527" y="193"/>
      <point x="519" y="263"/>
      <point x="510" y="354" type="curve"/>
      <point x="504" y="353" type="line"/>
      <point x="483" y="320"/>
      <point x="459" y="269"/>
      <point x="432" y="199" type="curve" smooth="yes"/>
      <point x="405" y="130"/>
      <point x="391" y="84"/>
      <point x="391" y="61" type="curve" smooth="yes"/>
      <point x="391" y="37"/>
      <point x="397" y="23"/>
      <point x="410" y="0" type="curve"/>
      <point x="281" y="0" type="line"/>
      <point x="229" y="323" type="line"/>
      <point x="223" y="323" type="line"/>
      <point x="189" y="261"/>
      <point x="167" y="214"/>
      <point x="156" y="182" type="curve" smooth="yes"/>
      <point x="145" y="150"/>
      <point x="140" y="119"/>
      <point x="140" y="89" type="curve" smooth="yes"/>
      <point x="140" y="41"/>
      <point x="149" y="19"/>
      <point x="162" y="0" type="curve"/>
      <point x="28" y="0" type="line"/>
      <point x="28" y="31"/>
      <point x="34" y="62"/>
      <point x="46" y="91" type="curve" smooth="yes"/>
      <point x="59" y="121"/>
      <point x="88" y="170"/>
      <point x="134" y="238" type="curve" smooth="yes"/>
      <point x="181" y="307"/>
      <point x="204" y="356"/>
      <point x="204" y="386" type="curve" smooth="yes"/>
      <point x="204" y="409"/>
      <point x="200" y="431"/>
    </contour>
  </outline>
</glyph>
<glyph name="afii10079" format="2">
  <advance width="500"/>
  <unicode hex="043D"/>
  <anchor x="367" y="623" name="Yerik"/>
  <anchor x="257" y="623" name="Above"/>
  <outline>
    <contour>
      <point x="176" y="310" type="line"/>
      <point x="170" y="226"/>
      <point x="168" y="159"/>
      <point x="168" y="107" type="curve" smooth="yes"/>
      <point x="168" y="56"/>
      <point x="170" y="20"/>
      <point x="171" y="0" type="curve"/>
      <point x="67" y="0" type="line"/>
      <point x="67" y="103"/>
      <point x="68" y="176"/>
      <point x="72" y="243" type="curve" smooth="yes"/>
      <point x="75" y="310"/>
      <point x="81" y="371"/>
      <point x="90" y="451" type="curve"/>
      <point x="189" y="451" type="line"/>
      <point x="185" y="411"/>
      <point x="180" y="372"/>
      <point x="178" y="333" type="curve"/>
      <point x="320" y="266" type="line"/>
      <point x="321" y="299"/>
      <point x="319" y="355"/>
      <point x="330" y="451" type="curve"/>
      <point x="433" y="451" type="line"/>
      <point x="429" y="408"/>
      <point x="426" y="367"/>
      <point x="425" y="323" type="curve" smooth="yes"/>
      <point x="424" y="272"/>
      <point x="423" y="224"/>
      <point x="423" y="174" type="curve" smooth="yes"/>
      <point x="424" y="119"/>
      <point x="427" y="62"/>
      <point x="432" y="0" type="curve"/>
      <point x="324" y="0" type="line"/>
      <point x="324" y="45"/>
      <point x="317.975" y="78.6198"/>
      <point x="317.975" y="170.966" type="curve" smooth="yes"/>
      <point x="317.975" y="191.488"/>
      <point x="318.273" y="214.909"/>
      <point x="319" y="242" type="curve"/>
    </contour>
  </outline>
</glyph>
<glyph name="afii10080" format="2">
  <advance width="482"/>
  <unicode hex="043E"/>
  <anchor x="367" y="623" name="Yerik"/>
  <anchor x="257" y="623" name="Above"/>
  <outline>
    <contour>
      <point x="32" y="200" type="curve" smooth="yes"/>
      <point x="32" y="280"/>
      <point x="57" y="337"/>
      <point x="126" y="385" type="curve" smooth="yes"/>
      <point x="197" y="433"/>
      <point x="256" y="459"/>
      <point x="288" y="459" type="curve" smooth="yes"/>
      <point x="325" y="459"/>
      <point x="361" y="431"/>
      <point x="396" y="376" type="curve" smooth="yes"/>
      <point x="432" y="321"/>
      <point x="450" y="267"/>
      <point x="450" y="212" type="curve" smooth="yes"/>
      <point x="450" y="144"/>
      <point x="427" y="104"/>
      <point x="375" y="64" type="curve" smooth="yes"/>
      <point x="324" y="25"/>
      <point x="260" y="-13"/>
      <point x="199" y="-13" type="curve" smooth="yes"/>
      <point x="154" y="-13"/>
      <point x="115" y="13"/>
      <point x="82" y="64" type="curve" smooth="yes"/>
      <point x="49" y="115"/>
      <point x="32" y="161"/>
    </contour>
    <contour>
      <point x="114" y="278" type="curve" smooth="yes"/>
      <point x="114" y="241"/>
      <point x="131" y="192"/>
      <point x="164" y="133" type="curve" smooth="yes"/>
      <point x="197" y="74"/>
      <point x="233" y="45"/>
      <point x="271" y="45" type="curve" smooth="yes"/>
      <point x="292" y="45"/>
      <point x="313" y="54"/>
      <point x="334" y="71" type="curve" smooth="yes"/>
      <point x="355" y="89"/>
      <point x="366" y="115"/>
      <point x="366" y="149" type="curve" smooth="yes"/>
      <point x="366" y="190"/>
      <point x="350" y="240"/>
      <point x="317" y="299" type="curve" smooth="yes"/>
      <point x="285" y="358"/>
      <point x="251" y="388"/>
      <point x="214" y="388" type="curve" smooth="yes"/>
      <point x="195" y="388"/>
      <point x="175" y="382"/>
      <point x="148" y="361" type="curve" smooth="yes"/>
      <point x="123" y="341"/>
      <point x="114" y="323"/>
    </contour>
  </outline>
</glyph>
<glyph name="afii10085" format="2">
  <advance width="500"/>
  <unicode hex="0443"/>
  <anchor x="397" y="623" name="Yerik"/>
  <anchor x="227" y="623" name="Above"/>
  <outline>
    <contour>
      <point x="219" y="-1" type="curve"/>
      <point x="91" y="-1" type="line"/>
      <point x="72" y="123"/>
      <point x="55" y="216"/>
      <point x="42" y="278" type="curve" smooth="yes"/>
      <point x="29" y="340"/>
      <point x="20" y="380"/>
      <point x="13" y="399" type="curve" smooth="yes"/>
      <point x="0" y="436"/>
      <point x="1" y="434"/>
      <point x="0" y="439" type="curve" smooth="yes"/>
      <point x="0" y="451"/>
      <point x="10" y="451"/>
      <point x="34" y="451" type="curve" smooth="yes"/>
      <point x="111" y="450" type="line"/>
      <point x="135" y="362"/>
      <point x="152" y="286"/>
      <point x="167" y="186" type="curve" smooth="yes"/>
      <point x="190" y="44" type="line" smooth="yes"/>
      <point x="193" y="28"/>
      <point x="197" y="17"/>
      <point x="208" y="17" type="curve" smooth="yes"/>
      <point x="217" y="17"/>
      <point x="222" y="24"/>
      <point x="222" y="39" type="curve" smooth="yes"/>
      <point x="233" y="122" type="line" smooth="yes"/>
      <point x="246" y="223"/>
      <point x="268" y="305"/>
      <point x="300" y="367" type="curve" smooth="yes"/>
      <point x="332" y="429"/>
      <point x="383" y="460"/>
      <point x="454" y="460" type="curve" smooth="yes"/>
      <point x="470" y="460"/>
      <point x="476" y="459"/>
      <point x="476" y="452" type="curve" smooth="yes"/>
      <point x="473" y="447"/>
      <point x="470" y="444"/>
      <point x="467" y="441" type="curve" smooth="yes"/>
      <point x="460" y="437"/>
      <point x="446" y="416"/>
      <point x="446" y="392" type="curve" smooth="yes"/>
      <point x="446" y="379"/>
      <point x="450" y="364"/>
      <point x="457" y="339" type="curve"/>
      <point x="396" y="339"/>
      <point x="353" y="321"/>
      <point x="329" y="285" type="curve" smooth="yes"/>
      <point x="305" y="249"/>
      <point x="286" y="180"/>
      <point x="273" y="77" type="curve" smooth="yes"/>
      <point x="260" y="-26"/>
      <point x="249" y="-106"/>
      <point x="239" y="-163" type="curve" smooth="yes"/>
      <point x="230" y="-221"/>
      <point x="215" y="-250"/>
      <point x="196" y="-250" type="curve" smooth="yes"/>
      <point x="189" y="-250"/>
      <point x="185" y="-247"/>
      <point x="185" y="-240" type="curve" smooth="yes"/>
      <point x="190" y="-218" type="line" smooth="yes"/>
      <point x="193.752" y="-201.489"/>
      <point x="198.5" y="-181"/>
      <point x="203.5" y="-144" type="curve" smooth="yes"/>
      <point x="210.763" y="-90.2529"/>
      <point x="214.292" y="-48.0831"/>
    </contour>
  </outline>
</glyph>
<glyph name="afii10086" format="2">
  <advance width="704"/>
  <unicode hex="0444"/>
  <anchor x="587" y="623" name="Yerik"/>
  <anchor x="347" y="723" name="Above"/>
  <outline>
    <contour>
      <point x="292" y="590" type="curve" smooth="yes"/>
      <point x="346.213" y="595.787"/>
      <point x="396.5" y="601"/>
      <point x="455" y="607" type="curve" smooth="yes"/>
      <point x="464.948" y="608.02"/>
      <point x="470" y="602"/>
      <point x="470" y="592" type="curve" smooth="yes"/>
      <point x="470" y="585"/>
      <point x="468" y="581"/>
      <point x="464" y="579" type="curve" smooth="yes"/>
      <point x="460" y="578"/>
      <point x="450" y="576"/>
      <point x="433" y="573" type="curve" smooth="yes"/>
      <point x="416" y="570"/>
      <point x="408" y="564"/>
      <point x="408" y="553" type="curve" smooth="yes"/>
      <point x="408" y="482"/>
      <point x="415" y="436"/>
      <point x="428" y="413" type="curve" smooth="yes"/>
      <point x="442" y="391"/>
      <point x="478" y="358"/>
      <point x="537" y="315" type="curve" smooth="yes"/>
      <point x="596" y="272"/>
      <point x="634" y="238"/>
      <point x="651" y="212" type="curve" smooth="yes"/>
      <point x="668" y="187"/>
      <point x="677" y="159"/>
      <point x="677" y="128" type="curve" smooth="yes"/>
      <point x="677" y="90"/>
      <point x="664" y="57"/>
      <point x="638" y="29" type="curve" smooth="yes"/>
      <point x="613" y="2"/>
      <point x="578" y="-12"/>
      <point x="535" y="-12" type="curve" smooth="yes"/>
      <point x="509" y="-12"/>
      <point x="487" y="-8"/>
      <point x="470" y="0" type="curve" smooth="yes"/>
      <point x="453" y="7"/>
      <point x="431" y="20"/>
      <point x="404" y="38" type="curve"/>
      <point x="415" y="-137" type="line"/>
      <point x="415" y="-182.069"/>
      <point x="415.544" y="-193.345"/>
      <point x="448" y="-202" type="curve" smooth="yes"/>
      <point x="463" y="-206"/>
      <point x="470" y="-212"/>
      <point x="470" y="-219" type="curve" smooth="yes"/>
      <point x="470" y="-231"/>
      <point x="462" y="-233"/>
      <point x="422" y="-233" type="curve" smooth="yes"/>
      <point x="365" y="-233"/>
      <point x="308" y="-233"/>
      <point x="251" y="-233" type="curve"/>
      <point x="240" y="-232"/>
      <point x="235" y="-227"/>
      <point x="235" y="-219" type="curve" smooth="yes"/>
      <point x="235" y="-208"/>
      <point x="241" y="-207"/>
      <point x="262" y="-200" type="curve" smooth="yes"/>
      <point x="285" y="-195"/>
      <point x="290" y="-185"/>
      <point x="290" y="-137" type="curve"/>
      <point x="301" y="38" type="line"/>
      <point x="254" y="6"/>
      <point x="220" y="-12"/>
      <point x="169" y="-12" type="curve" smooth="yes"/>
      <point x="82" y="-12"/>
      <point x="27" y="49"/>
      <point x="27" y="128" type="curve" smooth="yes"/>
      <point x="27" y="185"/>
      <point x="63" y="239"/>
      <point x="135" y="292" type="curve" smooth="yes"/>
      <point x="200" y="339" type="line" smooth="yes"/>
      <point x="244" y="372"/>
      <point x="271" y="399"/>
      <point x="281" y="422" type="curve" smooth="yes"/>
      <point x="292" y="445"/>
      <point x="297" y="477"/>
      <point x="297" y="517" type="curve" smooth="yes"/>
      <point x="297" y="548"/>
      <point x="295" y="554"/>
      <point x="282" y="554" type="curve" smooth="yes"/>
      <point x="269" y="554" type="line" smooth="yes"/>
      <point x="241" y="554"/>
      <point x="236" y="556"/>
      <point x="236" y="568" type="curve" smooth="yes"/>
      <point x="236" y="584"/>
      <point x="241" y="585"/>
    </contour>
    <contour>
      <point x="313" y="159" type="curve"/>
      <point x="317" y="334" type="line"/>
      <point x="319" y="399" type="line" smooth="yes"/>
      <point x="319" y="406"/>
      <point x="313" y="410"/>
      <point x="312" y="411" type="curve" smooth="yes"/>
      <point x="307" y="411"/>
      <point x="291" y="374"/>
      <point x="252" y="326" type="curve" smooth="yes"/>
      <point x="233" y="302"/>
      <point x="213" y="278"/>
      <point x="191" y="253" type="curve" smooth="yes"/>
      <point x="148" y="204"/>
      <point x="130" y="177"/>
      <point x="130" y="137" type="curve" smooth="yes"/>
      <point x="130" y="104"/>
      <point x="141" y="80"/>
      <point x="162" y="65" type="curve" smooth="yes"/>
      <point x="183" y="51"/>
      <point x="206" y="44"/>
      <point x="231" y="44" type="curve" smooth="yes"/>
      <point x="298" y="44"/>
      <point x="313" y="87"/>
    </contour>
    <contour>
      <point x="391" y="159" type="line"/>
      <point x="391" y="80.1495"/>
      <point x="406.256" y="44"/>
      <point x="474" y="44" type="curve" smooth="yes"/>
      <point x="499" y="44"/>
      <point x="522" y="51"/>
      <point x="543" y="66" type="curve" smooth="yes"/>
      <point x="564" y="81"/>
      <point x="575" y="104"/>
      <point x="575" y="136" type="curve" smooth="yes"/>
      <point x="575" y="157"/>
      <point x="571" y="175"/>
      <point x="562" y="190" type="curve" smooth="yes"/>
      <point x="553" y="205"/>
      <point x="537" y="226"/>
      <point x="513" y="253" type="curve" smooth="yes"/>
      <point x="489" y="280"/>
      <point x="467" y="306"/>
      <point x="448" y="331" type="curve" smooth="yes"/>
      <point x="393" y="408"/>
      <point x="402" y="405"/>
      <point x="392" y="411" type="curve"/>
      <point x="388" y="407"/>
      <point x="386" y="404"/>
      <point x="386" y="402" type="curve" smooth="yes"/>
    </contour>
  </outline>
</glyph>
<glyph name="afii10087" format="2">
  <advance width="426"/>
  <unicode hex="0445"/>
  <anchor x="327" y="623" name="Yerik"/>
  <anchor x="207" y="623" name="Above"/>
  <outline>
    <contour>
      <point x="153" y="177" type="line"/>
      <point x="123" y="249"/>
      <point x="94" y="322"/>
      <point x="64" y="394" type="curve" smooth="yes"/>
      <point x="56" y="415"/>
      <point x="50" y="432"/>
      <point x="50" y="437" type="curve" smooth="yes"/>
      <point x="50" y="448"/>
      <point x="52" y="451"/>
      <point x="87" y="451" type="curve" smooth="yes"/>
      <point x="145" y="451" type="line" smooth="yes"/>
      <point x="153" y="451"/>
      <point x="155" y="449"/>
      <point x="162" y="427" type="curve"/>
      <point x="176" y="388"/>
      <point x="189" y="348"/>
      <point x="202" y="309" type="curve"/>
      <point x="210" y="309" type="line"/>
      <point x="216" y="356"/>
      <point x="229" y="393"/>
      <point x="248" y="422" type="curve" smooth="yes"/>
      <point x="267" y="451"/>
      <point x="307" y="466"/>
      <point x="367" y="466" type="curve" smooth="yes"/>
      <point x="380" y="466"/>
      <point x="386" y="462"/>
      <point x="386" y="455" type="curve" smooth="yes"/>
      <point x="386" y="453"/>
      <point x="385" y="445"/>
      <point x="377" y="438" type="curve" smooth="yes"/>
      <point x="364" y="427"/>
      <point x="356" y="421"/>
      <point x="353" y="405" type="curve" smooth="yes"/>
      <point x="352.333" y="401.667"/>
      <point x="352.056" y="398.028"/>
      <point x="352.056" y="394.278" type="curve" smooth="yes"/>
      <point x="352.056" y="375.528"/>
      <point x="359" y="354"/>
      <point x="359" y="354" type="curve"/>
      <point x="360" y="346"/>
      <point x="356" y="343"/>
      <point x="353" y="343" type="curve" smooth="yes"/>
      <point x="351" y="344"/>
      <point x="305" y="373"/>
      <point x="290" y="373" type="curve" smooth="yes"/>
      <point x="289" y="373"/>
      <point x="289" y="373"/>
      <point x="288" y="373" type="curve" smooth="yes"/>
      <point x="255" y="373"/>
      <point x="235" y="329"/>
      <point x="222" y="278" type="curve"/>
      <point x="392" y="-135" type="line" smooth="yes"/>
      <point x="395" y="-145"/>
      <point x="408" y="-172"/>
      <point x="408" y="-180" type="curve" smooth="yes"/>
      <point x="408" y="-189"/>
      <point x="402" y="-191"/>
      <point x="362" y="-191" type="curve" smooth="yes"/>
      <point x="302" y="-191" type="line"/>
      <point x="173" y="131" type="line"/>
      <point x="149" y="26"/>
      <point x="126" y="-70"/>
      <point x="99" y="-183" type="curve" smooth="yes"/>
      <point x="90" y="-220"/>
      <point x="90" y="-237"/>
      <point x="55" y="-237" type="curve" smooth="yes"/>
      <point x="40" y="-237"/>
      <point x="21" y="-233"/>
      <point x="21" y="-213" type="curve" smooth="yes"/>
      <point x="21" y="-198"/>
      <point x="30" y="-179"/>
      <point x="35" y="-162" type="curve" smooth="yes"/>
    </contour>
  </outline>
</glyph>
<glyph name="afii10089" format="2">
  <advance width="444"/>
  <unicode hex="0447"/>
  <anchor x="347" y="623" name="Yerik"/>
  <anchor x="217" y="623" name="Above"/>
  <outline>
    <contour>
      <point x="382" y="210" type="curve" smooth="yes"/>
      <point x="382" y="120"/>
      <point x="388" y="71"/>
      <point x="397" y="0" type="curve"/>
      <point x="283" y="0" type="line"/>
      <point x="283" y="0"/>
      <point x="278" y="41"/>
      <point x="276" y="108" type="curve" smooth="yes"/>
      <point x="275.586" y="128.711"/>
      <point x="275.343" y="146.676"/>
      <point x="275.343" y="165.237" type="curve" smooth="yes"/>
      <point x="275.343" y="191.485"/>
      <point x="275.828" y="218.924"/>
      <point x="277" y="257" type="curve"/>
      <point x="189" y="257"/>
      <point x="155" y="262"/>
      <point x="100" y="299" type="curve" smooth="yes"/>
      <point x="45" y="339"/>
      <point x="35" y="390"/>
      <point x="35" y="451" type="curve"/>
      <point x="153" y="451" type="line"/>
      <point x="153" y="402"/>
      <point x="159" y="367"/>
      <point x="172" y="346" type="curve" smooth="yes"/>
      <point x="199" y="305"/>
      <point x="233" y="287"/>
      <point x="264" y="287" type="curve" smooth="yes"/>
      <point x="281" y="287"/>
      <point x="281" y="301"/>
      <point x="281" y="322" type="curve" smooth="yes"/>
      <point x="281" y="352"/>
      <point x="282" y="382"/>
      <point x="283" y="407" type="curve" smooth="yes"/>
      <point x="284" y="427"/>
      <point x="285" y="443"/>
      <point x="287" y="451" type="curve"/>
      <point x="396" y="451" type="line"/>
      <point x="385" y="384"/>
      <point x="382" y="293"/>
    </contour>
  </outline>
</glyph>
<glyph name="afii10090" format="2">
  <advance width="833"/>
  <unicode hex="0448"/>
  <anchor x="707" y="623" name="Yerik"/>
  <anchor x="420" y="623" name="Above"/>
  <outline>
    <contour>
      <point x="68" y="0" type="line"/>
      <point x="68" y="48.8571"/>
      <point x="65.7959" y="126.367"/>
      <point x="65.7959" y="199.784" type="curve" smooth="yes"/>
      <point x="65.7959" y="212.02"/>
      <point x="65.8571" y="224.143"/>
      <point x="66" y="236" type="curve" smooth="yes"/>
      <point x="68" y="326"/>
      <point x="70" y="385"/>
      <point x="75" y="451" type="curve"/>
      <point x="185" y="451" type="line"/>
      <point x="176" y="354"/>
      <point x="172" y="237"/>
      <point x="172" y="121" type="curve" smooth="yes"/>
      <point x="172" y="64" type="line"/>
      <point x="174" y="23"/>
      <point x="169" y="23"/>
      <point x="210" y="23" type="curve" smooth="yes"/>
      <point x="248" y="23"/>
      <point x="286" y="23"/>
      <point x="324" y="23" type="curve" smooth="yes"/>
      <point x="357" y="23"/>
      <point x="358" y="26"/>
      <point x="358" y="82" type="curve" smooth="yes"/>
      <point x="361" y="451" type="line"/>
      <point x="478" y="451" type="line"/>
      <point x="473" y="344"/>
      <point x="467" y="226"/>
      <point x="467" y="83" type="curve" smooth="yes"/>
      <point x="467" y="26"/>
      <point x="470" y="23"/>
      <point x="525" y="23" type="curve" smooth="yes"/>
      <point x="619" y="23" type="line" smooth="yes"/>
      <point x="651" y="23"/>
      <point x="656" y="25"/>
      <point x="656" y="44" type="curve" smooth="yes"/>
      <point x="653" y="115"/>
      <point x="651" y="205"/>
      <point x="650" y="284" type="curve" smooth="yes"/>
      <point x="650" y="344"/>
      <point x="652" y="393"/>
      <point x="652" y="451" type="curve"/>
      <point x="767" y="451" type="line"/>
      <point x="763.106" y="417.901"/>
      <point x="760.476" y="332.152"/>
      <point x="760.476" y="241.591" type="curve" smooth="yes"/>
      <point x="760.476" y="192.612"/>
      <point x="761.245" y="142.226"/>
      <point x="763" y="98" type="curve" smooth="yes"/>
      <point x="765" y="43"/>
      <point x="768" y="17"/>
      <point x="771" y="0" type="curve"/>
    </contour>
  </outline>
</glyph>
<glyph name="afii10092" format="2">
  <advance width="463"/>
  <unicode hex="044A"/>
  <anchor x="367" y="623" name="Yerik"/>
  <anchor x="257" y="623" name="Above"/>
  <outline>
    <contour>
      <point x="64" y="265" type="line"/>
      <point x="75" y="451" type="line"/>
      <point x="428" y="451" type="line"/>
      <point x="428" y="440" type="line"/>
      <point x="190" y="41" type="line"/>
      <point x="186" y="29" type="line"/>
      <point x="186" y="23"/>
      <point x="195" y="20"/>
      <point x="213" y="20" type="curve" smooth="yes"/>
      <point x="298" y="20" type="line" smooth="yes"/>
      <point x="317" y="20"/>
      <point x="318" y="21"/>
      <point x="318" y="30" type="curve"/>
      <point x="313" y="61" type="line"/>
      <point x="287" y="179" type="line"/>
      <point x="373" y="208" type="line"/>
      <point x="429" y="11" type="line"/>
      <point x="430" y="0" type="line"/>
      <point x="46" y="0" type="line"/>
      <point x="46" y="8" type="line"/>
      <point x="305" y="430" type="line"/>
      <point x="205" y="430" type="line" smooth="yes"/>
      <point x="172" y="430"/>
      <point x="170" y="427"/>
      <point x="170" y="390" type="curve"/>
      <point x="166" y="265" type="line"/>
    </contour>
  </outline>
</glyph>
<glyph name="afii10093" format="2">
  <advance width="667"/>
  <unicode hex="044B"/>
  <anchor x="517" y="623" name="Yerik"/>
  <anchor x="337" y="623" name="Above"/>
  <outline>
    <contour>
      <point x="63" y="0" type="line"/>
      <point x="63" y="104"/>
      <point x="82" y="362"/>
      <point x="94" y="451" type="curve"/>
      <point x="202" y="451" type="line"/>
      <point x="197" y="417"/>
      <point x="179" y="256"/>
      <point x="179" y="215" type="curve"/>
      <point x="250" y="246" type="line" smooth="yes"/>
      <point x="257" y="249"/>
      <point x="310" y="273"/>
      <point x="319" y="273" type="curve" smooth="yes"/>
      <point x="325" y="273"/>
      <point x="332" y="266"/>
      <point x="339" y="253" type="curve" smooth="yes"/>
      <point x="349" y="237"/>
      <point x="372" y="186"/>
      <point x="393" y="134" type="curve" smooth="yes"/>
      <point x="416" y="82"/>
      <point x="437" y="28"/>
      <point x="445" y="7" type="curve"/>
      <point x="441" y="0" type="line"/>
    </contour>
    <contour>
      <point x="177" y="173" type="curve" smooth="yes"/>
      <point x="174" y="107"/>
      <point x="172" y="53"/>
      <point x="172" y="21" type="curve"/>
      <point x="264" y="21" type="line" smooth="yes"/>
      <point x="311" y="21"/>
      <point x="311" y="22"/>
      <point x="311" y="34" type="curve"/>
      <point x="305" y="59"/>
      <point x="296" y="87"/>
      <point x="285" y="114" type="curve" smooth="yes"/>
      <point x="274" y="140"/>
      <point x="263" y="166"/>
      <point x="252" y="187" type="curve" smooth="yes"/>
      <point x="247" y="199"/>
      <point x="241" y="211"/>
      <point x="230" y="211" type="curve" smooth="yes"/>
      <point x="223" y="211"/>
      <point x="217" y="207"/>
      <point x="210" y="204" type="curve" smooth="yes"/>
      <point x="194" y="196" type="line" smooth="yes"/>
      <point x="183" y="191"/>
      <point x="178" y="183"/>
    </contour>
    <contour>
      <point x="476" y="451" type="curve"/>
      <point x="585" y="451" type="line"/>
      <point x="582" y="402"/>
      <point x="581" y="367"/>
      <point x="581" y="355" type="curve" smooth="yes"/>
      <point x="581" y="256"/>
      <point x="583" y="185"/>
      <point x="586" y="142" type="curve" smooth="yes"/>
      <point x="589" y="99"/>
      <point x="595" y="52"/>
      <point x="603" y="0" type="curve"/>
      <point x="493" y="0" type="line"/>
      <point x="488" y="48"/>
      <point x="485" y="92"/>
      <point x="483" y="131" type="curve" smooth="yes"/>
      <point x="480" y="184"/>
      <point x="477" y="254"/>
      <point x="475" y="321" type="curve" smooth="yes"/>
      <point x="474.586" y="340.882"/>
      <point x="474.343" y="360.421"/>
      <point x="474.343" y="379.049" type="curve" smooth="yes"/>
      <point x="474.343" y="405.392"/>
      <point x="474.828" y="429.912"/>
    </contour>
  </outline>
</glyph>
<glyph name="afii10096" format="2">
  <advance width="556"/>
  <unicode hex="044E"/>
  <anchor x="447" y="623" name="Yerik"/>
  <anchor x="297" y="623" name="Above"/>
  <outline>
    <contour>
      <point x="403" y="-10" type="curve" smooth="yes"/>
      <point x="324.909" y="-10"/>
      <point x="293" y="135.835"/>
      <point x="293" y="224" type="curve" smooth="yes"/>
      <point x="293" y="260"/>
      <point x="297" y="275"/>
      <point x="297" y="284" type="curve"/>
      <point x="175" y="255" type="line"/>
      <point x="175" y="148"/>
      <point x="179" y="63"/>
      <point x="187" y="0" type="curve"/>
      <point x="79" y="0" type="line"/>
      <point x="73.4328" y="46.3933"/>
      <point x="71" y="142.667"/>
      <point x="71" y="194" type="curve" smooth="yes"/>
      <point x="71" y="307.543"/>
      <point x="71.7191" y="355.82"/>
      <point x="85" y="451" type="curve"/>
      <point x="196" y="451" type="line"/>
      <point x="183" y="383"/>
      <point x="176" y="329"/>
      <point x="176" y="282" type="curve"/>
      <point x="301" y="312" type="line"/>
      <point x="311" y="351"/>
      <point x="324" y="384"/>
      <point x="339" y="412" type="curve" smooth="yes"/>
      <point x="355" y="441"/>
      <point x="378" y="455"/>
      <point x="409" y="455" type="curve" smooth="yes"/>
      <point x="444" y="455"/>
      <point x="469" y="433"/>
      <point x="486" y="390" type="curve" smooth="yes"/>
      <point x="503" y="347"/>
      <point x="512" y="295"/>
      <point x="512" y="235" type="curve" smooth="yes"/>
      <point x="512" y="162"/>
      <point x="502" y="103"/>
      <point x="482" y="58" type="curve" smooth="yes"/>
      <point x="463" y="13"/>
      <point x="436" y="-10"/>
    </contour>
    <contour>
      <point x="444" y="241" type="curve" smooth="yes"/>
      <point x="444" y="280"/>
      <point x="437" y="322"/>
      <point x="405" y="322" type="curve" smooth="yes"/>
      <point x="372" y="322"/>
      <point x="350" y="271"/>
      <point x="350" y="210" type="curve" smooth="yes"/>
      <point x="350" y="189"/>
      <point x="353" y="169"/>
      <point x="358" y="149" type="curve" smooth="yes"/>
      <point x="364" y="129"/>
      <point x="376" y="119"/>
      <point x="395" y="119" type="curve" smooth="yes"/>
      <point x="423" y="119"/>
      <point x="444" y="164"/>
    </contour>
  </outline>
</glyph>
<glyph name="afii10097" format="2">
  <advance width="751"/>
  <unicode hex="044F"/>
  <outline>
    <contour>
      <point x="46" y="0" type="line"/>
      <point x="46" y="751" type="line"/>
      <point x="705" y="751" type="line"/>
      <point x="705" y="0" type="line"/>
    </contour>
    <contour>
      <point x="659" y="46" type="line"/>
      <point x="659" y="705" type="line"/>
      <point x="92" y="705" type="line"/>
      <point x="92" y="46" type="line"/>
    </contour>
  </outline>
</glyph>
<glyph name="afii10101" format="2">
  <advance width="556"/>
  <unicode hex="0454"/>
  <anchor x="437" y="623" name="Yerik"/>
  <anchor x="317" y="623" name="Above"/>
  <outline>
    <contour>
      <point x="304" y="-191" type="curve" smooth="yes"/>
      <point x="331.609" y="-191"/>
      <point x="376.326" y="-162.721"/>
      <point x="418" y="-127" type="curve"/>
      <point x="435" y="-150" type="line"/>
      <point x="355" y="-221"/>
      <point x="293" y="-244"/>
      <point x="249" y="-244" type="curve" smooth="yes"/>
      <point x="185" y="-244"/>
      <point x="150" y="-208"/>
      <point x="110" y="-144" type="curve" smooth="yes"/>
      <point x="73.4455" y="-87.3406"/>
      <point x="33" y="26.9053"/>
      <point x="33" y="120" type="curve" smooth="yes"/>
      <point x="33" y="215"/>
      <point x="67" y="299"/>
      <point x="152" y="370" type="curve" smooth="yes"/>
      <point x="195" y="405"/>
      <point x="230" y="428"/>
      <point x="259" y="437" type="curve" smooth="yes"/>
      <point x="288" y="447"/>
      <point x="315" y="452"/>
      <point x="339" y="452" type="curve" smooth="yes"/>
      <point x="415" y="452"/>
      <point x="462" y="418"/>
      <point x="493" y="386" type="curve"/>
      <point x="508" y="372" type="line"/>
      <point x="518" y="365"/>
      <point x="523" y="359"/>
      <point x="523" y="355" type="curve" smooth="yes"/>
      <point x="523" y="350"/>
      <point x="518" y="346"/>
      <point x="507" y="344" type="curve" smooth="yes"/>
      <point x="381" y="316" type="line" smooth="yes"/>
      <point x="369" y="313"/>
      <point x="363" y="317"/>
      <point x="363" y="329" type="curve" smooth="yes"/>
      <point x="363" y="366"/>
      <point x="325" y="392"/>
      <point x="286" y="392" type="curve" smooth="yes"/>
      <point x="249" y="392"/>
      <point x="213" y="370"/>
      <point x="180" y="327" type="curve" smooth="yes"/>
      <point x="147" y="284"/>
      <point x="131" y="229"/>
      <point x="131" y="163" type="curve" smooth="yes"/>
      <point x="131" y="132"/>
      <point x="135" y="102"/>
      <point x="142" y="65" type="curve"/>
      <point x="184" y="95" type="line" smooth="yes"/>
      <point x="236" y="132"/>
      <point x="288" y="171"/>
      <point x="320" y="191" type="curve" smooth="yes"/>
      <point x="353" y="211"/>
      <point x="365" y="216"/>
      <point x="381" y="216" type="curve" smooth="yes"/>
      <point x="383" y="216"/>
      <point x="384" y="216"/>
      <point x="386" y="216" type="curve" smooth="yes"/>
      <point x="408" y="216"/>
      <point x="430" y="182"/>
      <point x="484" y="112" type="curve" smooth="yes"/>
      <point x="503" y="89"/>
      <point x="515" y="76"/>
      <point x="518" y="73" type="curve" smooth="yes"/>
      <point x="526" y="66"/>
      <point x="540" y="50"/>
      <point x="540" y="45" type="curve" smooth="yes"/>
      <point x="540" y="36"/>
      <point x="527" y="33"/>
      <point x="514" y="33" type="curve" smooth="yes"/>
      <point x="498" y="33"/>
      <point x="485" y="33"/>
      <point x="474" y="33" type="curve" smooth="yes"/>
      <point x="457" y="33"/>
      <point x="443" y="33"/>
      <point x="429" y="31" type="curve" smooth="yes"/>
      <point x="410" y="29" type="line"/>
      <point x="394" y="29"/>
      <point x="388" y="37"/>
      <point x="361" y="73" type="curve" smooth="yes"/>
      <point x="334" y="110"/>
      <point x="321" y="122"/>
      <point x="305" y="122" type="curve" smooth="yes"/>
      <point x="290" y="122"/>
      <point x="260" y="107"/>
      <point x="215" y="78" type="curve" smooth="yes"/>
      <point x="171" y="49"/>
      <point x="149" y="35"/>
      <point x="148" y="35" type="curve"/>
      <point x="169" y="-48"/>
      <point x="194" y="-106"/>
      <point x="224" y="-140" type="curve" smooth="yes"/>
      <point x="254" y="-174"/>
      <point x="281" y="-191"/>
    </contour>
  </outline>
</glyph>
<glyph name="afii10102" format="2">
  <advance width="574"/>
  <unicode hex="0455"/>
  <anchor x="487" y="623" name="Yerik"/>
  <anchor x="257" y="623" name="Above"/>
  <outline>
    <contour>
      <point x="428" y="289" type="curve" smooth="yes"/>
      <point x="503.877" y="289"/>
      <point x="551" y="226.024"/>
      <point x="551" y="152" type="curve" smooth="yes"/>
      <point x="551" y="108"/>
      <point x="536" y="70"/>
      <point x="506" y="37" type="curve" smooth="yes"/>
      <point x="476" y="4"/>
      <point x="430" y="-12"/>
      <point x="369" y="-12" type="curve" smooth="yes"/>
      <point x="316" y="-12"/>
      <point x="244" y="6"/>
      <point x="195" y="21" type="curve" smooth="yes"/>
      <point x="146" y="36"/>
      <point x="142" y="36"/>
      <point x="137" y="36" type="curve" smooth="yes"/>
      <point x="128" y="36"/>
      <point x="121" y="30"/>
      <point x="118" y="18" type="curve" smooth="yes"/>
      <point x="111" y="-5"/>
      <point x="108" y="-13"/>
      <point x="89" y="-13" type="curve" smooth="yes"/>
      <point x="69" y="-13"/>
      <point x="56" y="1"/>
      <point x="56" y="24" type="curve" smooth="yes"/>
      <point x="56" y="47"/>
      <point x="70" y="77"/>
      <point x="106" y="77" type="curve" smooth="yes"/>
      <point x="126" y="77"/>
      <point x="142" y="73"/>
      <point x="146" y="73" type="curve" smooth="yes"/>
      <point x="226" y="58" type="line"/>
      <point x="283.101" y="48.4832"/>
      <point x="295.682" y="44"/>
      <point x="344" y="44" type="curve" smooth="yes"/>
      <point x="413" y="44"/>
      <point x="448" y="87"/>
      <point x="448" y="139" type="curve" smooth="yes"/>
      <point x="448" y="191"/>
      <point x="420" y="230"/>
      <point x="365" y="230" type="curve" smooth="yes"/>
      <point x="337" y="230"/>
      <point x="315" y="223"/>
      <point x="270" y="203" type="curve" smooth="yes"/>
      <point x="226" y="183"/>
      <point x="200" y="175"/>
      <point x="180" y="175" type="curve" smooth="yes"/>
      <point x="152" y="175"/>
      <point x="127" y="191"/>
      <point x="104" y="222" type="curve" smooth="yes"/>
      <point x="81" y="253"/>
      <point x="70" y="287"/>
      <point x="70" y="322" type="curve" smooth="yes"/>
      <point x="70" y="360"/>
      <point x="87" y="393"/>
      <point x="121" y="420" type="curve" smooth="yes"/>
      <point x="155" y="448"/>
      <point x="211" y="462"/>
      <point x="288" y="462" type="curve" smooth="yes"/>
      <point x="349" y="462"/>
      <point x="393" y="453"/>
      <point x="393" y="440" type="curve" smooth="yes"/>
      <point x="393" y="435"/>
      <point x="390" y="429"/>
      <point x="384" y="422" type="curve"/>
      <point x="370.009" y="400.324"/>
      <point x="355.866" y="378.8"/>
      <point x="342" y="357" type="curve"/>
      <point x="340" y="350"/>
      <point x="337" y="347"/>
      <point x="332" y="347" type="curve" smooth="yes"/>
      <point x="327" y="347"/>
      <point x="323" y="350"/>
      <point x="316" y="365" type="curve" smooth="yes"/>
      <point x="313" y="372"/>
      <point x="303" y="384"/>
      <point x="288" y="400" type="curve" smooth="yes"/>
      <point x="273" y="416"/>
      <point x="254" y="424"/>
      <point x="230" y="424" type="curve" smooth="yes"/>
      <point x="190" y="424"/>
      <point x="158" y="392"/>
      <point x="158" y="345" type="curve" smooth="yes"/>
      <point x="158" y="293"/>
      <point x="197" y="246"/>
      <point x="242" y="246" type="curve" smooth="yes"/>
      <point x="290.389" y="246"/>
      <point x="374.004" y="289"/>
    </contour>
  </outline>
</glyph>
<glyph name="afii10103" format="2">
  <advance width="278"/>
  <unicode hex="0456"/>
  <anchor x="147" y="623" name="Yerik"/>
  <anchor x="147" y="623" name="Above"/>
  <outline>
    <contour>
      <point x="198" y="0" type="curve"/>
      <point x="84" y="0" type="line"/>
      <point x="84" y="9"/>
      <point x="83" y="34"/>
      <point x="82" y="73" type="curve" smooth="yes"/>
      <point x="81" y="112"/>
      <point x="80" y="148"/>
      <point x="80" y="179" type="curve" smooth="yes"/>
      <point x="80" y="238"/>
      <point x="81" y="287"/>
      <point x="83" y="326" type="curve" smooth="yes"/>
      <point x="85" y="365"/>
      <point x="88" y="407"/>
      <point x="92" y="451" type="curve"/>
      <point x="203" y="451" type="line"/>
      <point x="199" y="415"/>
      <point x="196" y="381"/>
      <point x="194" y="349" type="curve" smooth="yes"/>
      <point x="193" y="318"/>
      <point x="192" y="269"/>
      <point x="192" y="202" type="curve" smooth="yes"/>
      <point x="192" y="162"/>
      <point x="193" y="121"/>
      <point x="195" y="79" type="curve" smooth="yes"/>
      <point x="197" y="37"/>
      <point x="198" y="11"/>
    </contour>
  </outline>
</glyph>
<glyph name="uni0460" format="2">
  <advance width="866"/>
  <unicode hex="0460"/>
  <anchor x="469" y="680" name="Above"/>
  <anchor x="718" y="680" name="Yerik"/>
  <outline>
    <contour>
      <point x="598" y="-11" type="curve"/>
      <point x="598" y="-11"/>
      <point x="592.626" y="-12.625"/>
      <point x="588.833" y="-12.625" type="curve" smooth="yes"/>
      <point x="585.001" y="-12.625"/>
      <point x="579" y="-11"/>
      <point x="579" y="-11" type="curve"/>
      <point x="513" y="17"/>
      <point x="457" y="63"/>
      <point x="410" y="124" type="curve"/>
      <point x="333" y="64"/>
      <point x="276" y="20"/>
      <point x="235" y="-8" type="curve" smooth="yes"/>
      <point x="231" y="-10"/>
      <point x="228" y="-11"/>
      <point x="226" y="-11" type="curve" smooth="yes"/>
      <point x="223" y="-11"/>
      <point x="220" y="-10"/>
      <point x="218" y="-8" type="curve" smooth="yes"/>
      <point x="90" y="84"/>
      <point x="26" y="209"/>
      <point x="26" y="369" type="curve" smooth="yes"/>
      <point x="26" y="465"/>
      <point x="51" y="575"/>
      <point x="96" y="631" type="curve"/>
      <point x="220" y="631" type="line" smooth="yes"/>
      <point x="224.551" y="631"/>
      <point x="230.645" y="624.323"/>
      <point x="226" y="622" type="curve" smooth="yes"/>
      <point x="176" y="539"/>
      <point x="150" y="448"/>
      <point x="150" y="349" type="curve" smooth="yes"/>
      <point x="150" y="345" type="line" smooth="yes"/>
      <point x="150" y="221.373"/>
      <point x="193.477" y="94.7402"/>
      <point x="260" y="38" type="curve"/>
      <point x="339" y="98"/>
      <point x="385" y="133"/>
      <point x="396" y="143" type="curve"/>
      <point x="350" y="210"/>
      <point x="327" y="294"/>
      <point x="327" y="394" type="curve" smooth="yes"/>
      <point x="327" y="481"/>
      <point x="359" y="588"/>
      <point x="408" y="631" type="curve"/>
      <point x="537" y="631" type="line" smooth="yes"/>
      <point x="542.563" y="631"/>
      <point x="548.397" y="624.795"/>
      <point x="546" y="620" type="curve" smooth="yes"/>
      <point x="496" y="538"/>
      <point x="471" y="438"/>
      <point x="471" y="320" type="curve" smooth="yes"/>
      <point x="471" y="223"/>
      <point x="493" y="148"/>
      <point x="537" y="94" type="curve" smooth="yes"/>
      <point x="557.287" y="72.0229"/>
      <point x="593.329" y="45.7632"/>
      <point x="624" y="37" type="curve"/>
      <point x="651" y="54"/>
      <point x="672" y="76"/>
      <point x="682" y="102" type="curve" smooth="yes"/>
      <point x="709" y="165"/>
      <point x="723" y="236"/>
      <point x="723" y="315" type="curve" smooth="yes"/>
      <point x="723" y="324" type="line" smooth="yes"/>
      <point x="723" y="417"/>
      <point x="693" y="576"/>
      <point x="646" y="622" type="curve" smooth="yes"/>
      <point x="642.269" y="625.731"/>
      <point x="648.825" y="631"/>
      <point x="652" y="631" type="curve" smooth="yes"/>
      <point x="770" y="631" type="line"/>
      <point x="817" y="592"/>
      <point x="841" y="511"/>
      <point x="841" y="387" type="curve" smooth="yes"/>
      <point x="841" y="303"/>
      <point x="818" y="225"/>
      <point x="772" y="153" type="curve" smooth="yes"/>
      <point x="728" y="80"/>
      <point x="669" y="26"/>
    </contour>
  </outline>
</glyph>
<glyph name="afii10146" format="2">
  <advance width="726"/>
  <unicode hex="0462"/>
  <anchor x="568" y="680" name="Yerik"/>
  <anchor x="357" y="680" name="Above"/>
  <outline>
    <contour>
      <point x="236" y="0" type="line"/>
      <point x="236" y="21" type="line"/>
      <point x="303" y="21" type="line"/>
      <point x="303" y="522" type="line"/>
      <point x="179" y="522" type="line"/>
      <point x="179" y="279" type="line"/>
      <point x="229" y="279" type="line"/>
      <point x="229" y="259" type="line"/>
      <point x="21" y="259" type="line"/>
      <point x="21" y="279" type="line"/>
      <point x="75" y="279" type="line"/>
      <point x="75" y="344"/>
      <point x="75" y="409"/>
      <point x="75" y="474" type="curve" smooth="yes"/>
      <point x="75" y="505"/>
      <point x="74" y="510"/>
      <point x="62" y="518" type="curve" smooth="yes"/>
      <point x="51" y="526"/>
      <point x="40" y="533"/>
      <point x="40" y="542" type="curve" smooth="yes"/>
      <point x="40" y="542"/>
      <point x="40" y="543"/>
      <point x="40" y="543" type="curve"/>
      <point x="303" y="543" type="line"/>
      <point x="303" y="607" type="line"/>
      <point x="252" y="607" type="line"/>
      <point x="252" y="628" type="line"/>
      <point x="469" y="628" type="line"/>
      <point x="469" y="607" type="line"/>
      <point x="416" y="607" type="line"/>
      <point x="416" y="543" type="line"/>
      <point x="649" y="543" type="line" smooth="yes"/>
      <point x="653" y="543"/>
      <point x="655" y="539"/>
      <point x="656" y="538" type="curve"/>
      <point x="653" y="527" type="line"/>
      <point x="644" y="512"/>
      <point x="631" y="485"/>
      <point x="627" y="470" type="curve"/>
      <point x="605" y="409" type="line" smooth="yes"/>
      <point x="602" y="401"/>
      <point x="598" y="397"/>
      <point x="593" y="397" type="curve" smooth="yes"/>
      <point x="579" y="397"/>
      <point x="548" y="475"/>
      <point x="539" y="498" type="curve" smooth="yes"/>
      <point x="529.467" y="520.533"/>
      <point x="524.44" y="522.036"/>
      <point x="497.231" y="522.036" type="curve" smooth="yes"/>
      <point x="493.044" y="522.036"/>
      <point x="488.333" y="522"/>
      <point x="483" y="522" type="curve" smooth="yes"/>
      <point x="416" y="522" type="line"/>
      <point x="416" y="377" type="line"/>
      <point x="469" y="347"/>
      <point x="512" y="326"/>
      <point x="545" y="314" type="curve" smooth="yes"/>
      <point x="578" y="303"/>
      <point x="619" y="297"/>
      <point x="670" y="297" type="curve"/>
      <point x="670" y="37" type="line" smooth="yes"/>
      <point x="670" y="26"/>
      <point x="670" y="17"/>
      <point x="672" y="15" type="curve" smooth="yes"/>
      <point x="680" y="4" type="line"/>
      <point x="680" y="0" type="line"/>
    </contour>
    <contour>
      <point x="416" y="352" type="curve"/>
      <point x="416" y="21" type="line"/>
      <point x="559" y="21" type="line"/>
      <point x="559" y="290" type="line"/>
      <point x="494" y="308"/>
      <point x="476" y="317"/>
    </contour>
  </outline>
</glyph>
<glyph name="uni0465" format="2">
  <advance width="548"/>
  <unicode hex="0465"/>
  <anchor x="447" y="623" name="Yerik"/>
  <anchor x="297" y="623" name="Above"/>
  <outline>
    <contour>
      <point x="295" y="-1" type="line"/>
      <point x="295" y="265" type="line" smooth="yes"/>
      <point x="295" y="265"/>
      <point x="295.041" y="277.589"/>
      <point x="295.129" y="283.555" type="curve"/>
      <point x="175" y="255" type="line"/>
      <point x="175" y="148"/>
      <point x="179" y="63"/>
      <point x="187" y="0" type="curve"/>
      <point x="79" y="0" type="line"/>
      <point x="76" y="25"/>
      <point x="74" y="56"/>
      <point x="73" y="94" type="curve" smooth="yes"/>
      <point x="72" y="133"/>
      <point x="71" y="166"/>
      <point x="71" y="194" type="curve" smooth="yes"/>
      <point x="71" y="251"/>
      <point x="72" y="298"/>
      <point x="73" y="333" type="curve" smooth="yes"/>
      <point x="75" y="369"/>
      <point x="79" y="408"/>
      <point x="85" y="451" type="curve"/>
      <point x="196" y="451" type="line"/>
      <point x="183" y="383"/>
      <point x="176" y="329"/>
      <point x="176" y="282" type="curve"/>
      <point x="295.933" y="310.784" type="line"/>
      <point x="299.513" y="386.953"/>
      <point x="314.221" y="421.073"/>
      <point x="354" y="438" type="curve" smooth="yes"/>
      <point x="377" y="449"/>
      <point x="398" y="455"/>
      <point x="415" y="458" type="curve" smooth="yes"/>
      <point x="433" y="461"/>
      <point x="461" y="462"/>
      <point x="498" y="462" type="curve"/>
      <point x="498" y="399" type="line" smooth="yes"/>
      <point x="497" y="393"/>
      <point x="484" y="388"/>
      <point x="457" y="385" type="curve" smooth="yes"/>
      <point x="404" y="380"/>
      <point x="383" y="350"/>
      <point x="383" y="287" type="curve" smooth="yes"/>
      <point x="383" y="259" type="line"/>
      <point x="488" y="299" type="line"/>
      <point x="488" y="237" type="line" smooth="yes"/>
      <point x="488" y="213"/>
      <point x="484" y="208"/>
      <point x="449" y="195" type="curve" smooth="yes"/>
      <point x="384" y="172" type="line"/>
      <point x="384" y="78" type="line"/>
      <point x="402.667" y="87.3333"/>
      <point x="421.333" y="96.6667"/>
      <point x="440" y="106" type="curve" smooth="yes"/>
      <point x="451" y="111"/>
      <point x="457" y="114"/>
      <point x="460" y="114" type="curve" smooth="yes"/>
      <point x="467" y="114"/>
      <point x="471" y="109"/>
      <point x="471" y="100" type="curve" smooth="yes"/>
      <point x="471" y="83"/>
      <point x="458" y="61"/>
      <point x="432" y="35" type="curve" smooth="yes"/>
      <point x="407" y="10"/>
      <point x="372" y="-3"/>
      <point x="328" y="-3" type="curve" smooth="yes"/>
    </contour>
  </outline>
</glyph>
<glyph name="uni0466" format="2">
  <advance width="744"/>
  <unicode hex="0466"/>
  <anchor x="588" y="680" name="Yerik"/>
  <anchor x="359" y="680" name="Above"/>
  <outline>
    <contour>
      <point x="472" y="0" type="line"/>
      <point x="262" y="0" type="line"/>
      <point x="262" y="21" type="line"/>
      <point x="316" y="21" type="line"/>
      <point x="316" y="291" type="line"/>
      <point x="232" y="291" type="line"/>
      <point x="189" y="232"/>
      <point x="158" y="179"/>
      <point x="158" y="106" type="curve" smooth="yes"/>
      <point x="158" y="70"/>
      <point x="168" y="50"/>
      <point x="188" y="21" type="curve"/>
      <point x="231" y="21" type="line"/>
      <point x="231" y="0" type="line"/>
      <point x="21" y="0" type="line"/>
      <point x="21" y="21" type="line"/>
      <point x="75" y="21" type="line"/>
      <point x="59" y="61"/>
      <point x="55" y="88"/>
      <point x="55" y="117" type="curve" smooth="yes"/>
      <point x="55" y="174"/>
      <point x="71" y="221"/>
      <point x="103" y="260" type="curve" smooth="yes"/>
      <point x="136" y="299"/>
      <point x="172" y="338"/>
      <point x="213" y="379" type="curve" smooth="yes"/>
      <point x="254" y="420"/>
      <point x="281" y="458"/>
      <point x="292" y="493" type="curve" smooth="yes"/>
      <point x="304" y="528"/>
      <point x="310" y="566"/>
      <point x="310" y="607" type="curve"/>
      <point x="261" y="607" type="line"/>
      <point x="261" y="628" type="line"/>
      <point x="475" y="628" type="line"/>
      <point x="475" y="607" type="line"/>
      <point x="425" y="607" type="line"/>
      <point x="425" y="568"/>
      <point x="432" y="534"/>
      <point x="445" y="505" type="curve" smooth="yes"/>
      <point x="458" y="476"/>
      <point x="488" y="438"/>
      <point x="533" y="390" type="curve" smooth="yes"/>
      <point x="579" y="343"/>
      <point x="615" y="301"/>
      <point x="642" y="266" type="curve" smooth="yes"/>
      <point x="669" y="231"/>
      <point x="683" y="182"/>
      <point x="683" y="118" type="curve" smooth="yes"/>
      <point x="683" y="95"/>
      <point x="682" y="79"/>
      <point x="680" y="69" type="curve" smooth="yes"/>
      <point x="679" y="60"/>
      <point x="675" y="44"/>
      <point x="668" y="21" type="curve"/>
      <point x="723" y="21" type="line"/>
      <point x="723" y="0" type="line"/>
      <point x="504" y="0" type="line"/>
      <point x="504" y="21" type="line"/>
      <point x="552" y="21" type="line"/>
      <point x="565" y="50"/>
      <point x="572" y="72"/>
      <point x="572" y="107" type="curve" smooth="yes"/>
      <point x="572" y="138"/>
      <point x="567" y="165"/>
      <point x="558" y="190" type="curve" smooth="yes"/>
      <point x="549" y="215"/>
      <point x="525" y="248"/>
      <point x="488" y="291" type="curve"/>
      <point x="419" y="291" type="line"/>
      <point x="419" y="21" type="line"/>
      <point x="472" y="21" type="line"/>
    </contour>
    <contour>
      <point x="245" y="313" type="curve"/>
      <point x="471" y="313" type="line"/>
      <point x="450" y="331"/>
      <point x="433" y="346"/>
      <point x="421" y="357" type="curve" smooth="yes"/>
      <point x="398" y="380"/>
      <point x="372" y="417"/>
      <point x="352" y="458" type="curve" smooth="yes"/>
      <point x="325" y="520"/>
      <point x="340" y="522"/>
      <point x="326" y="526" type="curve" smooth="yes"/>
      <point x="319" y="526"/>
      <point x="317" y="506"/>
      <point x="317" y="502" type="curve" smooth="yes"/>
      <point x="317" y="451"/>
      <point x="294" y="390"/>
    </contour>
  </outline>
</glyph>
<glyph name="uni0467" format="2">
  <advance width="611"/>
  <unicode hex="0467"/>
  <anchor x="287" y="623" name="Yerik"/>
  <anchor x="287" y="623" name="Above"/>
  <outline>
    <contour>
      <point x="236" y="451" type="line"/>
      <point x="362" y="451" type="line"/>
      <point x="365" y="414"/>
      <point x="373" y="384"/>
      <point x="384" y="360" type="curve" smooth="yes"/>
      <point x="396" y="336"/>
      <point x="422" y="300"/>
      <point x="462" y="253" type="curve" smooth="yes"/>
      <point x="503" y="206"/>
      <point x="532" y="165"/>
      <point x="549" y="128" type="curve" smooth="yes"/>
      <point x="566" y="91"/>
      <point x="579" y="49"/>
      <point x="588" y="0" type="curve"/>
      <point x="473" y="0" type="line"/>
      <point x="473" y="77"/>
      <point x="438" y="132"/>
      <point x="390" y="193" type="curve"/>
      <point x="340" y="193" type="line"/>
      <point x="340" y="113"/>
      <point x="342" y="53"/>
      <point x="343" y="0" type="curve"/>
      <point x="242" y="0" type="line"/>
      <point x="242" y="19"/>
      <point x="246" y="93"/>
      <point x="246" y="193" type="curve"/>
      <point x="186" y="193" type="line"/>
      <point x="147" y="149"/>
      <point x="127" y="105"/>
      <point x="127" y="42" type="curve" smooth="yes"/>
      <point x="129" y="0" type="line"/>
      <point x="31" y="0" type="line"/>
      <point x="31" y="55"/>
      <point x="40" y="98"/>
      <point x="57" y="130" type="curve" smooth="yes"/>
      <point x="75" y="163"/>
      <point x="104" y="199"/>
      <point x="144" y="240" type="curve" smooth="yes"/>
      <point x="185" y="281"/>
      <point x="211" y="311"/>
      <point x="222" y="330" type="curve" smooth="yes"/>
      <point x="234" y="349"/>
      <point x="240" y="373"/>
      <point x="240" y="402" type="curve" smooth="yes"/>
    </contour>
    <contour>
      <point x="198" y="214" type="curve"/>
      <point x="376" y="214" type="line"/>
      <point x="363" y="229"/>
      <point x="349" y="247"/>
      <point x="333" y="269" type="curve" smooth="yes"/>
      <point x="317" y="292"/>
      <point x="306" y="308"/>
      <point x="301" y="318" type="curve" smooth="yes"/>
      <point x="290" y="338"/>
      <point x="287" y="342"/>
      <point x="282" y="342" type="curve" smooth="yes"/>
      <point x="270" y="342"/>
      <point x="272" y="296"/>
    </contour>
  </outline>
</glyph>
<glyph name="uni0468" format="2">
  <advance width="1000"/>
  <unicode hex="0468"/>
  <anchor x="629" y="680" name="Above"/>
  <anchor x="888" y="680" name="Yerik"/>
  <outline>
    <contour>
      <point x="812" y="21" type="line"/>
      <point x="825.98" y="54.2028"/>
      <point x="833" y="73.8111"/>
      <point x="833" y="114" type="curve" smooth="yes"/>
      <point x="833" y="141"/>
      <point x="828" y="168"/>
      <point x="818" y="195" type="curve" smooth="yes"/>
      <point x="807" y="222"/>
      <point x="785" y="254"/>
      <point x="752" y="291" type="curve"/>
      <point x="683" y="291" type="line"/>
      <point x="683" y="21" type="line"/>
      <point x="732" y="21" type="line"/>
      <point x="732" y="0" type="line"/>
      <point x="524" y="0" type="line"/>
      <point x="524" y="21" type="line"/>
      <point x="576" y="21" type="line"/>
      <point x="576" y="291" type="line"/>
      <point x="495" y="291" type="line"/>
      <point x="463" y="241"/>
      <point x="443" y="206"/>
      <point x="436" y="184" type="curve" smooth="yes"/>
      <point x="428" y="164"/>
      <point x="424" y="142"/>
      <point x="424" y="120" type="curve" smooth="yes"/>
      <point x="424" y="75.2415"/>
      <point x="432.254" y="55.0842"/>
      <point x="451" y="21" type="curve"/>
      <point x="492" y="21" type="line"/>
      <point x="492" y="0" type="line"/>
      <point x="288" y="0" type="line"/>
      <point x="288" y="21" type="line"/>
      <point x="337" y="21" type="line"/>
      <point x="322.942" y="55.14"/>
      <point x="317" y="75.6331"/>
      <point x="317" y="123" type="curve" smooth="yes"/>
      <point x="317" y="164"/>
      <point x="329" y="205"/>
      <point x="352" y="244" type="curve" smooth="yes"/>
      <point x="376" y="284"/>
      <point x="418" y="323"/>
      <point x="478" y="362" type="curve"/>
      <point x="478" y="369" type="line"/>
      <point x="162" y="369" type="line"/>
      <point x="162" y="211" type="line" smooth="yes"/>
      <point x="162" y="140"/>
      <point x="166" y="92"/>
      <point x="173" y="70" type="curve" smooth="yes"/>
      <point x="180" y="46"/>
      <point x="201" y="30"/>
      <point x="235" y="21" type="curve"/>
      <point x="235" y="0" type="line"/>
      <point x="10" y="0" type="line"/>
      <point x="10" y="21" type="line"/>
      <point x="44" y="30"/>
      <point x="65" y="45"/>
      <point x="72" y="67" type="curve" smooth="yes"/>
      <point x="80" y="89"/>
      <point x="84" y="137"/>
      <point x="84" y="211" type="curve" smooth="yes"/>
      <point x="84" y="417" type="line" smooth="yes"/>
      <point x="84" y="489"/>
      <point x="80" y="536"/>
      <point x="73" y="559" type="curve" smooth="yes"/>
      <point x="66" y="582"/>
      <point x="45" y="598"/>
      <point x="10" y="607" type="curve"/>
      <point x="10" y="628" type="line"/>
      <point x="235" y="628" type="line"/>
      <point x="235" y="607" type="line"/>
      <point x="195" y="596"/>
      <point x="173" y="575"/>
      <point x="168" y="546" type="curve" smooth="yes"/>
      <point x="164" y="517"/>
      <point x="162" y="474"/>
      <point x="162" y="417" type="curve" smooth="yes"/>
      <point x="162" y="401" type="line"/>
      <point x="499" y="401" type="line"/>
      <point x="526" y="441"/>
      <point x="545" y="475"/>
      <point x="556" y="502" type="curve" smooth="yes"/>
      <point x="566" y="529"/>
      <point x="571" y="564"/>
      <point x="571" y="607" type="curve"/>
      <point x="522" y="607" type="line"/>
      <point x="522" y="628" type="line"/>
      <point x="737" y="628" type="line"/>
      <point x="737" y="607" type="line"/>
      <point x="687" y="607" type="line"/>
      <point x="687" y="582"/>
      <point x="691" y="554"/>
      <point x="700" y="525" type="curve" smooth="yes"/>
      <point x="709" y="496"/>
      <point x="734" y="460"/>
      <point x="774" y="420" type="curve" smooth="yes"/>
      <point x="816" y="378"/>
      <point x="846" y="346"/>
      <point x="866" y="322" type="curve" smooth="yes"/>
      <point x="898.234" y="282.98"/>
      <point x="922.059" y="237.765"/>
      <point x="935" y="186" type="curve" smooth="yes"/>
      <point x="940" y="165"/>
      <point x="942" y="140"/>
      <point x="942" y="111" type="curve" smooth="yes"/>
      <point x="942" y="68.7391"/>
      <point x="939.27" y="56.1492"/>
      <point x="931" y="21" type="curve"/>
      <point x="981" y="21" type="line"/>
      <point x="981" y="0" type="line"/>
      <point x="765" y="0" type="line"/>
      <point x="765" y="21" type="line"/>
    </contour>
    <contour>
      <point x="505" y="313" type="curve"/>
      <point x="732" y="313" type="line"/>
      <point x="686" y="355"/>
      <point x="655" y="388"/>
      <point x="640" y="412" type="curve" smooth="yes"/>
      <point x="625" y="437"/>
      <point x="614" y="461"/>
      <point x="606" y="486" type="curve" smooth="yes"/>
      <point x="600" y="511"/>
      <point x="595" y="524"/>
      <point x="594" y="526" type="curve" smooth="yes"/>
      <point x="593" y="529"/>
      <point x="590" y="530"/>
      <point x="586" y="530" type="curve" smooth="yes"/>
      <point x="581" y="530"/>
      <point x="579" y="526"/>
      <point x="579" y="517" type="curve" smooth="yes"/>
      <point x="579" y="482"/>
      <point x="573" y="448"/>
      <point x="560" y="416" type="curve" smooth="yes"/>
      <point x="547" y="383"/>
      <point x="529" y="349"/>
    </contour>
  </outline>
</glyph>
<glyph name="uni046A" format="2">
  <advance width="741"/>
  <unicode hex="046A"/>
  <anchor x="369" y="680" name="Above"/>
  <anchor x="618" y="680" name="Yerik"/>
  <outline>
    <contour>
      <point x="518" y="21" type="line"/>
      <point x="557" y="21"/>
      <point x="559" y="28"/>
      <point x="559" y="65" type="curve" smooth="yes"/>
      <point x="559" y="151"/>
      <point x="550" y="220"/>
      <point x="533" y="271" type="curve" smooth="yes"/>
      <point x="516" y="322"/>
      <point x="479" y="358"/>
      <point x="424" y="377" type="curve"/>
      <point x="424" y="42" type="line"/>
      <point x="426" y="25"/>
      <point x="428" y="25"/>
      <point x="442" y="22" type="curve" smooth="yes"/>
      <point x="448" y="21"/>
      <point x="457" y="21"/>
      <point x="470" y="21" type="curve"/>
      <point x="470" y="0" type="line"/>
      <point x="273" y="0" type="line"/>
      <point x="273" y="21" type="line"/>
      <point x="306" y="22" type="line"/>
      <point x="315" y="23.5"/>
      <point x="316.125" y="40.1875"/>
      <point x="316.125" y="56.0312" type="curve" smooth="yes"/>
      <point x="316.125" y="61.3125"/>
      <point x="316" y="66.5"/>
      <point x="316" y="71" type="curve" smooth="yes"/>
      <point x="316" y="379" type="line"/>
      <point x="274" y="370"/>
      <point x="241" y="338"/>
      <point x="217" y="286" type="curve" smooth="yes"/>
      <point x="193" y="232"/>
      <point x="181" y="163"/>
      <point x="181" y="78" type="curve" smooth="yes"/>
      <point x="181" y="50"/>
      <point x="183" y="34"/>
      <point x="187" y="28" type="curve" smooth="yes"/>
      <point x="191" y="24"/>
      <point x="203" y="21"/>
      <point x="224" y="21" type="curve"/>
      <point x="224" y="0" type="line"/>
      <point x="15" y="0" type="line"/>
      <point x="15" y="21" type="line"/>
      <point x="33" y="21"/>
      <point x="44" y="23"/>
      <point x="48" y="27" type="curve" smooth="yes"/>
      <point x="52" y="31"/>
      <point x="56" y="52"/>
      <point x="61" y="88" type="curve" smooth="yes"/>
      <point x="73" y="181"/>
      <point x="86" y="225"/>
      <point x="136" y="293" type="curve" smooth="yes"/>
      <point x="185" y="360"/>
      <point x="239" y="390"/>
      <point x="323" y="410" type="curve"/>
      <point x="202" y="577" type="line" smooth="yes"/>
      <point x="194" y="588"/>
      <point x="180" y="608"/>
      <point x="180" y="614" type="curve" smooth="yes"/>
      <point x="180" y="624"/>
      <point x="192" y="627"/>
      <point x="202" y="627" type="curve" smooth="yes"/>
      <point x="237" y="628" type="line"/>
      <point x="488" y="628" type="line" smooth="yes"/>
      <point x="518" y="628"/>
      <point x="535" y="628"/>
      <point x="540" y="626" type="curve" smooth="yes"/>
      <point x="545" y="626"/>
      <point x="547" y="621"/>
      <point x="547" y="614" type="curve" smooth="yes"/>
      <point x="547" y="610"/>
      <point x="546" y="606"/>
      <point x="544" y="602" type="curve" smooth="yes"/>
      <point x="542" y="599"/>
      <point x="537" y="591"/>
      <point x="528" y="579" type="curve" smooth="yes"/>
      <point x="405" y="413" type="line"/>
      <point x="438" y="405"/>
      <point x="471" y="393"/>
      <point x="504" y="378" type="curve" smooth="yes"/>
      <point x="571" y="347"/>
      <point x="630" y="267"/>
      <point x="656" y="192" type="curve" smooth="yes"/>
      <point x="668" y="153"/>
      <point x="677" y="109"/>
      <point x="682" y="62" type="curve" smooth="yes"/>
      <point x="682" y="26"/>
      <point x="690" y="21"/>
      <point x="727" y="21" type="curve"/>
      <point x="727" y="0" type="line"/>
      <point x="518" y="0" type="line"/>
    </contour>
    <contour>
      <point x="487" y="587" type="curve" smooth="yes"/>
      <point x="487" y="599.25"/>
      <point x="470.156" y="600.016"/>
      <point x="452.547" y="600.016" type="curve" smooth="yes"/>
      <point x="450.031" y="600.016"/>
      <point x="447.5" y="600"/>
      <point x="445" y="600" type="curve" smooth="yes"/>
      <point x="301" y="600" type="line" smooth="yes"/>
      <point x="281" y="600"/>
      <point x="268" y="600"/>
      <point x="262" y="598" type="curve" smooth="yes"/>
      <point x="255" y="598"/>
      <point x="252" y="594"/>
      <point x="252" y="587" type="curve" smooth="yes"/>
      <point x="252" y="584"/>
      <point x="255" y="578"/>
      <point x="260" y="569" type="curve"/>
      <point x="368" y="416" type="line"/>
      <point x="471" y="557" type="line" smooth="yes"/>
      <point x="474" y="560"/>
      <point x="487" y="581"/>
    </contour>
  </outline>
</glyph>
<glyph name="uni046C" format="2">
  <advance width="1000"/>
  <unicode hex="046C"/>
  <anchor x="639" y="680" name="Above"/>
  <anchor x="878" y="680" name="Yerik"/>
  <outline>
    <contour>
      <point x="730" y="0" type="line"/>
      <point x="548" y="0" type="line"/>
      <point x="548" y="21" type="line"/>
      <point x="565" y="21"/>
      <point x="575" y="24"/>
      <point x="578" y="30" type="curve" smooth="yes"/>
      <point x="581" y="35"/>
      <point x="583" y="49"/>
      <point x="583" y="72" type="curve" smooth="yes"/>
      <point x="583" y="377" type="line"/>
      <point x="536" y="357"/>
      <point x="502" y="322"/>
      <point x="481" y="273" type="curve" smooth="yes"/>
      <point x="460" y="224"/>
      <point x="449" y="156"/>
      <point x="449" y="71" type="curve" smooth="yes"/>
      <point x="449" y="49"/>
      <point x="451" y="35"/>
      <point x="454" y="30" type="curve" smooth="yes"/>
      <point x="457" y="24"/>
      <point x="467" y="21"/>
      <point x="483" y="21" type="curve"/>
      <point x="483" y="0" type="line"/>
      <point x="289" y="0" type="line"/>
      <point x="289" y="21" type="line"/>
      <point x="304" y="22"/>
      <point x="313" y="26"/>
      <point x="316" y="32" type="curve" smooth="yes"/>
      <point x="320" y="38"/>
      <point x="324" y="67"/>
      <point x="330" y="120" type="curve" smooth="yes"/>
      <point x="334" y="173"/>
      <point x="353" y="220"/>
      <point x="384" y="263" type="curve" smooth="yes"/>
      <point x="416" y="306"/>
      <point x="459" y="340"/>
      <point x="512" y="367" type="curve"/>
      <point x="168" y="369" type="line"/>
      <point x="168" y="211" type="line" smooth="yes"/>
      <point x="168" y="139"/>
      <point x="172" y="92"/>
      <point x="179" y="70" type="curve" smooth="yes"/>
      <point x="186" y="47"/>
      <point x="207" y="31"/>
      <point x="242" y="21" type="curve"/>
      <point x="242" y="0" type="line"/>
      <point x="17" y="0" type="line"/>
      <point x="17" y="21" type="line"/>
      <point x="57" y="32"/>
      <point x="79" y="53"/>
      <point x="84" y="82" type="curve" smooth="yes"/>
      <point x="88" y="111"/>
      <point x="90" y="154"/>
      <point x="90" y="211" type="curve" smooth="yes"/>
      <point x="90" y="417" type="line" smooth="yes"/>
      <point x="90" y="488"/>
      <point x="86" y="536"/>
      <point x="79" y="558" type="curve" smooth="yes"/>
      <point x="72" y="582"/>
      <point x="51" y="598"/>
      <point x="17" y="607" type="curve"/>
      <point x="17" y="628" type="line"/>
      <point x="242" y="628" type="line"/>
      <point x="242" y="607" type="line"/>
      <point x="207" y="598"/>
      <point x="186" y="582"/>
      <point x="179" y="560" type="curve" smooth="yes"/>
      <point x="172" y="537"/>
      <point x="168" y="490"/>
      <point x="168" y="417" type="curve" smooth="yes"/>
      <point x="168" y="400" type="line"/>
      <point x="602" y="400" type="line"/>
      <point x="469" y="584" type="line" smooth="yes"/>
      <point x="458" y="600"/>
      <point x="452" y="611"/>
      <point x="452" y="616" type="curve" smooth="yes"/>
      <point x="452" y="622"/>
      <point x="459" y="626"/>
      <point x="472" y="627" type="curve" smooth="yes"/>
      <point x="496" y="628" type="line"/>
      <point x="781" y="628" type="line" smooth="yes"/>
      <point x="795" y="628"/>
      <point x="804" y="627"/>
      <point x="810" y="626" type="curve" smooth="yes"/>
      <point x="814" y="625"/>
      <point x="817" y="621"/>
      <point x="817" y="614" type="curve" smooth="yes"/>
      <point x="817" y="610"/>
      <point x="811" y="599"/>
      <point x="799" y="582" type="curve" smooth="yes"/>
      <point x="663" y="399" type="line"/>
      <point x="704" y="399"/>
      <point x="738" y="392"/>
      <point x="766" y="380" type="curve" smooth="yes"/>
      <point x="792" y="366"/>
      <point x="818" y="348"/>
      <point x="844" y="322" type="curve" smooth="yes"/>
      <point x="868" y="298"/>
      <point x="890" y="265"/>
      <point x="908" y="226" type="curve" smooth="yes"/>
      <point x="927" y="186"/>
      <point x="938" y="145"/>
      <point x="942" y="104" type="curve" smooth="yes"/>
      <point x="946" y="63"/>
      <point x="950" y="38"/>
      <point x="954" y="32" type="curve" smooth="yes"/>
      <point x="959" y="24"/>
      <point x="969" y="21"/>
      <point x="984" y="21" type="curve"/>
      <point x="984" y="0" type="line"/>
      <point x="791" y="0" type="line"/>
      <point x="791" y="21" type="line"/>
      <point x="806" y="21"/>
      <point x="816" y="24"/>
      <point x="819" y="29" type="curve" smooth="yes"/>
      <point x="822" y="34"/>
      <point x="824" y="46"/>
      <point x="824" y="65" type="curve" smooth="yes"/>
      <point x="824" y="112"/>
      <point x="821" y="152"/>
      <point x="816" y="187" type="curve" smooth="yes"/>
      <point x="810" y="222"/>
      <point x="800" y="254"/>
      <point x="786" y="284" type="curve" smooth="yes"/>
      <point x="772" y="314"/>
      <point x="758" y="335"/>
      <point x="743" y="347" type="curve" smooth="yes"/>
      <point x="728" y="359"/>
      <point x="712" y="369"/>
      <point x="693" y="376" type="curve"/>
      <point x="693" y="73" type="line" smooth="yes"/>
      <point x="693" y="52"/>
      <point x="694" y="38"/>
      <point x="696" y="32" type="curve" smooth="yes"/>
      <point x="697" y="24"/>
      <point x="709" y="21"/>
      <point x="730" y="21" type="curve"/>
    </contour>
    <contour>
      <point x="755" y="588" type="curve" smooth="yes"/>
      <point x="755" y="598.889"/>
      <point x="742.296" y="600.099"/>
      <point x="727.24" y="600.099" type="curve" smooth="yes"/>
      <point x="722.938" y="600.099"/>
      <point x="718.444" y="600"/>
      <point x="714" y="600" type="curve" smooth="yes"/>
      <point x="570" y="600" type="line" smooth="yes"/>
      <point x="547" y="600"/>
      <point x="533" y="600"/>
      <point x="529" y="598" type="curve" smooth="yes"/>
      <point x="525" y="598"/>
      <point x="523" y="594"/>
      <point x="523" y="588" type="curve" smooth="yes"/>
      <point x="523" y="581"/>
      <point x="530" y="573"/>
      <point x="530" y="570" type="curve" smooth="yes"/>
      <point x="567" y="521"/>
      <point x="601" y="469"/>
      <point x="637" y="419" type="curve"/>
      <point x="737" y="554" type="line" smooth="yes"/>
      <point x="742" y="560"/>
      <point x="755" y="578"/>
    </contour>
  </outline>
</glyph>
<glyph name="uni046D" format="2">
  <advance width="963"/>
  <unicode hex="046D"/>
  <anchor x="597" y="623" name="Above"/>
  <anchor x="837" y="623" name="Yerik"/>
  <outline>
    <contour>
      <point x="639" y="231" type="curve"/>
      <point x="639" y="184"/>
      <point x="644" y="42"/>
      <point x="644" y="0" type="curve"/>
      <point x="532" y="0" type="line"/>
      <point x="533" y="246" type="line"/>
      <point x="438" y="219"/>
      <point x="358" y="121"/>
      <point x="358" y="0" type="curve"/>
      <point x="248" y="0" type="line"/>
      <point x="264" y="56"/>
      <point x="288" y="107"/>
      <point x="319" y="154" type="curve" smooth="yes"/>
      <point x="350" y="201"/>
      <point x="403" y="237"/>
      <point x="478" y="263" type="curve"/>
      <point x="168" y="265" type="line"/>
      <point x="167" y="249"/>
      <point x="166.5" y="220.5"/>
      <point x="166.5" y="189.25" type="curve" smooth="yes"/>
      <point x="166.5" y="158"/>
      <point x="167" y="124"/>
      <point x="168" y="97" type="curve" smooth="yes"/>
      <point x="168" y="68"/>
      <point x="170" y="35"/>
      <point x="173" y="0" type="curve"/>
      <point x="57" y="0" type="line"/>
      <point x="55" y="142" type="line"/>
      <point x="55" y="264"/>
      <point x="56" y="340"/>
      <point x="66" y="451" type="curve"/>
      <point x="179" y="451" type="line"/>
      <point x="170" y="386"/>
      <point x="170" y="328"/>
      <point x="168" y="293" type="curve"/>
      <point x="550" y="293" type="line"/>
      <point x="432" y="415" type="line" smooth="yes"/>
      <point x="428" y="419"/>
      <point x="414" y="434"/>
      <point x="414" y="442" type="curve" smooth="yes"/>
      <point x="414" y="452"/>
      <point x="426" y="451"/>
      <point x="440" y="451" type="curve" smooth="yes"/>
      <point x="524" y="451"/>
      <point x="608" y="451"/>
      <point x="692" y="451" type="curve" smooth="yes"/>
      <point x="702" y="451"/>
      <point x="712" y="451"/>
      <point x="721" y="450" type="curve" smooth="yes"/>
      <point x="730" y="450"/>
      <point x="735" y="447"/>
      <point x="735" y="440" type="curve" smooth="yes"/>
      <point x="735" y="436"/>
      <point x="732" y="431"/>
      <point x="727" y="425" type="curve" smooth="yes"/>
      <point x="722" y="419"/>
      <point x="715" y="412"/>
      <point x="707" y="403" type="curve" smooth="yes"/>
      <point x="606" y="295" type="line"/>
      <point x="705" y="295"/>
      <point x="765" y="265"/>
      <point x="821" y="214" type="curve" smooth="yes"/>
      <point x="884" y="161"/>
      <point x="911" y="92"/>
      <point x="935" y="0" type="curve"/>
      <point x="810" y="0" type="line"/>
      <point x="799" y="83"/>
      <point x="777" y="139"/>
      <point x="746" y="170" type="curve" smooth="yes"/>
      <point x="714" y="200"/>
      <point x="678" y="220"/>
    </contour>
    <contour>
      <point x="488" y="416" type="curve" smooth="yes"/>
      <point x="488" y="410"/>
      <point x="499" y="400"/>
      <point x="503" y="395" type="curve" smooth="yes"/>
      <point x="561" y="336" type="line" smooth="yes"/>
      <point x="566" y="331"/>
      <point x="577" y="318"/>
      <point x="583" y="318" type="curve" smooth="yes"/>
      <point x="584" y="318"/>
      <point x="586" y="319"/>
      <point x="590" y="322" type="curve" smooth="yes"/>
      <point x="614" y="346"/>
      <point x="639" y="374"/>
      <point x="662" y="399" type="curve" smooth="yes"/>
      <point x="666" y="403"/>
      <point x="674" y="409"/>
      <point x="674" y="417" type="curve" smooth="yes"/>
      <point x="674" y="420"/>
      <point x="672" y="422"/>
      <point x="668" y="424" type="curve" smooth="yes"/>
      <point x="664" y="424"/>
      <point x="657" y="425"/>
      <point x="648" y="425" type="curve" smooth="yes"/>
      <point x="513" y="425" type="line" smooth="yes"/>
      <point x="496" y="425"/>
      <point x="488" y="422"/>
    </contour>
  </outline>
</glyph>
<glyph name="uni046F" format="2">
  <advance width="481"/>
  <unicode hex="046F"/>
  <anchor x="367" y="683" name="Yerik"/>
  <anchor x="257" y="683" name="Above"/>
  <outline>
    <contour>
      <point x="51" y="-68" type="curve" smooth="yes"/>
      <point x="51" y="-11.8321"/>
      <point x="90.8235" y="43"/>
      <point x="147" y="43" type="curve" smooth="yes"/>
      <point x="164" y="43"/>
      <point x="179" y="41"/>
      <point x="192" y="37" type="curve" smooth="yes"/>
      <point x="224" y="24"/>
      <point x="245" y="13"/>
      <point x="268" y="13" type="curve" smooth="yes"/>
      <point x="305" y="13"/>
      <point x="339" y="41"/>
      <point x="339" y="118" type="curve" smooth="yes"/>
      <point x="339" y="136"/>
      <point x="335" y="160"/>
      <point x="328" y="189" type="curve" smooth="yes"/>
      <point x="321" y="219"/>
      <point x="296" y="234"/>
      <point x="251" y="234" type="curve" smooth="yes"/>
      <point x="218" y="234"/>
      <point x="197" y="223"/>
      <point x="186" y="200" type="curve" smooth="yes"/>
      <point x="175" y="177"/>
      <point x="170" y="150"/>
      <point x="170" y="118" type="curve"/>
      <point x="66" y="118" type="line"/>
      <point x="89" y="177"/>
      <point x="111" y="214"/>
      <point x="134" y="229" type="curve" smooth="yes"/>
      <point x="157" y="244"/>
      <point x="195" y="252"/>
      <point x="248" y="252" type="curve" smooth="yes"/>
      <point x="272" y="254"/>
      <point x="292" y="261"/>
      <point x="308" y="273" type="curve" smooth="yes"/>
      <point x="325" y="285"/>
      <point x="333" y="309"/>
      <point x="333" y="346" type="curve" smooth="yes"/>
      <point x="333" y="414"/>
      <point x="296" y="440"/>
      <point x="253" y="440" type="curve" smooth="yes"/>
      <point x="193" y="440"/>
      <point x="164" y="401"/>
      <point x="164" y="308" type="curve"/>
      <point x="63" y="308" type="line"/>
      <point x="63" y="357"/>
      <point x="74.8717" y="387.591"/>
      <point x="97.5" y="411" type="curve" smooth="yes"/>
      <point x="112" y="426"/>
      <point x="135" y="439.5"/>
      <point x="152" y="445.5" type="curve" smooth="yes"/>
      <point x="179.594" y="455.239"/>
      <point x="213.5" y="459"/>
      <point x="213.5" y="459" type="curve"/>
      <point x="203.5" y="485"/>
      <point x="187.644" y="514.955"/>
      <point x="177.5" y="531" type="curve" smooth="yes"/>
      <point x="165.085" y="550.637"/>
      <point x="152" y="567.5"/>
      <point x="136" y="584" type="curve" smooth="yes"/>
      <point x="127.882" y="592.372"/>
      <point x="127" y="600"/>
      <point x="127" y="602" type="curve" smooth="yes"/>
      <point x="127" y="607"/>
      <point x="134" y="609"/>
      <point x="149" y="609" type="curve" smooth="yes"/>
      <point x="207" y="609" type="line"/>
      <point x="225" y="599"/>
      <point x="238.5" y="566"/>
      <point x="238.5" y="566" type="curve" smooth="yes"/>
      <point x="238.5" y="566"/>
      <point x="254" y="534.5"/>
      <point x="261" y="516" type="curve"/>
      <point x="277" y="575"/>
      <point x="296" y="615"/>
      <point x="353" y="615" type="curve" smooth="yes"/>
      <point x="374" y="615"/>
      <point x="394" y="607"/>
      <point x="394" y="596" type="curve" smooth="yes"/>
      <point x="394" y="589"/>
      <point x="394" y="586"/>
      <point x="357" y="577" type="curve" smooth="yes"/>
      <point x="321" y="568"/>
      <point x="288" y="532"/>
      <point x="277" y="460" type="curve"/>
      <point x="316" y="457"/>
      <point x="351" y="448"/>
      <point x="380" y="434" type="curve" smooth="yes"/>
      <point x="409" y="420"/>
      <point x="424" y="393"/>
      <point x="424" y="352" type="curve" smooth="yes"/>
      <point x="424" y="319"/>
      <point x="413" y="296"/>
      <point x="390" y="281" type="curve" smooth="yes"/>
      <point x="367" y="266"/>
      <point x="341" y="256"/>
      <point x="311" y="249" type="curve"/>
      <point x="311" y="241" type="line"/>
      <point x="342" y="234"/>
      <point x="370" y="223"/>
      <point x="395" y="206" type="curve" smooth="yes"/>
      <point x="420" y="190"/>
      <point x="433" y="161"/>
      <point x="433" y="120" type="curve" smooth="yes"/>
      <point x="433" y="47"/>
      <point x="389" y="-13"/>
      <point x="306" y="-13" type="curve" smooth="yes"/>
      <point x="271" y="-13"/>
      <point x="240" y="0"/>
      <point x="209" y="11" type="curve" smooth="yes"/>
      <point x="201" y="12"/>
      <point x="187" y="17"/>
      <point x="179" y="17" type="curve" smooth="yes"/>
      <point x="146" y="17"/>
      <point x="124" y="-17"/>
      <point x="124" y="-65" type="curve" smooth="yes"/>
      <point x="124" y="-110"/>
      <point x="140" y="-155"/>
      <point x="180" y="-155" type="curve" smooth="yes"/>
      <point x="195" y="-155"/>
      <point x="202" y="-152"/>
      <point x="237" y="-141" type="curve" smooth="yes"/>
      <point x="273" y="-132"/>
      <point x="303" y="-123"/>
      <point x="328" y="-123" type="curve" smooth="yes"/>
      <point x="379" y="-123"/>
      <point x="407" y="-150"/>
      <point x="407" y="-179" type="curve" smooth="yes"/>
      <point x="407" y="-199"/>
      <point x="396" y="-217"/>
      <point x="369" y="-217" type="curve" smooth="yes"/>
      <point x="342" y="-217"/>
      <point x="330" y="-202"/>
      <point x="330" y="-179" type="curve" smooth="yes"/>
      <point x="330" y="-168" type="line" smooth="yes"/>
      <point x="330" y="-145"/>
      <point x="327" y="-140"/>
      <point x="311" y="-140" type="curve" smooth="yes"/>
      <point x="302" y="-140"/>
      <point x="286" y="-144"/>
      <point x="263" y="-152" type="curve" smooth="yes"/>
      <point x="218" y="-168"/>
      <point x="176" y="-181"/>
      <point x="149" y="-181" type="curve" smooth="yes"/>
      <point x="90.0895" y="-181"/>
      <point x="51" y="-126.633"/>
    </contour>
  </outline>
</glyph>
<glyph name="afii10147" format="2">
  <advance width="704"/>
  <unicode hex="0472"/>
  <anchor x="588" y="680" name="Yerik"/>
  <anchor x="349" y="680" name="Above"/>
  <outline>
    <contour>
      <point x="61" y="70" type="curve" smooth="yes"/>
      <point x="61" y="137.044"/>
      <point x="51.3255" y="158.907"/>
      <point x="29" y="211" type="curve"/>
      <point x="165" y="211" type="line"/>
      <point x="145" y="248"/>
      <point x="127" y="295"/>
      <point x="127" y="356" type="curve" smooth="yes"/>
      <point x="127" y="430"/>
      <point x="153" y="495"/>
      <point x="205" y="552" type="curve" smooth="yes"/>
      <point x="257" y="609"/>
      <point x="315" y="637"/>
      <point x="380" y="637" type="curve" smooth="yes"/>
      <point x="390" y="637"/>
      <point x="395" y="634"/>
      <point x="395" y="627" type="curve" smooth="yes"/>
      <point x="392" y="594" type="line"/>
      <point x="392" y="567"/>
      <point x="410" y="539"/>
      <point x="465" y="471" type="curve" smooth="yes"/>
      <point x="520" y="403"/>
      <point x="556" y="350"/>
      <point x="556" y="270" type="curve" smooth="yes"/>
      <point x="556" y="242"/>
      <point x="552" y="216"/>
      <point x="552" y="211" type="curve"/>
      <point x="674" y="211" type="line"/>
      <point x="661" y="171"/>
      <point x="646" y="129"/>
      <point x="646" y="73" type="curve" smooth="yes"/>
      <point x="646" y="42"/>
      <point x="647" y="35"/>
      <point x="655" y="3" type="curve" smooth="yes"/>
      <point x="656" y="-2"/>
      <point x="655" y="-7"/>
      <point x="650" y="-12" type="curve"/>
      <point x="631" y="-12"/>
      <point x="611" y="10"/>
      <point x="590" y="53" type="curve" smooth="yes"/>
      <point x="569" y="96"/>
      <point x="558" y="142"/>
      <point x="558" y="189" type="curve"/>
      <point x="546" y="189" type="line"/>
      <point x="531" y="152"/>
      <point x="515" y="121"/>
      <point x="498" y="97" type="curve" smooth="yes"/>
      <point x="481" y="73"/>
      <point x="450" y="48"/>
      <point x="405" y="23" type="curve" smooth="yes"/>
      <point x="360" y="-2"/>
      <point x="314" y="-14"/>
      <point x="265" y="-14" type="curve" smooth="yes"/>
      <point x="256" y="-14"/>
      <point x="251" y="-11"/>
      <point x="251" y="-6" type="curve"/>
      <point x="256.553" y="6.95606"/>
      <point x="265" y="20.2924"/>
      <point x="265" y="30" type="curve" smooth="yes"/>
      <point x="265" y="53"/>
      <point x="248" y="79"/>
      <point x="227" y="111" type="curve" smooth="yes"/>
      <point x="177" y="189" type="line"/>
      <point x="151" y="189" type="line"/>
      <point x="142" y="140"/>
      <point x="128" y="93"/>
      <point x="109" y="50" type="curve" smooth="yes"/>
      <point x="90" y="7"/>
      <point x="73" y="-14"/>
      <point x="58" y="-14" type="curve" smooth="yes"/>
      <point x="53" y="-14"/>
      <point x="49" y="-8"/>
      <point x="49" y="-3" type="curve"/>
      <point x="53" y="14" type="line"/>
      <point x="58" y="27"/>
      <point x="61" y="39"/>
    </contour>
    <contour>
      <point x="300" y="87" type="curve" smooth="yes"/>
      <point x="300" y="45.13"/>
      <point x="297.283" y="41.3078"/>
      <point x="278" y="8" type="curve"/>
      <point x="327" y="8"/>
      <point x="356" y="26"/>
      <point x="388" y="55" type="curve" smooth="yes"/>
      <point x="421" y="84"/>
      <point x="436" y="130"/>
      <point x="445" y="189" type="curve"/>
      <point x="282" y="189" type="line"/>
      <point x="291" y="157"/>
      <point x="300" y="120"/>
    </contour>
    <contour>
      <point x="378" y="619" type="curve"/>
      <point x="291.659" y="608.96"/>
      <point x="229" y="532.265"/>
      <point x="229" y="435" type="curve" smooth="yes"/>
      <point x="229" y="363"/>
      <point x="250" y="292"/>
      <point x="277" y="211" type="curve"/>
      <point x="448" y="211" type="line"/>
      <point x="448" y="268"/>
      <point x="443" y="309"/>
      <point x="416" y="382" type="curve" smooth="yes"/>
      <point x="382" y="475" type="line" smooth="yes"/>
      <point x="372" y="501"/>
      <point x="367" y="527"/>
      <point x="367" y="553" type="curve" smooth="yes"/>
      <point x="367" y="587.49"/>
      <point x="368.115" y="589.345"/>
    </contour>
  </outline>
</glyph>
<glyph name="afii10195" format="2">
  <advance width="796"/>
  <unicode hex="0473"/>
  <anchor x="597" y="623" name="Yerik"/>
  <anchor x="417" y="623" name="Above"/>
  <outline>
    <contour>
      <point x="297" y="23" type="line"/>
      <point x="297" y="34.0265"/>
      <point x="292" y="97.5343"/>
      <point x="292" y="108" type="curve" smooth="yes"/>
      <point x="292" y="187"/>
      <point x="307" y="269"/>
      <point x="338" y="356" type="curve" smooth="yes"/>
      <point x="369" y="443"/>
      <point x="396" y="487"/>
      <point x="417" y="487" type="curve" smooth="yes"/>
      <point x="438" y="487"/>
      <point x="463" y="444"/>
      <point x="494" y="357" type="curve" smooth="yes"/>
      <point x="525" y="271"/>
      <point x="541" y="190"/>
      <point x="541" y="113" type="curve" smooth="yes"/>
      <point x="541" y="88"/>
      <point x="540" y="71"/>
      <point x="535" y="23" type="curve"/>
      <point x="747" y="23" type="line" smooth="yes"/>
      <point x="766" y="23"/>
      <point x="776" y="20"/>
      <point x="776" y="13" type="curve"/>
      <point x="772" y="3" type="line"/>
      <point x="711" y="-82"/>
      <point x="717" y="-183"/>
      <point x="698" y="-184" type="curve" smooth="yes"/>
      <point x="690" y="-184"/>
      <point x="687" y="-175"/>
      <point x="684" y="-159" type="curve" smooth="yes"/>
      <point x="663" y="-30" type="line" smooth="yes"/>
      <point x="660" y="-13"/>
      <point x="658" y="-4"/>
      <point x="655" y="-2" type="curve" smooth="yes"/>
      <point x="643" y="-1"/>
      <point x="638" y="0"/>
      <point x="633" y="0" type="curve" smooth="yes"/>
      <point x="527" y="0" type="line"/>
      <point x="508" y="-76"/>
      <point x="487" y="-129"/>
      <point x="466" y="-159" type="curve" smooth="yes"/>
      <point x="445" y="-189"/>
      <point x="428" y="-204"/>
      <point x="415" y="-204" type="curve" smooth="yes"/>
      <point x="398" y="-204"/>
      <point x="378" y="-186"/>
      <point x="355" y="-149" type="curve" smooth="yes"/>
      <point x="333" y="-112"/>
      <point x="316" y="-63"/>
      <point x="303" y="0" type="curve"/>
      <point x="214" y="0" type="line" smooth="yes"/>
      <point x="171.619" y="0"/>
      <point x="168" y="-0.564763"/>
      <point x="168" y="-43" type="curve" smooth="yes"/>
      <point x="168" y="-203" type="line"/>
      <point x="65" y="-203" type="line"/>
      <point x="65" y="-44" type="line" smooth="yes"/>
      <point x="65" y="-13"/>
      <point x="65" y="-14"/>
      <point x="46" y="-6" type="curve" smooth="yes"/>
      <point x="29" y="2"/>
      <point x="22" y="7"/>
      <point x="18" y="14" type="curve"/>
      <point x="18" y="23"/>
      <point x="19" y="23"/>
      <point x="44" y="23" type="curve" smooth="yes"/>
    </contour>
    <contour>
      <point x="346" y="23" type="line"/>
      <point x="486" y="23" type="line"/>
      <point x="488" y="75" type="line"/>
      <point x="488" y="182"/>
      <point x="451" y="237"/>
      <point x="416" y="237" type="curve" smooth="yes"/>
      <point x="381" y="237"/>
      <point x="344" y="176"/>
      <point x="344" y="77" type="curve"/>
    </contour>
    <contour>
      <point x="351" y="0" type="line"/>
      <point x="358" y="-25"/>
      <point x="367" y="-51"/>
      <point x="377" y="-76" type="curve" smooth="yes"/>
      <point x="387" y="-101"/>
      <point x="400" y="-114"/>
      <point x="416" y="-114" type="curve" smooth="yes"/>
      <point x="432" y="-114"/>
      <point x="445" y="-101"/>
      <point x="455" y="-76" type="curve" smooth="yes"/>
      <point x="465" y="-51"/>
      <point x="474" y="-25"/>
      <point x="481" y="0" type="curve"/>
    </contour>
  </outline>
</glyph>
<glyph name="uni0476" format="2">
  <advance width="555"/>
  <unicode hex="0476"/>
  <anchor x="408" y="1000" name="Yerik"/>
  <anchor x="259" y="1000" name="Above"/>
  <outline>
    <contour>
      <point x="307" y="-2" type="line"/>
      <point x="106" y="30" type="line"/>
      <point x="106" y="128" type="line" smooth="yes"/>
      <point x="106" y="305"/>
      <point x="103" y="415"/>
      <point x="96" y="460" type="curve" smooth="yes"/>
      <point x="82.1041" y="549.331"/>
      <point x="77.5967" y="558.77"/>
      <point x="38" y="617" type="curve"/>
      <point x="38" y="628" type="line"/>
      <point x="168" y="628" type="line"/>
      <point x="184" y="577"/>
      <point x="195" y="530"/>
      <point x="201" y="487" type="curve" smooth="yes"/>
      <point x="208" y="444"/>
      <point x="211" y="383"/>
      <point x="211" y="302" type="curve" smooth="yes"/>
      <point x="210" y="46" type="line"/>
      <point x="278" y="34" type="line"/>
      <point x="278" y="156"/>
      <point x="283" y="254"/>
      <point x="294" y="328" type="curve" smooth="yes"/>
      <point x="305" y="402"/>
      <point x="320" y="465"/>
      <point x="339" y="516" type="curve" smooth="yes"/>
      <point x="358" y="567"/>
      <point x="382" y="601"/>
      <point x="412" y="616" type="curve" smooth="yes"/>
      <point x="442" y="631"/>
      <point x="474" y="639"/>
      <point x="509" y="639" type="curve" smooth="yes"/>
      <point x="520" y="639"/>
      <point x="531" y="637"/>
      <point x="531" y="628" type="curve" smooth="yes"/>
      <point x="531" y="626"/>
      <point x="529" y="622"/>
      <point x="525" y="617" type="curve" smooth="yes"/>
      <point x="500" y="590"/>
      <point x="492" y="580"/>
      <point x="492" y="547" type="curve"/>
      <point x="494" y="530" type="line"/>
      <point x="499" y="503" type="line" smooth="yes"/>
      <point x="500" y="498"/>
      <point x="499" y="486"/>
      <point x="494" y="486" type="curve" smooth="yes"/>
      <point x="487" y="489"/>
      <point x="488" y="488"/>
      <point x="477" y="496" type="curve" smooth="yes"/>
      <point x="468" y="504"/>
      <point x="439" y="513"/>
      <point x="426" y="513" type="curve" smooth="yes"/>
      <point x="387" y="513"/>
      <point x="363.875" y="474.073"/>
      <point x="341" y="387" type="curve" smooth="yes"/>
      <point x="325.5" y="328"/>
      <point x="308" y="199.971"/>
      <point x="308" y="65" type="curve"/>
    </contour>
    <contour>
      <point x="103" y="926" type="curve" smooth="yes"/>
      <point x="122" y="923" type="line"/>
      <point x="143" y="919" type="line" smooth="yes"/>
      <point x="151" y="918"/>
      <point x="156" y="915"/>
      <point x="159" y="909" type="curve" smooth="yes"/>
      <point x="184.239" y="844.905"/>
      <point x="209.141" y="780.474"/>
      <point x="232" y="714" type="curve" smooth="yes"/>
      <point x="233" y="710"/>
      <point x="243" y="683"/>
      <point x="243" y="679" type="curve" smooth="yes"/>
      <point x="243" y="675"/>
      <point x="239" y="673"/>
      <point x="230" y="673" type="curve"/>
      <point x="198" y="678" type="line" smooth="yes"/>
      <point x="195" y="679"/>
      <point x="192" y="683"/>
      <point x="189" y="690" type="curve" smooth="yes"/>
      <point x="178.552" y="714.219"/>
      <point x="168.289" y="738.622"/>
      <point x="158" y="763" type="curve" smooth="yes"/>
      <point x="131" y="825" type="line" smooth="yes"/>
      <point x="126.591" y="834.7"/>
      <point x="94" y="903.522"/>
      <point x="94" y="917" type="curve" smooth="yes"/>
      <point x="94" y="923"/>
      <point x="97" y="926"/>
    </contour>
    <contour>
      <point x="328" y="690" type="curve"/>
      <point x="316.592" y="713.592"/>
      <point x="306.365" y="738.365"/>
      <point x="296" y="763" type="curve" smooth="yes"/>
      <point x="269" y="825" type="line" smooth="yes"/>
      <point x="264.591" y="834.7"/>
      <point x="232" y="903.522"/>
      <point x="232" y="917" type="curve" smooth="yes"/>
      <point x="232" y="923"/>
      <point x="235" y="926"/>
      <point x="241" y="926" type="curve" smooth="yes"/>
      <point x="260" y="923" type="line"/>
      <point x="282" y="919" type="line" smooth="yes"/>
      <point x="303" y="915"/>
      <point x="302" y="893"/>
      <point x="339" y="801" type="curve"/>
      <point x="371" y="714" type="line" smooth="yes"/>
      <point x="375" y="706"/>
      <point x="381" y="686"/>
      <point x="381" y="679" type="curve" smooth="yes"/>
      <point x="381" y="675"/>
      <point x="377" y="673"/>
      <point x="368" y="673" type="curve"/>
      <point x="336" y="678" type="line" smooth="yes"/>
      <point x="333" y="679"/>
      <point x="330" y="683"/>
    </contour>
  </outline>
</glyph>
<glyph name="uni0477" format="2">
  <advance width="519"/>
  <unicode hex="0477"/>
  <anchor x="227" y="893" name="Yerik"/>
  <anchor x="227" y="893" name="Above"/>
  <outline>
    <contour>
      <point x="460" y="337" type="curve"/>
      <point x="450" y="339"/>
      <point x="427" y="344"/>
      <point x="420" y="344" type="curve" smooth="yes"/>
      <point x="375" y="344"/>
      <point x="344" y="319"/>
      <point x="323" y="243" type="curve" smooth="yes"/>
      <point x="302" y="168"/>
      <point x="285" y="88"/>
      <point x="273" y="0" type="curve"/>
      <point x="140" y="0" type="line"/>
      <point x="140" y="69"/>
      <point x="131" y="134"/>
      <point x="112" y="194" type="curve" smooth="yes"/>
      <point x="94" y="255"/>
      <point x="66" y="332"/>
      <point x="29" y="426" type="curve" smooth="yes"/>
      <point x="19" y="451" type="line"/>
      <point x="150" y="451" type="line"/>
      <point x="172" y="390"/>
      <point x="192" y="323"/>
      <point x="209" y="251" type="curve" smooth="yes"/>
      <point x="226" y="180"/>
      <point x="235" y="131"/>
      <point x="235" y="106" type="curve" smooth="yes"/>
      <point x="237" y="94"/>
      <point x="241" y="88"/>
      <point x="246" y="88" type="curve" smooth="yes"/>
      <point x="254" y="88"/>
      <point x="258" y="105"/>
      <point x="258" y="108" type="curve" smooth="yes"/>
      <point x="266" y="147"/>
      <point x="274" y="187"/>
      <point x="282" y="227" type="curve" smooth="yes"/>
      <point x="301" y="322"/>
      <point x="325" y="384"/>
      <point x="354" y="414" type="curve" smooth="yes"/>
      <point x="383" y="444"/>
      <point x="424" y="459"/>
      <point x="477" y="459" type="curve" smooth="yes"/>
      <point x="485" y="459"/>
      <point x="495" y="459"/>
      <point x="495" y="451" type="curve" smooth="yes"/>
      <point x="495" y="446"/>
      <point x="491" y="444"/>
      <point x="482" y="435" type="curve" smooth="yes"/>
      <point x="474" y="427"/>
      <point x="465" y="402"/>
      <point x="465" y="374" type="curve" smooth="yes"/>
      <point x="465" y="365.562"/>
      <point x="467.848" y="354.91"/>
      <point x="467.848" y="347.204" type="curve" smooth="yes"/>
      <point x="467.848" y="341.211"/>
      <point x="466.125" y="337"/>
    </contour>
    <contour>
      <point x="88" y="791" type="curve" smooth="yes"/>
      <point x="107" y="788" type="line"/>
      <point x="128" y="784" type="line" smooth="yes"/>
      <point x="136" y="783"/>
      <point x="141" y="780"/>
      <point x="144" y="774" type="curve" smooth="yes"/>
      <point x="169" y="710"/>
      <point x="194" y="645"/>
      <point x="217" y="579" type="curve" smooth="yes"/>
      <point x="218" y="575"/>
      <point x="228" y="548"/>
      <point x="228" y="544" type="curve" smooth="yes"/>
      <point x="228" y="540"/>
      <point x="224" y="538"/>
      <point x="215" y="538" type="curve"/>
      <point x="183" y="543" type="line" smooth="yes"/>
      <point x="180" y="544"/>
      <point x="177" y="548"/>
      <point x="174" y="555" type="curve" smooth="yes"/>
      <point x="164" y="579"/>
      <point x="153" y="604"/>
      <point x="143" y="628" type="curve" smooth="yes"/>
      <point x="116" y="690" type="line" smooth="yes"/>
      <point x="112" y="700"/>
      <point x="79" y="769"/>
      <point x="79" y="782" type="curve" smooth="yes"/>
      <point x="79" y="788"/>
      <point x="82" y="791"/>
    </contour>
    <contour>
      <point x="313" y="555" type="curve"/>
      <point x="302" y="579"/>
      <point x="291" y="603"/>
      <point x="281" y="628" type="curve" smooth="yes"/>
      <point x="254" y="690" type="line" smooth="yes"/>
      <point x="250" y="700"/>
      <point x="217" y="769"/>
      <point x="217" y="782" type="curve" smooth="yes"/>
      <point x="217" y="788"/>
      <point x="220" y="791"/>
      <point x="226" y="791" type="curve" smooth="yes"/>
      <point x="245" y="788" type="line"/>
      <point x="267" y="784" type="line" smooth="yes"/>
      <point x="288" y="780"/>
      <point x="287" y="758"/>
      <point x="324" y="666" type="curve"/>
      <point x="356" y="579" type="line" smooth="yes"/>
      <point x="360" y="571"/>
      <point x="366" y="551"/>
      <point x="366" y="544" type="curve" smooth="yes"/>
      <point x="366" y="540"/>
      <point x="362" y="538"/>
      <point x="353" y="538" type="curve"/>
      <point x="321" y="543" type="line" smooth="yes"/>
      <point x="318" y="544"/>
      <point x="315" y="548"/>
    </contour>
  </outline>
</glyph>
<glyph name="uni047B" format="2">
  <advance width="741"/>
  <unicode hex="047B"/>
  <anchor x="617" y="623" name="Yerik"/>
  <anchor x="365" y="623" name="Above"/>
  <outline>
    <contour>
      <point x="313" y="25" type="curve"/>
      <point x="322" y="50"/>
      <point x="334" y="69"/>
      <point x="369" y="69" type="curve" smooth="yes"/>
      <point x="404" y="69"/>
      <point x="417" y="49"/>
      <point x="425" y="25" type="curve"/>
      <point x="468" y="25"/>
      <point x="502" y="33"/>
      <point x="543" y="69" type="curve" smooth="yes"/>
      <point x="586" y="106"/>
      <point x="605" y="166"/>
      <point x="605" y="234" type="curve" smooth="yes"/>
      <point x="605" y="301"/>
      <point x="586" y="361"/>
      <point x="543" y="398" type="curve" smooth="yes"/>
      <point x="502" y="435"/>
      <point x="468" y="443"/>
      <point x="425" y="443" type="curve"/>
      <point x="417" y="416"/>
      <point x="406" y="398"/>
      <point x="369" y="398" type="curve" smooth="yes"/>
      <point x="334" y="398"/>
      <point x="322" y="416"/>
      <point x="313" y="443" type="curve"/>
      <point x="257" y="443"/>
      <point x="231" y="431"/>
      <point x="192" y="395" type="curve" smooth="yes"/>
      <point x="153" y="360"/>
      <point x="133" y="303"/>
      <point x="133" y="234" type="curve" smooth="yes"/>
      <point x="133" y="166"/>
      <point x="153" y="108"/>
      <point x="194" y="69" type="curve" smooth="yes"/>
      <point x="237" y="32"/>
      <point x="270" y="25"/>
    </contour>
    <contour>
      <point x="425" y="0" type="curve"/>
      <point x="412" y="-35"/>
      <point x="398" y="-44"/>
      <point x="369" y="-44" type="curve" smooth="yes"/>
      <point x="334" y="-44"/>
      <point x="322" y="-24"/>
      <point x="314" y="0" type="curve"/>
      <point x="239" y="0"/>
      <point x="172" y="20"/>
      <point x="114" y="59" type="curve" smooth="yes"/>
      <point x="57" y="99"/>
      <point x="28" y="157"/>
      <point x="28" y="234" type="curve" smooth="yes"/>
      <point x="28" y="310"/>
      <point x="57" y="368"/>
      <point x="114" y="407" type="curve" smooth="yes"/>
      <point x="172" y="447"/>
      <point x="239" y="467"/>
      <point x="314" y="467" type="curve"/>
      <point x="325" y="502"/>
      <point x="340" y="512"/>
      <point x="369" y="512" type="curve" smooth="yes"/>
      <point x="404" y="512"/>
      <point x="414" y="495"/>
      <point x="425" y="467" type="curve"/>
      <point x="500" y="467"/>
      <point x="566" y="447"/>
      <point x="623" y="407" type="curve" smooth="yes"/>
      <point x="681" y="368"/>
      <point x="710" y="310"/>
      <point x="710" y="234" type="curve" smooth="yes"/>
      <point x="710" y="158"/>
      <point x="681" y="100"/>
      <point x="623" y="60" type="curve" smooth="yes"/>
      <point x="566" y="20"/>
      <point x="500" y="0"/>
    </contour>
  </outline>
</glyph>
<glyph name="uni047C" format="2">
  <advance width="1041"/>
  <unicode hex="047C"/>
  <anchor x="548" y="1020" name="Yerik"/>
  <anchor x="549" y="1020" name="Above"/>
  <outline>
    <contour>
      <point x="683" y="446" type="curve" smooth="yes"/>
      <point x="669.991" y="446"/>
      <point x="606" y="479.639"/>
      <point x="606" y="490" type="curve" smooth="yes"/>
      <point x="606" y="493"/>
      <point x="610" y="498"/>
      <point x="617" y="507" type="curve" smooth="yes"/>
      <point x="624" y="516"/>
      <point x="643" y="535"/>
      <point x="673" y="565" type="curve" smooth="yes"/>
      <point x="733" y="626"/>
      <point x="752" y="645"/>
      <point x="776" y="645" type="curve" smooth="yes"/>
      <point x="807" y="645"/>
      <point x="852" y="619"/>
      <point x="907" y="574" type="curve" smooth="yes"/>
      <point x="934" y="551"/>
      <point x="960" y="520"/>
      <point x="984" y="481" type="curve" smooth="yes"/>
      <point x="1009" y="442"/>
      <point x="1021" y="392"/>
      <point x="1021" y="331" type="curve" smooth="yes"/>
      <point x="1021" y="238"/>
      <point x="990" y="158"/>
      <point x="927" y="91" type="curve" smooth="yes"/>
      <point x="865" y="24"/>
      <point x="801" y="-10"/>
      <point x="734" y="-10" type="curve" smooth="yes"/>
      <point x="689" y="-10"/>
      <point x="636" y="7"/>
      <point x="573" y="50" type="curve" smooth="yes"/>
      <point x="542" y="71"/>
      <point x="521" y="85"/>
      <point x="510" y="90" type="curve" smooth="yes"/>
      <point x="500" y="96"/>
      <point x="492" y="99"/>
      <point x="486" y="99" type="curve" smooth="yes"/>
      <point x="472" y="99"/>
      <point x="444" y="77"/>
      <point x="370" y="39" type="curve" smooth="yes"/>
      <point x="345" y="27"/>
      <point x="327" y="19"/>
      <point x="315" y="14" type="curve" smooth="yes"/>
      <point x="292" y="5"/>
      <point x="255" y="-7"/>
      <point x="227" y="-7" type="curve" smooth="yes"/>
      <point x="170" y="-7"/>
      <point x="122" y="22"/>
      <point x="81" y="80" type="curve" smooth="yes"/>
      <point x="40" y="139"/>
      <point x="20" y="207"/>
      <point x="20" y="285" type="curve" smooth="yes"/>
      <point x="20" y="376"/>
      <point x="52" y="456"/>
      <point x="115" y="524" type="curve" smooth="yes"/>
      <point x="178" y="592"/>
      <point x="228" y="626"/>
      <point x="264" y="626" type="curve" smooth="yes"/>
      <point x="284" y="626"/>
      <point x="320" y="609"/>
      <point x="373" y="574" type="curve" smooth="yes"/>
      <point x="426" y="540"/>
      <point x="453" y="518"/>
      <point x="453" y="507" type="curve" smooth="yes"/>
      <point x="453" y="502"/>
      <point x="441" y="493"/>
      <point x="417" y="481" type="curve" smooth="yes"/>
      <point x="394" y="470"/>
      <point x="379" y="464"/>
      <point x="374" y="464" type="curve" smooth="yes"/>
      <point x="365" y="464"/>
      <point x="356" y="470"/>
      <point x="335" y="486" type="curve" smooth="yes"/>
      <point x="315" y="502"/>
      <point x="273" y="523"/>
      <point x="242" y="523" type="curve" smooth="yes"/>
      <point x="211" y="523"/>
      <point x="179" y="500"/>
      <point x="147" y="454" type="curve" smooth="yes"/>
      <point x="116" y="408"/>
      <point x="100" y="359"/>
      <point x="100" y="306" type="curve" smooth="yes"/>
      <point x="100" y="251"/>
      <point x="117" y="196"/>
      <point x="151" y="142" type="curve" smooth="yes"/>
      <point x="186" y="89"/>
      <point x="229" y="62"/>
      <point x="282" y="62" type="curve" smooth="yes"/>
      <point x="341" y="62"/>
      <point x="409" y="94"/>
      <point x="454" y="121" type="curve"/>
      <point x="538" y="166" type="line" smooth="yes"/>
      <point x="542" y="169"/>
      <point x="550" y="171"/>
      <point x="554" y="171" type="curve" smooth="yes"/>
      <point x="562" y="171"/>
      <point x="590" y="154"/>
      <point x="666" y="106" type="curve" smooth="yes"/>
      <point x="705" y="82"/>
      <point x="731" y="66"/>
      <point x="746" y="58" type="curve" smooth="yes"/>
      <point x="761" y="50"/>
      <point x="776" y="46"/>
      <point x="790" y="46" type="curve" smooth="yes"/>
      <point x="825" y="46"/>
      <point x="861" y="68"/>
      <point x="897" y="111" type="curve" smooth="yes"/>
      <point x="933" y="154"/>
      <point x="951" y="209"/>
      <point x="951" y="276" type="curve" smooth="yes"/>
      <point x="951" y="349"/>
      <point x="934" y="410"/>
      <point x="900" y="459" type="curve" smooth="yes"/>
      <point x="866" y="508"/>
      <point x="835" y="533"/>
      <point x="806" y="533" type="curve" smooth="yes"/>
      <point x="778" y="533"/>
      <point x="750" y="509"/>
      <point x="721" y="476" type="curve" smooth="yes"/>
      <point x="696" y="448"/>
      <point x="692" y="446"/>
      <point x="685" y="446" type="curve" smooth="yes"/>
      <point x="685" y="446"/>
      <point x="684" y="446"/>
    </contour>
    <contour>
      <point x="639" y="719" type="curve" smooth="yes"/>
      <point x="639" y="692"/>
      <point x="629" y="664"/>
      <point x="609" y="633" type="curve" smooth="yes"/>
      <point x="590" y="603"/>
      <point x="573" y="588"/>
      <point x="559" y="588" type="curve" smooth="yes"/>
      <point x="553" y="588"/>
      <point x="550" y="590"/>
      <point x="550" y="595" type="curve" smooth="yes"/>
      <point x="550" y="603"/>
      <point x="553" y="608"/>
      <point x="564" y="625" type="curve" smooth="yes"/>
      <point x="575" y="642"/>
      <point x="581" y="668"/>
      <point x="581" y="684" type="curve" smooth="yes"/>
      <point x="581" y="721"/>
      <point x="553" y="735"/>
      <point x="529" y="735" type="curve" smooth="yes"/>
      <point x="477" y="735"/>
      <point x="469" y="684"/>
      <point x="447" y="684" type="curve" smooth="yes"/>
      <point x="440" y="684"/>
      <point x="437" y="688"/>
      <point x="437" y="695" type="curve" smooth="yes"/>
      <point x="437" y="703"/>
      <point x="446" y="723"/>
      <point x="465" y="754" type="curve" smooth="yes"/>
      <point x="484" y="785"/>
      <point x="512" y="801"/>
      <point x="549" y="801" type="curve" smooth="yes"/>
      <point x="601" y="801"/>
      <point x="639" y="763"/>
    </contour>
    <contour>
      <point x="553" y="932" type="curve" smooth="yes"/>
      <point x="592" y="932"/>
      <point x="624" y="928"/>
      <point x="649" y="919" type="curve" smooth="yes"/>
      <point x="674" y="911"/>
      <point x="705" y="896"/>
      <point x="742" y="874" type="curve" smooth="yes"/>
      <point x="779" y="852"/>
      <point x="804" y="839"/>
      <point x="819" y="834" type="curve" smooth="yes"/>
      <point x="834" y="830"/>
      <point x="854" y="828"/>
      <point x="880" y="828" type="curve" smooth="yes"/>
      <point x="895" y="828"/>
      <point x="908" y="831"/>
      <point x="912" y="831" type="curve" smooth="yes"/>
      <point x="923" y="833"/>
      <point x="929" y="831"/>
      <point x="929" y="824" type="curve" smooth="yes"/>
      <point x="929" y="816"/>
      <point x="909" y="804"/>
      <point x="870" y="789" type="curve" smooth="yes"/>
      <point x="831" y="774"/>
      <point x="804" y="766"/>
      <point x="789" y="766" type="curve" smooth="yes"/>
      <point x="758" y="766"/>
      <point x="726" y="784"/>
      <point x="683" y="820" type="curve" smooth="yes"/>
      <point x="640" y="857"/>
      <point x="595" y="898"/>
      <point x="534" y="898" type="curve" smooth="yes"/>
      <point x="487" y="898"/>
      <point x="447" y="883"/>
      <point x="415" y="854" type="curve" smooth="yes"/>
      <point x="384" y="825"/>
      <point x="363" y="799"/>
      <point x="354" y="776" type="curve" smooth="yes"/>
      <point x="345" y="754"/>
      <point x="337" y="742"/>
      <point x="332" y="739" type="curve" smooth="yes"/>
      <point x="327" y="736"/>
      <point x="314" y="735"/>
      <point x="294" y="735" type="curve" smooth="yes"/>
      <point x="249" y="735"/>
      <point x="226" y="740"/>
      <point x="226" y="750" type="curve" smooth="yes"/>
      <point x="226" y="753"/>
      <point x="224" y="753"/>
      <point x="237" y="761" type="curve" smooth="yes"/>
      <point x="250" y="769"/>
      <point x="262" y="794"/>
      <point x="275" y="823" type="curve" smooth="yes"/>
      <point x="288" y="854"/>
      <point x="301" y="882"/>
      <point x="334" y="895" type="curve" smooth="yes"/>
      <point x="369.866" y="909.768"/>
      <point x="499.945" y="932"/>
    </contour>
  </outline>
</glyph>
